<?xml version="1.0" encoding="utf-8"?>

<svg version="1.1" id="Layer_1" xmlns="http://www.w3.org/2000/svg" xmlns:xlink="http://www.w3.org/1999/xlink" x="0px" y="0px" viewBox="0 0 1024 896" style="enable-background:new 0 0 1024 896;" xml:space="preserve">

<g>
&#x9;<path class="st0" d="M258.5,790C258.5,790,258.5,790,258.5,790C258.5,790,258.4,790,258.5,790C258.4,790,258.4,790,258.5,790z"></path>
&#x9;<path class="st0" d="M256.9,792.9C256.9,792.9,257,792.9,256.9,792.9C257,792.9,256.9,792.9,256.9,792.9&#xA;&#x9;&#x9;C256.9,792.9,256.9,792.9,256.9,792.9z"></path>
&#x9;<path class="st0" d="M272.2,788.2C272.2,788.2,272.3,788.2,272.2,788.2c0,0-0.1,0-0.1,0C272.1,788.1,272.2,788.2,272.2,788.2z"></path>
&#x9;<path class="st0" d="M130.4,791.1C130.4,791.2,130.4,791.2,130.4,791.1C130.4,791.2,130.4,791.2,130.4,791.1&#xA;&#x9;&#x9;C130.4,791.1,130.4,791.1,130.4,791.1z"></path>
&#x9;<path class="st0" d="M208.3,755.3c0,0.1,0.1,0.1,0.1,0.2C208.4,755.5,208.3,755.4,208.3,755.3C208.3,755.4,208.3,755.3,208.3,755.3&#xA;&#x9;&#x9;z"></path>
&#x9;<path class="st0" d="M450.9,445.1C450.9,445.1,450.9,445.1,450.9,445.1C450.9,445.1,450.9,445.1,450.9,445.1&#xA;&#x9;&#x9;C450.9,445.1,450.9,445.1,450.9,445.1z"></path>
&#x9;<path class="st0" d="M741.4,501.2C741.4,501.2,741.5,501.2,741.4,501.2C741.5,501.2,741.4,501.2,741.4,501.2&#xA;&#x9;&#x9;C741.4,501.2,741.4,501.2,741.4,501.2z"></path>
&#x9;<path class="st0" d="M83.7,638.7c0.1,0,0.1-0.1,0.2-0.2C83.8,638.6,83.8,638.7,83.7,638.7C83.7,638.7,83.7,638.7,83.7,638.7z"></path>
&#x9;<path class="st0" d="M347.9,499.2c0,0-0.1,0-0.1,0C347.8,499.2,347.9,499.2,347.9,499.2C347.9,499.2,347.9,499.2,347.9,499.2z"></path>
&#x9;<path class="st0" d="M82.3,637.9c0,0,0.1,0,0.1,0C82.4,637.9,82.3,637.9,82.3,637.9C82.3,637.9,82.3,637.9,82.3,637.9z"></path>
&#x9;<path class="st0" d="M270.5,558.3C270.5,558.3,270.5,558.3,270.5,558.3C270.5,558.3,270.5,558.3,270.5,558.3&#xA;&#x9;&#x9;C270.5,558.3,270.5,558.3,270.5,558.3z"></path>
&#x9;<path class="st0" d="M106.7,758C106.7,758,106.7,758,106.7,758C106.7,758,106.7,758,106.7,758C106.7,758,106.7,758,106.7,758z"></path>
&#x9;<path class="st0" d="M953.8,332.9c0-0.1,0.1-0.1,0.1-0.1c0,0,0,0,0,0C953.8,332.9,953.8,332.9,953.8,332.9z"></path>
&#x9;<path class="st0" d="M956.8,516.2C956.8,516.2,956.8,516.2,956.8,516.2C956.8,516.2,956.8,516.2,956.8,516.2&#xA;&#x9;&#x9;C956.8,516.2,956.8,516.2,956.8,516.2z"></path>
&#x9;<path class="st0" d="M94.9,766.2C95,766.1,95,766.1,94.9,766.2C95,766.1,95,766.1,94.9,766.2C95,766.1,95,766.1,94.9,766.2z"></path>
&#x9;<path class="st0" d="M209,812.6c0.1,0,0.1,0,0.2-0.1C209.1,812.6,209,812.6,209,812.6C209,812.6,209,812.6,209,812.6z"></path>
&#x9;<path class="st0" d="M720.5,556.7C720.5,556.7,720.5,556.7,720.5,556.7C720.5,556.7,720.5,556.7,720.5,556.7&#xA;&#x9;&#x9;C720.5,556.7,720.5,556.7,720.5,556.7z"></path>
&#x9;<path class="st0" d="M94.2,808.7c0,0,0-0.1,0-0.1C94.2,808.7,94.2,808.7,94.2,808.7C94.2,808.7,94.2,808.7,94.2,808.7z"></path>
&#x9;<path class="st0" d="M836.9,501.9C836.9,501.9,836.9,501.9,836.9,501.9C836.9,501.9,836.9,501.9,836.9,501.9&#xA;&#x9;&#x9;C836.9,501.9,836.9,501.9,836.9,501.9z"></path>
&#x9;<path class="st0" d="M690.5,500C690.5,500,690.5,500,690.5,500C690.5,500,690.5,500,690.5,500C690.5,499.9,690.5,500,690.5,500z"></path>
&#x9;<path class="st0" d="M79.9,830.8C79.9,830.7,79.9,830.7,79.9,830.8C79.9,830.7,79.8,830.7,79.9,830.8&#xA;&#x9;&#x9;C79.8,830.7,79.8,830.8,79.9,830.8z"></path>
&#x9;<path class="st0" d="M602.3,137.4C602.3,137.4,602.3,137.4,602.3,137.4C602.3,137.4,602.3,137.4,602.3,137.4&#xA;&#x9;&#x9;C602.3,137.4,602.3,137.4,602.3,137.4z"></path>
&#x9;<path class="st0" d="M603.2,137.2c-0.1-0.1-0.2-0.1-0.3-0.1C603,137.1,603.1,137.1,603.2,137.2z"></path>
&#x9;<path class="st0" d="M897.6,236.8c0.1,0.1,0.1,0.1,0.1,0.2c0,0,0-0.1,0-0.1C897.6,236.8,897.6,236.8,897.6,236.8z"></path>
&#x9;<path class="st0" d="M594.1,685.3C594.1,685.3,594.1,685.3,594.1,685.3C594.1,685.3,594.1,685.3,594.1,685.3&#xA;&#x9;&#x9;C594.1,685.3,594.1,685.3,594.1,685.3z"></path>
&#x9;<path class="st0" d="M903.8,476.6C903.8,476.6,903.8,476.6,903.8,476.6C903.8,476.6,903.8,476.6,903.8,476.6&#xA;&#x9;&#x9;C903.8,476.6,903.8,476.6,903.8,476.6z"></path>
&#x9;<path class="st0" d="M270.7,558.8C270.7,558.8,270.7,558.8,270.7,558.8C270.7,558.8,270.7,558.8,270.7,558.8&#xA;&#x9;&#x9;C270.7,558.8,270.7,558.8,270.7,558.8z"></path>
&#x9;<path class="st0" d="M439.5,158.2C439.6,158.2,439.6,158.2,439.5,158.2c0,0-0.1,0-0.1-0.1C439.5,158.2,439.5,158.2,439.5,158.2z"></path>
&#x9;<path class="st0" d="M439.9,157.7c0,0,0-0.1,0-0.1C439.9,157.6,439.9,157.6,439.9,157.7C439.8,157.7,439.8,157.7,439.9,157.7z"></path>
&#x9;<path class="st0" d="M437.7,191.5c0,0,0-0.1,0-0.1C437.7,191.4,437.7,191.4,437.7,191.5C437.7,191.4,437.7,191.4,437.7,191.5z"></path>
&#x9;<path class="st0" d="M627.8,799.2c0,0-0.1,0-0.1,0C627.7,799.2,627.8,799.2,627.8,799.2C627.8,799.2,627.8,799.2,627.8,799.2z"></path>
&#x9;<path class="st0" d="M628.1,786.4C628.1,786.4,628.1,786.4,628.1,786.4C628,786.4,628,786.4,628.1,786.4&#xA;&#x9;&#x9;C628,786.4,628,786.4,628.1,786.4z"></path>
&#x9;<path class="st0" d="M555.3,802.6C555.3,802.6,555.3,802.6,555.3,802.6C555.3,802.6,555.3,802.6,555.3,802.6&#xA;&#x9;&#x9;C555.3,802.6,555.3,802.7,555.3,802.6z"></path>
&#x9;<path class="st0" d="M435.8,137.2C435.9,137.2,435.9,137.2,435.8,137.2C435.9,137.2,435.9,137.2,435.8,137.2&#xA;&#x9;&#x9;C435.9,137.2,435.9,137.2,435.8,137.2z"></path>
&#x9;<path class="st0" d="M441.5,794.3c0.1,0,0.2,0,0.3,0C441.6,794.2,441.6,794.3,441.5,794.3C441.5,794.3,441.5,794.3,441.5,794.3z"></path>
&#x9;<path class="st0" d="M453.5,800.6C453.5,800.6,453.5,800.6,453.5,800.6C453.5,800.6,453.4,800.6,453.5,800.6&#xA;&#x9;&#x9;C453.4,800.6,453.4,800.6,453.5,800.6z"></path>
&#x9;<path class="st0" d="M454.5,763.6c0,0,0-0.1,0-0.1C454.5,763.6,454.5,763.6,454.5,763.6C454.5,763.6,454.5,763.6,454.5,763.6z"></path>
&#x9;<path class="st0" d="M134.3,353.4C134.3,353.4,134.3,353.4,134.3,353.4C134.3,353.4,134.4,353.4,134.3,353.4&#xA;&#x9;&#x9;C134.4,353.4,134.3,353.4,134.3,353.4z"></path>
&#x9;<path class="st0" d="M495,311.1c0,0,0,0.1-0.1,0.1C495,311.2,495,311.2,495,311.1C495,311.2,495,311.1,495,311.1z"></path>
&#x9;<path class="st0" d="M542.9,786.5c0-0.2,0-0.3,0.1-0.4c0,0,0,0,0,0C542.9,786.2,542.9,786.3,542.9,786.5z"></path>
&#x9;<path class="st0" d="M334,547c0,0-0.1,0-0.1-0.1C333.9,547,334,547,334,547C334,547.1,334,547,334,547z"></path>
&#x9;<path class="st0" d="M472.4,455.2C472.4,455.2,472.4,455.2,472.4,455.2C472.4,455.2,472.4,455.2,472.4,455.2&#xA;&#x9;&#x9;C472.4,455.2,472.4,455.2,472.4,455.2z"></path>
&#x9;<path class="st0" d="M294.9,501.5C294.9,501.5,294.9,501.5,294.9,501.5C294.9,501.5,294.9,501.5,294.9,501.5&#xA;&#x9;&#x9;C294.9,501.6,294.9,501.5,294.9,501.5z"></path>
&#x9;<path class="st0" d="M321.2,556.2c0,0-0.1-0.1-0.1-0.1c0,0,0,0,0,0C321.1,556.1,321.2,556.2,321.2,556.2z"></path>
&#x9;<path class="st0" d="M437.7,336.4C437.7,336.4,437.7,336.4,437.7,336.4C437.7,336.4,437.7,336.4,437.7,336.4&#xA;&#x9;&#x9;C437.7,336.4,437.7,336.4,437.7,336.4z"></path>
&#x9;<path class="st0" d="M603.9,464.7C603.9,464.7,603.9,464.7,603.9,464.7c0,0,0.1-0.1,0.1-0.2C603.9,464.6,603.9,464.6,603.9,464.7z"></path>
&#x9;<path class="st0" d="M79.6,333.8C79.6,333.8,79.6,333.8,79.6,333.8C79.7,333.8,79.6,333.8,79.6,333.8&#xA;&#x9;&#x9;C79.6,333.8,79.6,333.8,79.6,333.8z"></path>
&#x9;<path class="st0" d="M594.5,633.1C594.4,633.1,594.4,633.1,594.5,633.1C594.4,633.1,594.5,633.1,594.5,633.1&#xA;&#x9;&#x9;C594.5,633.1,594.5,633.1,594.5,633.1z"></path>
&#x9;<path class="st0" d="M444.8,690.7C444.8,690.7,444.8,690.7,444.8,690.7C444.8,690.7,444.8,690.7,444.8,690.7&#xA;&#x9;&#x9;C444.8,690.7,444.8,690.7,444.8,690.7z"></path>
&#x9;<path class="st0" d="M134,449.9c0.1,0,0.2,0,0.2,0C134.1,449.9,134,449.9,134,449.9C134,449.9,134,449.9,134,449.9z"></path>
&#x9;<path class="st0" d="M388.5,576.2C388.5,576.2,388.5,576.2,388.5,576.2C388.5,576.2,388.5,576.2,388.5,576.2&#xA;&#x9;&#x9;C388.5,576.2,388.5,576.2,388.5,576.2z"></path>
&#x9;<path class="st0" d="M89.6,268.4C89.6,268.4,89.6,268.4,89.6,268.4C89.6,268.4,89.6,268.4,89.6,268.4&#xA;&#x9;&#x9;C89.6,268.4,89.6,268.4,89.6,268.4z"></path>
&#x9;<path class="st0" d="M86.5,270.6C86.5,270.6,86.5,270.6,86.5,270.6C86.5,270.5,86.5,270.5,86.5,270.6&#xA;&#x9;&#x9;C86.5,270.5,86.5,270.5,86.5,270.6z"></path>
&#x9;<path class="st0" d="M702.8,796C702.8,796,702.8,796,702.8,796C702.8,796,702.7,796,702.8,796C702.7,796,702.8,796,702.8,796z"></path>
&#x9;<path class="st0" d="M806.1,793.4C806.1,793.4,806.1,793.4,806.1,793.4C806.1,793.4,806.1,793.4,806.1,793.4&#xA;&#x9;&#x9;C806.2,793.4,806.1,793.4,806.1,793.4z"></path>
&#x9;<path class="st0" d="M699.6,768.4C699.6,768.4,699.6,768.4,699.6,768.4C699.6,768.4,699.6,768.4,699.6,768.4&#xA;&#x9;&#x9;C699.6,768.4,699.6,768.4,699.6,768.4z"></path>
&#x9;<path class="st0" d="M688.9,800.3C689,800.3,689,800.2,688.9,800.3C689,800.3,688.9,800.3,688.9,800.3&#xA;&#x9;&#x9;C688.9,800.3,688.9,800.3,688.9,800.3z"></path>
&#x9;<path class="st0" d="M702.2,799C702.2,799,702.2,799,702.2,799C702.2,799,702.2,799,702.2,799C702.2,799,702.2,799,702.2,799z"></path>
&#x9;<path class="st0" d="M544.9,312.1C544.9,312.1,544.9,312.1,544.9,312.1c-0.1,0-0.1,0-0.2,0C544.8,312.1,544.8,312.1,544.9,312.1z"></path>
&#x9;<path class="st0" d="M544,43.9C544.1,43.9,544.1,44,544,43.9C544.1,44,544.1,44,544,43.9C544,43.9,544,43.9,544,43.9z"></path>
&#x9;<path class="st0" d="M802.8,782.3C802.8,782.3,802.8,782.2,802.8,782.3C802.8,782.3,802.8,782.3,802.8,782.3&#xA;&#x9;&#x9;C802.7,782.3,802.8,782.3,802.8,782.3z"></path>
&#x9;<path class="st0" d="M956.1,784.1C956.1,784.1,956.1,784.1,956.1,784.1C956.1,784.1,956.1,784.1,956.1,784.1&#xA;&#x9;&#x9;C956.1,784.1,956.1,784.1,956.1,784.1z"></path>
&#x9;<path class="st0" d="M956.5,796c0,0,0.1,0,0.1,0C956.6,796,956.6,796,956.5,796C956.6,796,956.6,796,956.5,796z"></path>
&#x9;<path class="st0" d="M865.5,810.8C865.5,810.8,865.5,810.8,865.5,810.8C865.5,810.8,865.4,810.8,865.5,810.8&#xA;&#x9;&#x9;C865.4,810.8,865.4,810.8,865.5,810.8z"></path>
&#x9;<path class="st0" d="M866.6,825.7C866.6,825.7,866.6,825.7,866.6,825.7C866.6,825.7,866.5,825.7,866.6,825.7&#xA;&#x9;&#x9;C866.5,825.7,866.6,825.7,866.6,825.7z"></path>
&#x9;<path class="st0" d="M958.2,803.5C958.1,803.5,958.1,803.6,958.2,803.5C958.1,803.6,958.2,803.5,958.2,803.5&#xA;&#x9;&#x9;C958.2,803.5,958.2,803.5,958.2,803.5z"></path>
&#x9;<path class="st0" d="M864.3,810.3c0,0,0-0.1,0-0.1C864.3,810.3,864.3,810.3,864.3,810.3C864.3,810.3,864.3,810.3,864.3,810.3z"></path>
&#x9;<path class="st1" d="M495.1,45.1c0.5,3.5,0.7,7.7,0.8,12.8c0.3,38.9,0.4,66.4,0.2,82.3c0,1.3-0.2,32.5-0.4,93.5&#xA;&#x9;&#x9;c0,7.5,0,15.4,0.1,23.8c0.1,8,0.1,16-0.1,23.9l0,27.2c0.2,1.4,0.4,3.5,0.4,6.2c0.4,21.4,0.3,39-0.1,52.9c0,0.1-0.1,0.3-0.1,0.4&#xA;&#x9;&#x9;l-2.2,2.8c-0.2,0.2-0.5,0.4-0.8,0.3c-2.9-0.6-4.6-2.4-7-2.9c-1.4-0.3-2.9-1.7-4.5-2.5c-5.8-2.8-12.3-5.7-17.9-9.3&#xA;&#x9;&#x9;c-0.5-0.4-1.1-0.7-1.7-0.9c-3.5-1.5-6.3-3.1-10.1-4.8c-3.8-1.6-7.5-3.5-11-5.6c-1.1-0.7-1.7-1.9-1.7-3.1l0.2-4.9&#xA;&#x9;&#x9;c0-0.1,0-0.2-0.1-0.3c-0.4-0.6-0.7-0.8-1.1-0.6c-0.1,0-0.1,0-0.2,0c0,0,0,0,0,0c0,0,0,0-0.1,0c0,0-0.1,0-0.1,0c0,0,0,0-0.1,0&#xA;&#x9;&#x9;c0,0,0,0-0.1,0c0,0,0,0,0-0.1c0,0,0,0,0,0c0,0,0,0,0,0c0-0.1,0-0.1,0-0.2l0.1-12.9c-0.1,0-0.1,0-0.2,0l-0.3,22.3&#xA;&#x9;&#x9;c0,0.6,0.3,1.2,0.9,1.5l55.4,28.7c0.8,0.4,1.7,0.3,2.4-0.2c3.7-2.9,3.3-7.6,3.4-12.8c0.2-35,0.3-67.5,0.2-97.5&#xA;&#x9;&#x9;c-0.2-79.4,0.1-127.2-0.1-202.5c0-6-2.2-12.7-3.4-18.1c-0.2-0.8-0.5-1.2-0.8-1.2c-0.4-0.1-0.9,0.1-1.5,0.6c0.4,0,0.8,0.2,1.2,0.4&#xA;&#x9;&#x9;C494.9,44.4,495.1,44.7,495.1,45.1z"></path>
&#x9;<path class="st2" d="M544.1,43.9C544.1,44,544.1,44,544.1,43.9c0.1,0,0.1,0.1,0.1,0.1c0,0,0,0,0.1,0.1c0,0,0,0,0,0.1c0,0,0,0,0,0.1&#xA;&#x9;&#x9;s0,0.1,0,0.1c0,0,0,0.1,0,0.1c0,0,0,0,0,0.1c0,0,0,0,0,0c-0.6,1.5-0.9,3.4-1,5.8c-0.3,9.3-0.5,16.3-0.4,21&#xA;&#x9;&#x9;c0.2,21.4,0.3,40.4,0.1,57l-0.2,5L543,297c0.3,4.5,0.5,9.1,0.5,13.7c0,0.5,0,0.8,0,0.8c0,0.1,0.1,0.2,0.2,0.3c0,0,0.1,0,0.1,0.1&#xA;&#x9;&#x9;c0.1,0.1,0.1,0.1,0.2,0.1c0,0,0.1,0,0.1,0c0.1,0,0.2,0.1,0.3,0.1c0,0,0,0,0,0c0.1,0,0.2,0,0.2-0.1c0.1,0,0.1,0,0.2,0c0,0,0,0,0,0&#xA;&#x9;&#x9;c0.1-0.1,0.2-0.1,0.3-0.2c0,0,0-0.1,0.1-0.1c0.1-0.1,0.1-0.1,0.2-0.2c0,0,0-0.1,0.1-0.1c0-0.1,0.1-0.2,0.1-0.4l0.8-38.2l0.7-59.2&#xA;&#x9;&#x9;l-0.3-20.5l0.4-29.5l-0.1-31.2c0-0.3,0.2-0.6,0.5-0.7c8.6-2.3,17.3-4.6,26-6.9c14.4-3.9,27.4-10,39-18.3c6.4-4.6,12.2-9,17.4-13.3&#xA;&#x9;&#x9;c0.2-0.2,0.6-0.2,0.9-0.1l80.6,42.6l43.2,23l70.7,37.6l24.8,13.2c0.1,0.1,0.3,0.1,0.5,0.2l9.1,1.5c-20.8-10.8-41.4-21.8-62-33.1&#xA;&#x9;&#x9;c-7.1-3.9-13.3-6.8-19.8-10.6c-3.9-2.2-8.8-5-14.7-8.1c-12.5-6.7-25.3-13.5-38.3-20.4c-3.7-2-7.5-4.5-11.4-6.3&#xA;&#x9;&#x9;c-1.9-0.9-4.8-2.4-8.6-4.5c-4.3-2.4-10.2-5.5-17.6-9.2c-7.8-3.9-14.4-8-22.7-12.2c-10.2-5.2-19.2-10.6-29.9-15.9&#xA;&#x9;&#x9;c-4.3-2.2-8.5-4.4-12.8-6.8c-3.3-1.9-13.4-7.2-30.2-16.2C579.4,61.4,567,55.2,555,48.5c-3.3-1.8-6.7-3.4-10.2-4.7&#xA;&#x9;&#x9;c-0.8-0.3-1.1-0.3-1.1,0.1L544.1,43.9C544,43.9,544,43.9,544.1,43.9z"></path>
&#x9;<path class="st2" d="M288.2,156.8c7.8-4.4,15.7-8.7,23.7-12.7c2.4-1.2,5.1-2.7,8-4.4c2.6-1.5,5.3-3.1,7.9-4.6&#xA;&#x9;&#x9;c10.2-5.1,20.2-10.5,30.1-16.1c1.1-0.6,2.6-1.4,4.5-2.4c7.7-4,15.5-8,23.3-12.1c7.7-3.9,13-7.2,20-10.5c2.9-1.3,7.1-3.5,12.6-6.6&#xA;&#x9;&#x9;c2.5-1.3,6.6-3.7,12.4-7c0.6-0.3,1.3-0.3,1.8,0c5.6,3.3,10.9,7.1,16,11.3c13.5,11,22.6,18.4,27.2,22c5.6,4.4,11,10.1,16.2,17.1&#xA;&#x9;&#x9;c0.2,0.3,0.3,0.6,0.3,0.9l0,47.1l-0.1,25.8l-0.1,10.4l0.2,70.3c1.5,0.2,2.6-1.1,3.4-3.9c0.1-7.9,0.1-15.9,0.1-23.9&#xA;&#x9;&#x9;c-0.1-8.4-0.1-16.3-0.1-23.8c0.3-61.1,0.4-92.3,0.4-93.5c0.2-15.9,0.1-43.4-0.2-82.3c0-5.1-0.3-9.3-0.8-12.8c0-0.3-0.2-0.6-0.5-0.8&#xA;&#x9;&#x9;c-0.4-0.2-0.8-0.4-1.2-0.4c-0.7,0.1-1.5,0.4-2.2,0.8c-22,12.1-48.2,25.3-71,37.8c-15.1,8.3-24.4,13.4-27.8,15.1&#xA;&#x9;&#x9;c-11.5,6-20.7,11.1-27.8,15c-2,1.1-4.9,2.6-8.8,4.6c-7.7,3.9-15.3,8.4-21.8,11.8c-27.5,14.6-42.2,22.5-44.1,23.6&#xA;&#x9;&#x9;c-6,3.7-15.7,8.2-23.7,12.8c-2.4,1.4-4.9,2.8-7.4,4.1c7.4-2.2,12.5-4.9,18.9-7.2C281.1,160.2,285.3,158.5,288.2,156.8z"></path>
&#x9;<path class="st3" d="M542.5,324.7c0.1-9.2,0.3-18.4,0.5-27.6l-0.2-163.8l-0.1-17.8c0,0,0-0.1,0-0.1c0,0,0,0,0,0c0,0,0,0,0,0&#xA;&#x9;&#x9;c0,0,0,0,0,0l0.2,12.9c0.2-16.6,0.1-35.6-0.1-57c-0.1-4.7,0.1-11.7,0.4-21c0.1-2.4,0.4-4.3,1-5.8c0,0,0,0,0,0c0,0,0,0,0-0.1&#xA;&#x9;&#x9;c0,0,0-0.1,0-0.1c0,0,0-0.1,0-0.1s0-0.1,0-0.1c0,0,0,0,0-0.1c0,0,0,0-0.1-0.1c0,0,0,0-0.1,0c0,0-0.1,0-0.1,0l-0.3-0.1&#xA;&#x9;&#x9;c-0.5,0.9-0.9,2-1.2,3.1c-1.7,7.3-2.6,13.9-2.5,21.9c0,9.4,0,18.7,0,28c0,77.3,0,154.7-0.1,232.1&#xA;&#x9;&#x9;C541.6,329.2,542.5,327.8,542.5,324.7z"></path>
&#x9;<path class="st4" d="M418.9,143c2.5-1.1,4.7-2.3,6.6-3.4c5.1-3,8.3-4.9,12.7-5.4c0.5-0.1,1,0.3,1.1,0.8c0.5,3.2-0.1,6.5-0.1,9.5&#xA;&#x9;&#x9;c0,4.1,0.9,8.9,0,13.3c0,0.1,0,0.1,0,0.2c0,0,0,0,0,0c0,0,0.1,0.1,0.1,0.1c0,0,0,0,0,0c0.1,0,0.1,0.1,0.2,0c0,0,0,0,0.1,0&#xA;&#x9;&#x9;c0.1,0,0.1-0.1,0.2-0.1c0-0.1,0-0.2,0-0.4c0,0,0-0.1,0-0.1c0,0,0,0,0-0.1c0,0,0-0.1,0-0.1c0,0,0,0,0.1-0.1c0,0,0,0,0,0&#xA;&#x9;&#x9;c0,0,0.1,0,0.1,0c18.1,2.5,34,7.8,51.5,14.7c0.3,0.1,0.5,0.4,0.5,0.7l0.2,6.1l0-47.1c0-0.3-0.1-0.6-0.3-0.9&#xA;&#x9;&#x9;c-5.2-7-10.6-12.7-16.2-17.1c-4.6-3.6-13.7-10.9-27.2-22c-5.1-4.2-10.5-7.9-16-11.3c-0.6-0.3-1.3-0.3-1.8,0c-5.8,3.3-10,5.7-12.4,7&#xA;&#x9;&#x9;c-5.6,3.1-9.8,5.3-12.6,6.6c-7,3.3-12.3,6.6-20,10.5c-7.8,4-15.6,8-23.3,12.1c-1.9,1-3.4,1.8-4.5,2.4c-9.9,5.6-19.9,10.9-30.1,16.1&#xA;&#x9;&#x9;c5.3-0.6,8.7-1.3,10.2-2.1c7.7-4.2,15.7-9.4,24.4-12.1c1.2-0.4,3.6-0.8,7.1-1.3c0.3,0,0.7,0.1,0.9,0.3c4.2,4.6,7.4,10,10.5,13.3&#xA;&#x9;&#x9;c4.9,5.2,10.2,10.2,15.7,14.9c1.1,0.9,2.3,2.5,3.6,4.6c2.8-1.8,6.3-3.4,8.7-4.7C412.4,146.1,415.8,144.4,418.9,143z"></path>
&#x9;<path class="st4" d="M665.4,150.3c6.5-6.6,13.2-12.7,20.3-18.2c5.2-4.1,10-0.6,16.5,2.1c1.8,0.8,4.9,1.3,9.2,1.6l-80.6-42.6&#xA;&#x9;&#x9;c-0.3-0.2-0.6-0.1-0.9,0.1c-5.2,4.3-11,8.7-17.4,13.3c-11.6,8.4-24.6,14.5-39,18.3c-8.7,2.3-17.4,4.6-26,6.9&#xA;&#x9;&#x9;c-0.3,0.1-0.5,0.3-0.5,0.7l0.1,31.2l51.5-8.6c0.6-0.1,1-0.6,0.9-1.1c-0.2-6.8-0.4-13.2-0.5-19.3c0-1.2,0.4-2.1,1.4-2.5&#xA;&#x9;&#x9;c0.3-0.1,0.7,0,0.9,0.2c0.7,1,1.2,1.5,1.6,1.7c3,1.3,6.9,3.3,11.8,6.1c3.6,2.1,7.6,4.2,11.8,6.3c3.1,1.6,8.4,4.5,16,8.8&#xA;&#x9;&#x9;c0.9,0.5,2.3,1.2,4.1,2c2.7,1.3,5.7,3.4,9,4.5C657.1,156.8,662.2,153.6,665.4,150.3z"></path>
&#x9;<path class="st1" d="M542.8,115.3C542.8,115.3,542.8,115.3,542.8,115.3C542.8,115.3,542.8,115.3,542.8,115.3&#xA;&#x9;&#x9;C542.8,115.3,542.8,115.3,542.8,115.3C542.8,115.4,542.7,115.4,542.8,115.3l0,17.9l0.2-5L542.8,115.3z"></path>
&#x9;<path class="st5" d="M86.4,270.2c0,0,0,0.1,0,0.1c0,0,0,0.1,0,0.1c0,0,0,0.1,0.1,0.1c0,0,0,0.1,0.1,0.1l0.2,0.1c0.1,0,0.1,0,0.1,0&#xA;&#x9;&#x9;c2.8-3.6,6.1-6.7,9.8-9.3l-7,7c0,0,0,0,0,0c0,0,0,0,0,0l0.2,0.2c0.1,0.1,0.3,0.1,0.4,0c5.5-5.3,11.7-9.7,18.6-13.3&#xA;&#x9;&#x9;c2.3-2.4,4.7-4.2,7.3-5.4c5-2.3,10.7-4.8,15.7-7.8c1.8-1.1,5.8-3.4,12.1-6.9c4.5-2.5,8.6-4.6,12.5-6.1c6.7-2.7,12.3-6.7,19.3-10.2&#xA;&#x9;&#x9;c8.6-4.3,17.4-8.5,26.3-12.4c8.6-3.7,15.4-7.1,20.6-10.1c3.6-2.1,8.1-4.9,13.2-8.5c1.6-1.1,4.6-2.6,9-4.5c5-2.2,8.3-5,12.9-7.4&#xA;&#x9;&#x9;c5.5-2.9,10.7-6.3,16.2-9.2c1-0.6,2-1,3-1.3c8.9-2.7,17.5-6.8,25.9-12.3c4.5-2.9,9.2-2.9,14,0.2c3.3,2.2,6.1,4.1,8.4,5.9&#xA;&#x9;&#x9;c6.6,5.1,12.9,8.9,19.9,13.3c0.6,0.4,0.8,1.2,0.5,1.8c-2.3,3.9-7.3,6-10.5,8.6c-0.9,0.8-2.4,3.1-4.4,7.1l69.5-37.4&#xA;&#x9;&#x9;c-1.2-2.1-2.4-3.7-3.6-4.6c-5.6-4.7-10.8-9.6-15.7-14.9c-3.1-3.3-6.3-8.8-10.5-13.3c-0.2-0.2-0.6-0.4-0.9-0.3&#xA;&#x9;&#x9;c-3.6,0.5-5.9,0.9-7.1,1.3c-8.6,2.8-16.6,7.9-24.4,12.1c-1.5,0.8-4.9,1.5-10.2,2.1c-2.6,1.5-5.2,3.1-7.9,4.6&#xA;&#x9;&#x9;c-2.9,1.7-5.6,3.1-8,4.4c-8,4-15.9,8.2-23.7,12.7c-2.9,1.7-7.1,3.4-10.4,5.5c-3.9,2.3-7.8,4.4-11.9,6.4c-2.8,1.4-4.8,2.9-7.1,4.5&#xA;&#x9;&#x9;c-0.9,0.6-1.8,1.1-2.8,1.5c-6.7,2.6-13,5.9-18.8,9.8c-0.1,0.1-0.2,0.3-0.6,0.4l-12.7,7.3c-0.3,0.2-0.6,0.3-1,0.4l-1.6,0.4&#xA;&#x9;&#x9;c-0.4,0.1-0.8,0.2-1.2,0.4l-17.7,9.8c-0.5,0.3-1,0.4-1.6,0.4l-6.2,0.1l-95.3,51C94.1,259,89.8,264.2,86.4,270.2z M110.3,252&#xA;&#x9;&#x9;c0.1-0.1,0.2-0.1,0.3,0c0.2,0.1,0.2,0.3,0.1,0.5c0,0,0,0-0.1,0.1l-8.7,5.1L110.3,252z"></path>
&#x9;<path class="st5" d="M721.5,192.2c-6.6-7.1-3.7-11.6,3.7-15.8c9.3-5.2,14.3-8.4,19.6-15.3c2.3-3,6.3-2.9,9.8-2.2l-43.2-23&#xA;&#x9;&#x9;c-4.4-0.3-7.4-0.8-9.2-1.6c-6.5-2.7-11.3-6.2-16.5-2.1c-7,5.5-13.8,11.6-20.3,18.2c-3.2,3.3-8.3,6.5-9.8,11.5&#xA;&#x9;&#x9;c6.9,3.9,13.8,7.8,20.7,11.6c1.4,0.8,2.4,1.4,3.1,1.8c1.5,1.1,3.3,1.5,4.9,2.4c9.7,5.4,22.5,12.4,38.4,20.9c3,1.6,5.9,3.1,8.7,4.4&#xA;&#x9;&#x9;c5.4,2.6,10.2,5.8,15.7,8.1c5.4,2.3,9.7,5.5,15.1,8.2c0.9,0.5,2,0.4,2.9,0l2.5-1.3c-13.2-4.9-25.7-11.2-37.5-18.7&#xA;&#x9;&#x9;C726.6,196.9,723.7,194.6,721.5,192.2z"></path>
&#x9;<path class="st6" d="M602.3,137.4C602.3,137.4,602.3,137.4,602.3,137.4C602.3,137.4,602.3,137.4,602.3,137.4&#xA;&#x9;&#x9;c0.1-0.1,0.1-0.2,0.1-0.2c0,0,0.1-0.1,0.1-0.1c0,0,0.1,0,0.1-0.1c0,0,0.1,0,0.1,0c0,0,0,0,0.1,0c0,0,0,0,0,0c0.1,0,0.2,0,0.3,0.1&#xA;&#x9;&#x9;c4,2.4,7.3,4.2,10,5.6c5,2.4,8.3,4.2,10.1,5.3c0.5,0.3,5.3,2.9,14.5,7.7c4.4,2.3,9.2,4.9,14.4,7.8c13.9,7.7,29.6,16.1,47,25.2&#xA;&#x9;&#x9;c4.6,2.4,9.5,5.1,14.7,7.9c6.1,3.4,12.7,6.4,19.6,10.3c9.4,5.3,15.4,8.5,17.9,9.6c4.3,1.9,7.8,3.7,10.6,5.5c3.1,2,6,3.7,8.7,5.1&#xA;&#x9;&#x9;c4.9,2.7,10.2,5.4,15.9,8.4c7.6,3.9,16.7,8.8,27.3,14.6c9.5,5.2,17.4,9,26.1,14.1c3,1.8,6.8,3.8,11.5,6.1&#xA;&#x9;&#x9;c7.7,3.9,15.4,7.9,23.1,12.1c-4.6-4-8.4-7.6-11.5-10.7c-6.1-6.3-4.7-12.1,1.8-17.2c9.5-7.3,21.5-12.8,32.7-17.2c0,0,0.1,0,0.1-0.1&#xA;&#x9;&#x9;c0,0,0,0,0,0c0.1-0.1,0.1-0.1,0.1-0.2c0,0,0,0,0,0c0-0.1,0-0.2-0.1-0.2c-3.1-2.8-4.5-5.3-4.4-7.6l-33.5-17.9l-9.1-1.5&#xA;&#x9;&#x9;c-0.2,0-0.3-0.1-0.5-0.2l-24.8-13.2c-1.4,0.6-3,0.8-4.8,0.6c-0.7-0.1-1.3,0-2,0.2c-5.7,1.5-10.8,2-16.3,3.9&#xA;&#x9;&#x9;c-3.2,1.1-6.9,2.4-11.4,4c-1.5,0.5-2.8,1.1-3.8,1.6c-2.7,1.4-4.8,3.6-7.7,4.8c-3.9,1.6-7.8,4.5-11.6,6.5l-2.5,1.3&#xA;&#x9;&#x9;c-0.9,0.5-2,0.5-2.9,0c-5.4-2.7-9.7-5.9-15.1-8.2c-5.5-2.3-10.3-5.5-15.7-8.1c-2.8-1.3-5.7-2.8-8.7-4.4&#xA;&#x9;&#x9;c-15.9-8.5-28.8-15.5-38.4-20.9c-1.6-0.9-3.4-1.3-4.9-2.4c-0.6-0.5-1.7-1.1-3.1-1.8c-7-3.8-13.9-7.7-20.7-11.6&#xA;&#x9;&#x9;c-3.3-1.1-6.3-3.2-9-4.5c-1.8-0.8-3.1-1.5-4.1-2c-7.6-4.3-13-7.2-16-8.8c-4.2-2.1-8.1-4.2-11.8-6.3c-4.8-2.8-8.8-4.8-11.8-6.1&#xA;&#x9;&#x9;c-0.4-0.2-0.9-0.7-1.6-1.7c-0.2-0.3-0.6-0.4-0.9-0.2c-1,0.4-1.4,1.3-1.4,2.5c0.1,6,0.3,12.4,0.5,19.3c0,0.6-0.4,1-0.9,1.1&#xA;&#x9;&#x9;l-51.5,8.6l-0.4,29.5c19.7-2.6,35.2-4.1,53.4-2.8c0.3,0,0.5,0.3,0.5,0.6l0.3,10.8c0.1-9.3,0.2-18.5,0.3-27.8c0-0.5,0.1-0.9,0.3-1.3&#xA;&#x9;&#x9;c0.1-0.1,0.2-0.3,0.2-0.5l0.7-25l-0.3-9.3C602.2,137.6,602.2,137.5,602.3,137.4z"></path>
&#x9;<path class="st6" d="M437.7,191.4C437.7,191.4,437.7,191.4,437.7,191.4c0-0.1,0-0.1,0-0.2c0,0,0-0.1,0.1-0.1c0,0,0,0,0.1-0.1&#xA;&#x9;&#x9;c0,0,0,0,0.1-0.1c0,0,0,0,0.1,0c0,0,0.1,0,0.1,0c0,0,0,0,0.1,0c0,0,0,0,0,0c18.7,1.2,36.7,5.8,53.9,13.7l0.1-25.8l-0.2-6.1&#xA;&#x9;&#x9;c0-0.3-0.2-0.6-0.5-0.7c-17.5-6.9-33.3-12.2-51.5-14.7c0,0-0.1,0-0.1,0c0,0,0,0,0,0c0,0-0.1,0-0.1,0.1c0,0,0,0.1,0,0.1&#xA;&#x9;&#x9;c0,0,0,0.1,0,0.1c0.1,0.2,0.1,0.3,0,0.4c0,0.1-0.1,0.1-0.2,0.1c0,0,0,0-0.1,0c0,0-0.1,0-0.1,0c0,0-0.1,0-0.1-0.1c0,0,0,0,0,0&#xA;&#x9;&#x9;c0,0-0.1-0.1-0.1-0.1c0,0,0,0,0,0c0-0.1,0-0.1,0-0.2c0.9-4.4-0.1-9.2,0-13.3c0-3,0.6-6.3,0.1-9.5c-0.1-0.5-0.6-0.9-1.1-0.8&#xA;&#x9;&#x9;c-4.4,0.5-7.6,2.4-12.7,5.4c-1.9,1.1-4.1,2.3-6.6,3.4c-3.1,1.4-6.5,3.1-10.1,5.1c-2.3,1.3-5.9,2.9-8.7,4.7l-69.5,37.4l-29.5,15.4&#xA;&#x9;&#x9;c0,0,0,0-0.1,0l-3.5,2.7c-0.2,0.1-0.4,0.2-0.6,0.3c-6.1,2.4-11.6,5.3-16.4,8.6c-2.1,1.4-9.4,5.1-22.1,10.9&#xA;&#x9;&#x9;c-0.3,0.1-0.6,0.3-0.8,0.5c-1.7,1.5-3.4,2.7-5,3.7c-5.8,3.6-11.6,6.6-17.5,8.9c-4.2,1.6-5.9,2.9-9.3,5.2c-4.3,2.9-9.5,5.2-14.1,7.4&#xA;&#x9;&#x9;c-6.8,3.2-11.6,6.5-17.2,10.2c-0.3,0.2-0.6,0.4-0.9,0.5c-7.3,2.7-14.4,5.9-21.2,9.7c-2.6,1.9-4.5,4.2-5.7,7c4-2,8.1-4.7,11.7-6.5&#xA;&#x9;&#x9;c10.5-5.3,17-8.7,19.4-10.1c4.5-2.6,7.7-4.3,9.5-5.1c3.1-1.4,6.3-3,9.6-4.9c9.2-5.2,15.4-8.7,18.7-10.5c2.2-1.2,4.7-2,6.8-3.3&#xA;&#x9;&#x9;c3.5-2.2,8.3-4.7,14.3-7.7c3.7-1.8,8.9-4.7,15.5-8.5c7.1-4.1,12.2-6.9,15.4-8.5c5.4-2.7,10.7-5.4,15.8-8.3&#xA;&#x9;&#x9;c15.8-8.8,33.9-17.8,50.3-27c3.1-1.8,10.7-5.8,22.7-12c2.6-1.4,6.1-3.6,8.7-4.9c17.7-9.3,34.5-18.4,50.3-27.1c0.1,0,0.1-0.1,0.2,0&#xA;&#x9;&#x9;c0,0,0,0,0,0c0,0,0,0,0,0c0,0,0.1,0,0.1,0c0,0,0,0,0.1,0c0,0,0,0,0.1,0.1c0,0,0,0,0.1,0.1c0,0,0,0,0,0c0,0,0,0,0,0&#xA;&#x9;&#x9;c0,0.1,0.1,0.1,0,0.2l-0.6,10c0.7,1,0.9,1.7,0.5,2c0.2,7.3,0.2,14.7,0.5,21.8c0.5,10.9,0.7,21.9,0.8,32.8L437.7,191.4&#xA;&#x9;&#x9;C437.7,191.4,437.7,191.4,437.7,191.4z"></path>
&#x9;<path class="st1" d="M435.7,147.7l0.6-10c0-0.1,0-0.2,0-0.2c0,0,0,0,0,0c0,0,0,0,0,0c0,0,0,0-0.1-0.1c0,0,0,0-0.1-0.1&#xA;&#x9;&#x9;c0,0,0,0-0.1,0c0,0-0.1,0-0.1,0c0,0,0,0-0.1,0c-0.1,0-0.2,0-0.2,0c-15.9,8.7-32.6,17.7-50.3,27.1c-2.6,1.4-6.1,3.6-8.7,4.9&#xA;&#x9;&#x9;c-12,6.2-19.6,10.3-22.7,12c-16.4,9.2-34.4,18.1-50.3,27c-5.1,2.9-10.4,5.6-15.8,8.3c-3.2,1.6-8.4,4.4-15.4,8.5&#xA;&#x9;&#x9;c-6.6,3.8-11.7,6.6-15.5,8.5c-6,3-10.7,5.5-14.3,7.7c-2.1,1.3-4.7,2.1-6.8,3.3c-3.3,1.8-9.5,5.2-18.7,10.5&#xA;&#x9;&#x9;c-3.3,1.9-6.5,3.5-9.6,4.9c-1.8,0.8-5,2.5-9.5,5.1c-2.4,1.4-8.9,4.7-19.4,10.1c-3.5,1.8-7.7,4.5-11.7,6.5&#xA;&#x9;&#x9;c-6.3,3.6-12.8,7.1-19.5,10.4c-2.3,1.1-4.3,2.6-6.3,4c-3,2-3.2,4.1-4.7,7.1c-0.2,0.3-0.2,0.6-0.3,0.9c-0.4,4.8-0.6,6.5-0.5,10.8&#xA;&#x9;&#x9;c0.5,13.4,0.8,26.8,0.7,40.2c0,1.9,0.5,4.5,0.1,6.5c-0.2,1.1-0.3,2-0.2,2.8c0.5,5.2-0.2,9.5,0,14.8c0.2,5.1,0.2,10.8-0.2,17&#xA;&#x9;&#x9;c-0.1,2.5,0.2,5.5-0.1,8.3l-0.1,16c0.1,11.9,0,23.7-0.1,35.6c-0.1,15.2-0.2,25.3-0.1,30.2c0,1.8,0.4,4.6,1,8.5&#xA;&#x9;&#x9;c1,5.7,4.7,5.5,9.4,5.4c13.4-0.1,29.2-0.9,44.3-0.3c22.4,0,44.8-0.1,67.2-0.5c5.2-0.1,15.1,0.1,29.8,0.7&#xA;&#x9;&#x9;c13.8-0.7,27.7-0.8,41.5-0.3c6.1,0.2,12.5-0.3,18.9-0.1c0,0,0.1,0,0.1,0c0,0,0,0,0.1,0c0,0,0.1,0,0.1,0c0,0,0.1,0,0.1,0.1&#xA;&#x9;&#x9;c0,0,0.1,0.1,0.1,0.1c0,0,0,0.1,0.1,0.1c0,0,0,0.1,0,0.1c0,0,0,0.1,0,0.1c0,0,0,0,0,0.1c0,0,0,0.1,0,0.1c-0.4,1.8-0.9,3.6-1.7,5.4&#xA;&#x9;&#x9;c-0.5,1.1-0.7,2-0.7,2.7c0,1.1-0.9,2.2-1.2,3.5c-1.5,8.2-3.5,15.7-5.9,22.7c-1.3,3.9-2.9,9.5-4.8,17c-0.4,1.8-1.3,3.5-2.6,5.3&#xA;&#x9;&#x9;c-0.2,0.3-0.5,0.5-0.8,0.6c-4.1,1.5-8.4,1.6-12.6,0.4c-0.4,0-0.7-0.1-1-0.3c-3.6,0.7-6.5,1-8.8,1.1c-12.6,0.2-25.1,0.4-37.7,0.7&#xA;&#x9;&#x9;c0,0,0,0,0,0c0,0-0.1,0-0.1,0c0,0-0.1,0-0.1,0c0,0,0-0.1,0-0.1c0,0,0,0,0-0.1c0,0,0,0,0,0v-0.2c0,0,0,0,0,0c0,0,0,0,0,0&#xA;&#x9;&#x9;c0,0,0,0,0,0c0,0,0,0,0,0c3,0,6.4,0,10,0.2c-12.9-1.2-25.4-2.8-38.8-2.8c-8.2-0.3-16.3,0-24.3,1c6.3,1.4,13.4,1,19.8,1c0,0,0,0,0,0&#xA;&#x9;&#x9;v0c-6.8,0.3-14.5,0.2-23.2-0.1c-3.9-0.1-17.7,0.1-41.4,0.6c-4.8,0.1-11.8-2.6-16.2-2.8c-4.9-0.2-9.4,1.2-13.6,4.1&#xA;&#x9;&#x9;c-6.5,4.4-8.1,10.7-8,18.3c0,10,0.2,18.7,0.5,26c0.3,7.5-0.1,16-0.1,24.1l0.5,57.2l6.9,7.9c-0.1-41.4-0.1-82.8,0.2-123.9&#xA;&#x9;&#x9;c0-5.8,2.9-8.6,8.5-8.6c61.5-0.1,96.5-0.2,104.8-0.3c15.6-0.3,34.9-0.3,57.8,0c5.2,0.1,9.2,0,12.1-0.3c4-0.3,7-2.2,8.9-5.6&#xA;&#x9;&#x9;c4.2-7.4,5.9-14.7,8.3-24.2c2-7.8,4.2-15.9,6.4-24.3c0.6-2.1,1.2-4.9,1.8-8.3c0,0,0-0.1,0-0.1c0,0,0-0.1,0-0.1c0-0.1,0-0.1,0-0.2&#xA;&#x9;&#x9;c0,0,0-0.1-0.1-0.1c0,0-0.1-0.1-0.1-0.1c0,0-0.1-0.1-0.1-0.1c0,0-0.1-0.1-0.1-0.1c0,0-0.1,0-0.1-0.1c-0.1,0-0.1,0-0.2,0&#xA;&#x9;&#x9;c-12.4,0-76.7-0.1-192.8-0.2c-4.7,0-7.6,0-8.6-0.1c-4.4-0.4-6.7-4.9-6.7-8.8c0-64.2-0.1-122.2-0.2-174c0-4.5,1-10,4.8-12.1&#xA;&#x9;&#x9;c22.3-12.4,50.9-26.7,76.7-40.7c17.4-9.5,26.9-14.6,28.4-15.4c10.1-5,18.5-10.3,28.9-15.5c3-1.5,8.4-4.5,16.4-8.9&#xA;&#x9;&#x9;c3.8-2.1,9.4-5,16.5-8.6c3.9-2,8.7-5,12-6.6c7.9-3.9,14.3-7.2,19.2-9.9c12-6.6,20.9-10.6,32-17c1.7-1,6-3.3,12.9-6.9&#xA;&#x9;&#x9;C405.5,163.8,420.6,155.8,435.7,147.7z"></path>
&#x9;<path class="st1" d="M706.9,202.7c10.6,5.5,19.8,10.7,32,16.8c1.1,0.5,5.7,3,13.9,7.4c36.5,19.6,58.8,31.6,66.9,36&#xA;&#x9;&#x9;c23.7,12.9,47.9,25.2,66.1,34.9c5.5,2.9,10.2,5.6,10.2,12.8c0,110.2,0,168.1,0,173.7c0,5.7-0.6,12-7.7,12c-6,0.1-11.9,0.1-17.9,0.1&#xA;&#x9;&#x9;c1.9,0.4,1.8,1.4-0.4,3c7.7,0.2,15.2,0.3,22.5,0.2c3.3,0,6.1-1.1,8.3-3.2c2.6-2.4,2.4-8.8,2.2-12.2l0.1-13.8L903,309.1&#xA;&#x9;&#x9;c0-5.4,0-8.9-3.8-12.5c-1.8-1.6-4.8-3.5-9-5.6c-5.4-2.7-10.6-5.5-15.7-8.5c-7.7-4.2-15.4-8.2-23.1-12.1c-4.7-2.3-8.5-4.4-11.5-6.1&#xA;&#x9;&#x9;c-8.7-5.1-16.6-8.9-26.1-14.1c-10.7-5.8-19.8-10.7-27.3-14.6c-5.6-2.9-10.9-5.7-15.9-8.4c-2.7-1.4-5.6-3.1-8.7-5.1&#xA;&#x9;&#x9;c-2.8-1.8-6.3-3.6-10.6-5.5c-2.5-1.1-8.4-4.3-17.9-9.6c-7-3.9-13.5-7-19.6-10.3c-5.2-2.9-10.1-5.5-14.7-7.9&#xA;&#x9;&#x9;c-17.4-9.2-33.1-17.6-47-25.2c-5.2-2.9-10-5.5-14.4-7.8c-9.2-4.8-14-7.4-14.5-7.7c-1.7-1.1-5.1-2.9-10.1-5.3c-2.7-1.3-6-3.2-10-5.6&#xA;&#x9;&#x9;c-0.1-0.1-0.2-0.1-0.3-0.1c0,0,0,0,0,0c0,0,0,0-0.1,0c0,0-0.1,0-0.1,0c0,0-0.1,0-0.1,0.1c0,0-0.1,0-0.1,0.1c0,0-0.1,0.1-0.1,0.1&#xA;&#x9;&#x9;c0,0,0,0.1-0.1,0.1c-0.1,0.1-0.1,0.2-0.1,0.3l0.3,9.3c21.3,11.4,42.6,22.5,63.6,34.1c9.2,5.1,18.9,9.7,28.8,15.2&#xA;&#x9;&#x9;C697.9,198,701.9,200.1,706.9,202.7z"></path>
&#x9;<path class="st7" d="M147.4,256.4c10.6,0.4,33,0.6,25.2,18c6.9-3.8,14-7,21.2-9.7c0.3-0.1,0.6-0.3,0.9-0.5&#xA;&#x9;&#x9;c5.6-3.8,10.4-7.1,17.2-10.2c4.7-2.2,9.8-4.5,14.1-7.4c3.4-2.3,5.1-3.5,9.3-5.2c5.9-2.3,11.7-5.3,17.5-8.9c1.6-1,3.3-2.2,5-3.7&#xA;&#x9;&#x9;c0.2-0.2,0.5-0.4,0.8-0.5c12.7-5.8,20.1-9.4,22.1-10.9c4.8-3.3,10.3-6.2,16.4-8.6c0.2-0.1,0.4-0.2,0.6-0.3l3.5-2.7c0,0,0,0,0.1,0&#xA;&#x9;&#x9;l29.5-15.4c2-4,3.4-6.4,4.4-7.1c3.1-2.6,8.2-4.8,10.5-8.6c0.4-0.6,0.2-1.4-0.5-1.8c-7-4.4-13.3-8.3-19.9-13.3&#xA;&#x9;&#x9;c-2.3-1.8-5.1-3.7-8.4-5.9c-4.8-3.1-9.5-3.2-14-0.2c-8.4,5.5-17.1,9.6-25.9,12.3c-1,0.3-2,0.7-3,1.3c-5.5,3-10.7,6.3-16.2,9.2&#xA;&#x9;&#x9;c-4.6,2.4-7.8,5.2-12.9,7.4c-4.4,1.9-7.4,3.4-9,4.5c-5.2,3.6-9.6,6.4-13.2,8.5c-5.2,3-12.1,6.4-20.6,10.1&#xA;&#x9;&#x9;c-8.9,3.9-17.7,8-26.3,12.4c-7,3.5-12.6,7.5-19.3,10.2c-3.9,1.6-8.1,3.6-12.5,6.1c-6.3,3.5-10.3,5.8-12.1,6.9&#xA;&#x9;&#x9;c-5,3-10.7,5.5-15.7,7.8c-2.6,1.2-5,3-7.3,5.4l-6.4,4.6C117.6,255.4,130.5,255.8,147.4,256.4z"></path>
&#x9;<path class="st7" d="M744.9,161c-5.3,6.9-10.3,10-19.6,15.3c-7.4,4.2-10.3,8.8-3.7,15.8c2.2,2.4,5.1,4.8,8.8,7.1&#xA;&#x9;&#x9;c11.8,7.6,24.3,13.8,37.5,18.7c3.8-2,7.8-4.9,11.6-6.5c3-1.2,5-3.4,7.7-4.8c1-0.5,2.3-1.1,3.8-1.6c4.4-1.6,8.2-2.9,11.4-4&#xA;&#x9;&#x9;c5.6-1.9,10.7-2.4,16.3-3.9c0.6-0.2,1.3-0.2,2-0.2c1.8,0.2,3.4,0,4.8-0.6l-70.7-37.6C751.2,158.2,747.1,158,744.9,161z"></path>
&#x9;<path class="st4" d="M237.1,184.4c5.8-3.9,12.1-7.2,18.8-9.8c1-0.4,1.9-0.9,2.8-1.5c2.4-1.6,4.3-3.1,7.1-4.5c4-2,8-4.1,11.9-6.4&#xA;&#x9;&#x9;c-6.4,2.3-11.5,5-18.9,7.2l-24.5,12.9C236.4,183.3,237.3,183.9,237.1,184.4z"></path>
&#x9;<path class="st6" d="M202.4,203.1l17.7-9.8c0.4-0.2,0.8-0.4,1.2-0.4l1.6-0.4c0.3-0.1,0.7-0.2,1-0.4l12.7-7.3&#xA;&#x9;&#x9;c0.3-0.1,0.5-0.2,0.6-0.4c0.2-0.4-0.7-1.1-2.7-2l-39.8,21.2l6.2-0.1C201.4,203.5,201.9,203.3,202.4,203.1z"></path>
&#x9;<path class="st5" d="M600.2,190.3c-18.2-1.3-33.8,0.2-53.4,2.8l0.3,20.5c0.2-0.4,0.4-0.7,0.7-0.7c0.2,0,0.4,0.1,0.4,0.2&#xA;&#x9;&#x9;c2.4,4.7,6.7,8.2,11.3,11.6c7.3,5.4,15.7,10.3,25.1,14.7c4.6,2.1,9.7,3.2,14.4,3.4c0.6,0,1.1,0.5,1.2,1.1l0.5,3.7l0.2-46l-0.3-10.8&#xA;&#x9;&#x9;C600.7,190.6,600.5,190.3,600.2,190.3z"></path>
&#x9;<path class="st5" d="M440.1,243.4c3.8-0.1,7.7-0.9,11.5-2.5c9.5-3.9,18.6-9.3,27.4-16c4-3.1,7.6-6.6,10.7-10.3&#xA;&#x9;&#x9;c0.2-0.2,0.5-0.3,0.8-0.3c0.5,0.1,1.1,0.4,1.6,0.7l0.1-10.4c-17.2-7.9-35.1-12.4-53.9-13.7c0,0,0,0,0,0c0,0-0.1,0-0.1,0&#xA;&#x9;&#x9;c0,0-0.1,0-0.1,0c0,0-0.1,0-0.1,0c0,0-0.1,0-0.1,0.1c0,0,0,0-0.1,0.1c0,0,0,0-0.1,0.1c0,0,0,0.1,0,0.1c0,0,0,0.1,0,0.1l-0.2,12.9&#xA;&#x9;&#x9;l0,64.2l1.3-24C438.8,244,439.4,243.4,440.1,243.4z"></path>
&#x9;<path class="st8" d="M599.1,242.8c-4.7-0.2-9.8-1.2-14.4-3.4c-9.4-4.4-17.8-9.3-25.1-14.7c-4.6-3.4-8.9-6.9-11.3-11.6&#xA;&#x9;&#x9;c-0.1-0.2-0.3-0.3-0.4-0.2c-0.3,0-0.6,0.3-0.7,0.7l-0.7,59.2c18.2,5.9,34.2,7.8,53.8,8.7c0.3,0,0.5,0.2,0.6,0.5l0.5,3.6l-0.4-38&#xA;&#x9;&#x9;l-0.5-3.7C600.2,243.3,599.7,242.8,599.1,242.8z"></path>
&#x9;<path class="st8" d="M437.4,300.1c0-0.3,0.1-0.6,0.4-0.7c9-5.9,17.9-5.3,28-3.4c8.8,1.7,17.7,3.5,26.6,5.3l-0.2-16l-0.2-70.3&#xA;&#x9;&#x9;c-0.5-0.4-1-0.6-1.6-0.7c-0.3-0.1-0.6,0-0.8,0.3c-3.1,3.8-6.7,7.2-10.7,10.3c-8.8,6.8-17.9,12.1-27.4,16c-3.8,1.6-7.7,2.4-11.5,2.5&#xA;&#x9;&#x9;c-0.7,0-1.2,0.5-1.3,1.2l-1.3,24l-0.2,54.5c0.1,0,0.1,0,0.2,0L437.4,300.1z"></path>
&#x9;<path class="st5" d="M897.6,236.8c0,0,0.1,0.1,0.1,0.1c0,0,0,0.1,0,0.1c0,0,0,0,0,0c0,0.1,0,0.2-0.1,0.2c0,0,0,0,0,0&#xA;&#x9;&#x9;c0,0-0.1,0.1-0.1,0.1c-11.2,4.5-23.3,10-32.7,17.2c-6.6,5.1-7.9,10.9-1.8,17.2c3,3.1,6.9,6.7,11.5,10.7c5.1,3,10.4,5.8,15.7,8.5&#xA;&#x9;&#x9;c4.2,2.1,7.2,4,9,5.6c3.9,3.6,3.9,7.1,3.8,12.5c4.3-11.6-6.6-18-12.1-25.8c-2.7-3.9-0.2-7.4,3.1-9.6c6.7-4.4,13.3-8.8,19.6-13&#xA;&#x9;&#x9;c3.5-2.3,8.6-4.7,15.4-7.1c0.3-0.1,0.7-0.1,1,0.1c4.2,2.4,7.5,4.5,9.7,6.2c5.4,4,8.1,9.3,11.4,16.3c3,6.2,4.5,12.3,4.7,18.2&#xA;&#x9;&#x9;c0.3,11.2,0.7,23.1,1.2,35.7c0.1,2.8-0.3,5.4-0.6,8.1l1.7,12.6c0,0.3,0,0.6-0.1,0.8c-0.8,2-1.2,4-1.2,6c-0.1,3-0.3,5-0.6,5.9&#xA;&#x9;&#x9;c-0.2,0.5-1.3,6.4-3.2,17.5c-0.7,4-1.5,7.6-2.3,10.8c-1.4,5.6-2.2,9.2-2.5,10.8c-0.7,5-2.2,8.5-3.6,14.3c-0.7,2.9-1.8,6.4-3.4,10.4&#xA;&#x9;&#x9;c-3,7.5-4,10.7-6.8,18.6c-1,2.8-2,5.2-3,7.1c-1.5,3-2.3,6.2-4.1,9.4c-3.2,5.6-6.1,11.3-8.8,17.1l-8.2,13.5c2.3-0.5,4.2-1.6,5.8-3.3&#xA;&#x9;&#x9;c0.2-0.2,0.5-0.3,0.8-0.3c13.1,1.5,26.1,3.4,39,5.8c0.3,0.1,0.5,0.3,0.5,0.6l0.6,20.2c0,0,0,0,0,0c0,0,0,0,0,0h0&#xA;&#x9;&#x9;c0-11.5,0-23.1,0-34.6c0,0,0,0,0,0c0,0,0-0.1,0-0.1h0c0,0,0,0.1,0,0.1c0.7,12.3,0.8,27.5,1.6,41.3c0.3,4.5,0.4,8.9,0.6,13.4&#xA;&#x9;&#x9;c0.1-26.6,0.1-53.3,0.1-79.9c0-13.8,0.5-30.1,0.3-44.2c-0.3-23.1,0.1-39.9-0.3-61.3c-0.1-3.8,0-21,0.2-51.5&#xA;&#x9;&#x9;c0.1-9.7-0.3-16.2-1.1-19.3c-1.6-5.9-4.5-11.7-8.8-17.3c-3.6-4.8-9.5-8.5-15-11.4c-11.9-6.4-23.7-12.8-35.3-19.2&#xA;&#x9;&#x9;c-1.6-0.9-3.6-1.9-6-3C893,231.4,894.5,234,897.6,236.8z"></path>
&#x9;<path class="st8" d="M110.7,252.5c0.1-0.2,0.1-0.3-0.1-0.5c-0.1-0.1-0.2-0.1-0.3,0l-8.4,5.6L110.7,252.5&#xA;&#x9;&#x9;C110.6,252.6,110.7,252.5,110.7,252.5z"></path>
&#x9;<path class="st7" d="M903.4,476.3C903.4,476.3,903.4,476.4,903.4,476.3c0.1,0.1,0.1,0.1,0.1,0.1c0,0,0,0,0.1,0c0,0,0.1,0,0.1,0&#xA;&#x9;&#x9;c0,0,0.1,0,0.1,0c0,0,0.1,0,0.1,0c0,0,0.1,0,0.1,0c0,0,0,0,0.1,0c0.1,0,0.1-0.1,0.1-0.1c0.7-1.1,1-2.5,1-4.1&#xA;&#x9;&#x9;c0.1-18.1,0.1-28.5,0-31.4c-0.1-2.2-0.4-5.7-0.2-8.3c0.4-7.6,0.6-17.7,0.6-30.1c0-0.3,0.2-0.6,0.5-0.7c2.6-0.9,4.4-2,5.4-3.3&#xA;&#x9;&#x9;c4.1-5.2,8.4-10.1,13-14.6c1.3-1.3,2.2-2.7,3.3-4.1c0.7-0.8,4.3-6.1,10.8-15.7c6.2-9.2,9.7-18.7,13.7-29.1c0-0.1,0-0.2,0-0.3l0-0.6&#xA;&#x9;&#x9;c0-0.3,0.2-0.6,0.5-0.6c0.5,0,0.8-0.2,1-0.5c0,0,0.1-0.1,0.1-0.1c0,0,0,0,0,0c0,0,0.1,0,0.1,0c0,0,0.1,0,0.1,0c0,0,0,0,0,0&#xA;&#x9;&#x9;c0,0,0.1,0.1,0.1,0.1c0.2,0.3,0.6,0.7,1.3,1c0.3,0.2,0.5,0.5,0.5,0.9l0.2,3.3c0.4-2.7,0.7-5.3,0.6-8.1c-0.4-12.6-0.8-24.5-1.2-35.7&#xA;&#x9;&#x9;c-0.2-6-1.8-12-4.7-18.2c-3.3-7-6-12.2-11.4-16.3c-2.3-1.7-5.5-3.8-9.7-6.2c-0.3-0.2-0.7-0.2-1-0.1c-6.7,2.4-11.9,4.8-15.4,7.1&#xA;&#x9;&#x9;c-6.4,4.2-12.9,8.6-19.6,13c-3.3,2.2-5.8,5.7-3.1,9.6c5.6,7.9,16.4,14.3,12.1,25.8l0.1,161.4l0.3,5.6&#xA;&#x9;&#x9;C903.3,476.2,903.4,476.3,903.4,476.3z"></path>
&#x9;<path class="st9" d="M172.6,274.4c7.8-17.4-14.6-17.6-25.2-18c-16.9-0.6-29.8-1-45,3.5c-5.6,3.1-11.3,7.2-14.4,12.7&#xA;&#x9;&#x9;c-0.8,1.5-2.4,4.1-4.6,7.9c-0.5,0.9-0.9,1.8-1.1,2.9c-2.2,13.5-1.9,28.7-0.8,41.4c0.3,3.6,1.3,7,2.8,10.2&#xA;&#x9;&#x9;c2.7,5.7,8.1,17.5,13.3,25.2c3.6,5.4,6.1,9.3,7.5,11.7c2.6,4.5,7.5,11,9.9,14.3c5,6.8,12.6,11.7,18.2,18.2l1-50.7&#xA;&#x9;&#x9;c0-0.1,0-0.1,0.1-0.2c0,0,0,0,0,0c0,0,0.1,0,0.1,0c0,0,0.1,0,0.1,0c0,0,0,0,0,0c0.1,0,0.1,0,0.2,0.1c0.8,0.9,1.2,1.6,1.2,2&#xA;&#x9;&#x9;c-0.1,16.2-0.1,32.4,0.2,48.6c0.3-2.8,0-5.8,0.1-8.3c0.4-6.2,0.4-11.9,0.2-17c-0.3-5.3,0.5-9.6,0-14.8c-0.1-0.8,0-1.7,0.2-2.8&#xA;&#x9;&#x9;c0.4-2-0.1-4.5-0.1-6.5c0.1-13.4-0.2-26.8-0.7-40.2c-0.2-4.3,0.1-6.1,0.5-10.8c0-0.3,0.1-0.6,0.3-0.9c1.5-3,1.7-5.1,4.7-7.1&#xA;&#x9;&#x9;c2.1-1.4,4.1-2.8,6.3-4c6.7-3.3,13.2-6.8,19.5-10.4C168.1,278.6,170,276.3,172.6,274.4z"></path>
&#x9;<path class="st10" d="M79.6,333.8C79.6,333.8,79.7,333.8,79.6,333.8c0-0.1,0.1-0.1,0.1-0.1c0,0,0,0,0.1,0c0,0,0,0,0.1,0&#xA;&#x9;&#x9;c0,0,0,0,0,0l0,0c0.1,0,0.2,0.1,0.2,0.2l0.3,21.2c0,0.3,0,0.6,0.1,0.9c2.2,7,3.6,14.5,4,22.4c0,0.3,0.1,0.7,0.2,1&#xA;&#x9;&#x9;c5.1,20,8.2,32.2,9.2,36.5c1.1,4.5,1.9,7.6,2.5,9.1c1.5,3.7,2.1,7.7,4,11.9c2.6,6,5.2,11.9,7.8,17.9c1.1,2.6,2.1,5.4,2.9,8.3&#xA;&#x9;&#x9;c0,0.1,0.1,0.2,0.1,0.3l19.4,34.2l14.5,20l16.8,18.7c0.2,0.2,0.5,0.4,0.8,0.3l1.9-0.2c3.3-1.4,6.5-2.9,9.7-4.4&#xA;&#x9;&#x9;c2.3-1.1,5-2.7,8.3-4.7c6.5-4.1,16.6-6.7,22.2-8.5c2.8-0.9,4.6-1.9,7.9-3.6c0.1,0,0.2-0.1,0.3-0.1l9.8-3.1c0.3-0.1,0.5,0.1,0.6,0.3&#xA;&#x9;&#x9;l0.5,1.6c2.5-0.8,5-1.5,7.5-2.1c14.3-3.3,28.7-6.1,43.3-8.5c-3.4-0.5-5.5-0.8-6.5-0.7c-11.5,0.1-22.3,0.1-32.4,0&#xA;&#x9;&#x9;c-16.2-0.2-28.9,0.2-44.5-0.2c-0.3,0-0.5-0.2-0.6-0.5c-0.2-0.7-0.2-1.5-0.2-2.3c-15.1-0.6-30.9,0.2-44.3,0.3&#xA;&#x9;&#x9;c-4.7,0-8.4,0.3-9.4-5.4c-0.7-3.9-1-6.7-1-8.5c-0.1-4.9,0-15,0.1-30.2c0.1-11.8,0.1-23.7,0.1-35.6l-0.4,28.4c0,0.6-0.4,1.2-1,1.4&#xA;&#x9;&#x9;l-0.2,0.1c-0.1,0-0.2,0-0.2,0c0,0,0,0,0,0c-0.1,0-0.1,0-0.2,0c0,0-0.1,0-0.1,0c0,0-0.1-0.1-0.1-0.1c0,0-0.1-0.1-0.1-0.1&#xA;&#x9;&#x9;c0,0-0.1-0.1-0.1-0.1c0,0-0.1-0.1-0.1-0.2c0,0,0,0,0,0c0-0.1,0-0.2,0-0.2l0.1-44.8c-5.7-6.5-13.2-11.4-18.2-18.2&#xA;&#x9;&#x9;c-2.4-3.2-7.3-9.8-9.9-14.3c-1.4-2.4-3.9-6.3-7.5-11.7c-5.2-7.7-10.6-19.5-13.3-25.2c-1.6-3.2-2.5-6.6-2.8-10.2&#xA;&#x9;&#x9;c-1.2-12.7-1.5-27.9,0.8-41.4c0.2-1,0.5-2,1.1-2.9c2.3-3.8,3.8-6.4,4.6-7.9c3.1-5.5,8.8-9.6,14.4-12.7l6.4-4.6&#xA;&#x9;&#x9;c-6.8,3.5-13,8-18.6,13.3c-0.1,0.1-0.3,0.1-0.4,0l-0.2-0.2c0,0,0,0,0,0c0,0,0,0,0,0c0,0,0,0,0,0l7-7c-3.7,2.6-7,5.7-9.8,9.3&#xA;&#x9;&#x9;c0,0-0.1,0.1-0.1,0l-0.2-0.1c0,0,0,0,0,0c0,0,0-0.1-0.1-0.1c0,0-0.1-0.1-0.1-0.1c0,0,0-0.1,0-0.1c0,0,0-0.1,0-0.1&#xA;&#x9;&#x9;c3.4-5.9,7.7-11.1,12.9-15.6c-12.7,8.8-19.2,20.8-19.5,36c-0.3,14.9-0.4,29.7-0.3,44.6L79.6,333.8&#xA;&#x9;&#x9;C79.6,333.8,79.6,333.8,79.6,333.8z"></path>
&#x9;<path class="st11" d="M600.1,281.5c-19.5-1-35.5-2.8-53.8-8.7l-0.8,38.2c0,0.1,0,0.3-0.1,0.4c0,0,0,0.1-0.1,0.1&#xA;&#x9;&#x9;c0,0.1-0.1,0.2-0.2,0.2c0,0,0,0.1-0.1,0.1c-0.1,0.1-0.2,0.2-0.3,0.2c0,0,0,0,0,0c0,0,0,0,0,0c-0.1,0-0.1,0-0.2,0&#xA;&#x9;&#x9;c-0.1,0-0.2,0.1-0.2,0.1c0,0,0,0,0,0c-0.1,0-0.2,0-0.3-0.1c0,0-0.1,0-0.1,0c-0.1,0-0.2-0.1-0.2-0.1c0,0-0.1,0-0.1-0.1&#xA;&#x9;&#x9;c-0.1-0.1-0.2-0.2-0.2-0.3c0,0,0-0.3,0-0.8c0-4.6-0.2-9.1-0.5-13.7c-0.2,9.2-0.4,18.4-0.5,27.6c0,3.1-0.9,4.5-2.6,4.2&#xA;&#x9;&#x9;c-0.5,13.1-0.4,26.3,0.3,39.4c0.1,2.1,0.7,4.1,1.9,5.9c1.2,1.8,2.2,1.9,4.3,0.9c10-5.1,20-10.2,30.1-15.2l-0.8-2.3&#xA;&#x9;&#x9;c-0.1-0.4,0-0.9,0.4-1.1l22-11.1c0.7-0.4,1.2-1.1,1.3-2c0.1-1.9,0.2-6.3,0.2-13.2c0-2.8,0.3-7.2,0.8-13.1&#xA;&#x9;&#x9;c0.5-6.2,0.8-12.4,0.9-18.7l-0.1-12.7l-0.5-3.6C600.7,281.8,600.4,281.5,600.1,281.5z"></path>
&#x9;<path class="st6" d="M493.1,309.8c0.1,0.7,0.5,1.2,1.4,1.6c0,0,0.1,0,0.1,0c0,0,0.1,0,0.1,0c0,0,0.1,0,0.1,0c0,0,0.1,0,0.1,0&#xA;&#x9;&#x9;c0,0,0,0,0.1,0c0,0,0,0,0.1-0.1c0,0,0,0,0-0.1c0,0,0-0.1,0.1-0.1l0.6-2.5l0-27.2c-0.8,2.9-1.9,4.2-3.4,3.9l0.2,16&#xA;&#x9;&#x9;C492.6,304.1,492.8,307,493.1,309.8z"></path>
&#x9;<path class="st11" d="M495,311.2C495,311.2,495,311.2,495,311.2c0,0.1-0.1,0.1-0.1,0.1c0,0,0,0-0.1,0.1c0,0,0,0-0.1,0&#xA;&#x9;&#x9;c0,0-0.1,0-0.1,0c0,0-0.1,0-0.1,0c0,0-0.1,0-0.1,0c0,0-0.1,0-0.1,0c-0.9-0.4-1.3-0.9-1.4-1.6c-0.2-2.9-0.4-5.7-0.6-8.5&#xA;&#x9;&#x9;c-8.9-1.8-17.8-3.6-26.6-5.3c-10.1-1.9-19-2.5-28,3.4c-0.2,0.2-0.4,0.4-0.4,0.7l0,23l-0.1,12.9c0,0.1,0,0.1,0,0.2c0,0,0,0,0,0&#xA;&#x9;&#x9;c0,0,0,0,0,0c0,0,0,0,0,0.1c0,0,0,0,0.1,0c0,0,0,0,0.1,0c0,0,0.1,0,0.1,0c0,0,0,0,0.1,0c0.1,0,0.1,0,0.2,0c0.4-0.2,0.8,0,1.1,0.6&#xA;&#x9;&#x9;c0,0.1,0.1,0.2,0.1,0.3l-0.2,4.9c0,1.3,0.6,2.5,1.7,3.1c3.5,2.1,7.1,4,11,5.6c3.9,1.6,6.6,3.3,10.1,4.8c0.6,0.2,1.2,0.5,1.7,0.9&#xA;&#x9;&#x9;c5.5,3.7,12,6.6,17.9,9.3c1.6,0.8,3.2,2.2,4.5,2.5c2.4,0.5,4.2,2.3,7,2.9c0.3,0.1,0.6,0,0.8-0.3l2.2-2.8c0.1-0.1,0.1-0.2,0.1-0.4&#xA;&#x9;&#x9;c0.4-13.9,0.4-31.5,0.1-52.9c0-2.7-0.2-4.8-0.4-6.2L495,311.2C495,311.1,495,311.2,495,311.2z"></path>
&#x9;<path class="st8" d="M599.6,330.2c0,6.9-0.1,11.3-0.2,13.2c-0.1,0.8-0.5,1.6-1.3,2l-22,11.1c-0.4,0.2-0.6,0.6-0.4,1.1l0.8,2.3&#xA;&#x9;&#x9;c8.8-4.7,15.8-8.3,20.8-10.7c1.8-0.9,3.2-1.8,4.2-2.7c0.3-0.3,0.5-0.7,0.5-1.2c-0.4-6.2-0.4-12.9,0-20c0-0.6-0.1-1.3-0.3-2&#xA;&#x9;&#x9;c-0.1-0.2-0.1-0.4-0.1-0.6l-0.2-24.4c0,6.2-0.3,12.5-0.9,18.7C599.8,323,599.6,327.4,599.6,330.2z"></path>
&#x9;<path class="st12" d="M927.1,462.5c1.8-3.2,2.6-6.4,4.1-9.4c1-1.9,2-4.3,3-7.1c2.9-8,3.8-11.1,6.8-18.6c1.6-4,2.7-7.4,3.4-10.4&#xA;&#x9;&#x9;c1.3-5.7,2.9-9.3,3.6-14.3c0.2-1.6,1-5.2,2.5-10.8c0.8-3.3,1.6-6.9,2.3-10.8c2-11.1,3-16.9,3.2-17.5c0.3-0.9,0.5-2.9,0.6-5.9&#xA;&#x9;&#x9;c0.1-2,0.5-4,1.2-6c0.1-0.3,0.1-0.6,0.1-0.8l-1.7-12.6l-0.2-3.3c0-0.4-0.2-0.7-0.5-0.9c-0.7-0.4-1.1-0.7-1.3-1c0,0-0.1-0.1-0.1-0.1&#xA;&#x9;&#x9;c0,0,0,0,0,0c0,0-0.1,0-0.1,0c0,0-0.1,0-0.1,0c-0.1,0-0.1,0-0.1,0.1c-0.2,0.3-0.5,0.4-1,0.5c-0.3,0-0.5,0.3-0.5,0.6l0,0.6&#xA;&#x9;&#x9;c0,0.1,0,0.2,0,0.3c-4,10.3-7.5,19.9-13.7,29.1c-6.5,9.7-10.1,14.9-10.8,15.7c-1.1,1.3-2,2.8-3.3,4.1c-4.6,4.5-8.9,9.4-13,14.6&#xA;&#x9;&#x9;c-1,1.3-2.8,2.4-5.4,3.3c-0.3,0.1-0.5,0.4-0.5,0.7c0,12.4-0.2,22.5-0.6,30.1c-0.1,2.6,0.2,6.2,0.2,8.3c0.1,2.9,0.1,13.3,0,31.4&#xA;&#x9;&#x9;c0,1.6-0.3,3-1,4.1c0,0.1-0.1,0.1-0.1,0.1c0,0,0,0-0.1,0c0,0-0.1,0-0.1,0c0,0,0,0,0,0c0,0,0,0-0.1,0c0,0-0.1,0-0.1,0&#xA;&#x9;&#x9;c0,0-0.1,0-0.1,0c0,0,0,0-0.1,0c0,0-0.1-0.1-0.1-0.1c0,0,0,0,0,0c0-0.1-0.1-0.1-0.1-0.2l-0.3-5.6l-0.1,13.8l15.3-4.7&#xA;&#x9;&#x9;C920.9,473.8,923.9,468.1,927.1,462.5z"></path>
&#x9;<path class="st5" d="M81.2,537.1c0.1,0,0.2,0.1,0.2,0.2c0.3,1.2,0.3,2.5,0,3.9l0.4-2.7l0.6-37.7c0-0.3,0.1-0.5,0.1-0.8&#xA;&#x9;&#x9;c1.4-4,2.6-6.9,3.6-8.7c6.3-11.5,19.5-14.8,31.1-9.4c0.2,0.1,0.4,0.3,0.5,0.5c3.3,6.6,7.5,11.7,12.8,15.3l-19.4-34.2&#xA;&#x9;&#x9;c0-0.1-0.1-0.2-0.1-0.3c-0.8-3-1.8-5.8-2.9-8.3c-2.6-5.9-5.2-11.9-7.8-17.9c-1.8-4.2-2.5-8.2-4-11.9c-0.6-1.5-1.5-4.6-2.5-9.1&#xA;&#x9;&#x9;c-1-4.3-4.1-16.5-9.2-36.5c-0.1-0.3-0.1-0.7-0.2-1c-0.4-7.9-1.8-15.4-4-22.4c-0.1-0.3-0.1-0.6-0.1-0.9L80,333.9&#xA;&#x9;&#x9;c0-0.1-0.1-0.2-0.2-0.2l0,0c0,0,0,0,0,0c0,0,0,0-0.1,0c0,0,0,0-0.1,0c0,0,0,0,0,0.1c0,0,0,0,0,0.1l-0.1,1.3l0.3,208.9l1.1-6.8&#xA;&#x9;&#x9;C81,537.2,81.1,537.1,81.2,537.1z"></path>
&#x9;<path class="st5" d="M135.8,355.4c0-0.4-0.4-1.1-1.2-2c0,0-0.1-0.1-0.2-0.1c0,0,0,0,0,0c0,0-0.1,0-0.1,0c0,0-0.1,0-0.1,0&#xA;&#x9;&#x9;c0,0-0.1,0.1-0.1,0.2l-1,50.7l-0.1,44.8c0,0.1,0,0.2,0,0.2c0,0,0,0,0,0c0,0.1,0.1,0.1,0.1,0.2c0,0,0.1,0.1,0.1,0.1&#xA;&#x9;&#x9;c0,0,0.1,0.1,0.1,0.1c0,0,0.1,0.1,0.1,0.1c0,0,0.1,0,0.1,0c0.1,0,0.1,0,0.2,0c0.1,0,0.2,0,0.3,0l0.2-0.1c0.6-0.2,1-0.8,1-1.4&#xA;&#x9;&#x9;l0.4-28.4l0.1-16C135.8,387.8,135.7,371.6,135.8,355.4z"></path>
&#x9;<path class="st2" d="M450.7,444.7C450.7,444.8,450.7,444.8,450.7,444.7c0,0.1,0,0.2,0.1,0.2c0,0,0,0,0,0c0,0,0,0,0.1,0.1&#xA;&#x9;&#x9;c0,0,0,0,0.1,0.1c0,0,0,0,0,0c0.1,0,0.1,0,0.2,0c0,0,0,0,0.1,0c0.1,0,0.1,0,0.2-0.1l6.7-4.3c4.4-3,9.5-4.6,16.8-7.7&#xA;&#x9;&#x9;c3.6-1.5,7.6-2.7,11.9-3.6c4.9-1,10.7-2.6,16.4-3.3c14-1.8,28.2-1.4,42.4,1.5c1.2,0.2,3.4,0.8,6.5,1.8c0.5,0.1,0.9,0.2,1.4,0.3&#xA;&#x9;&#x9;c2,0.2,3.9,0.6,5.7,1.3c10.6,3.4,17.9,7.3,28.7,13.2c0.3,0.2,0.6,0.2,0.9,0.2l4.3-0.4c-5.2-3.7-9.1-5.5-16.8-9.4&#xA;&#x9;&#x9;c-27.8-14.4-59.4-16.3-88.9-9.3c-6.6,1.6-12.9,3.7-19,6.4c-4.1,1.8-9.2,4.5-15.2,7.9l-2.7,4.8C450.7,444.6,450.7,444.7,450.7,444.7&#xA;&#x9;&#x9;z"></path>
&#x9;<path class="st4" d="M552.2,429.5c-3.2-1-5.3-1.6-6.5-1.8c-14.3-2.8-28.4-3.3-42.4-1.5c-5.7,0.8-11.5,2.3-16.4,3.3&#xA;&#x9;&#x9;c-4.4,0.9-8.3,2.1-11.9,3.6c-7.3,3.1-12.5,4.7-16.8,7.7c12,0.6,21.5,1.9,28.5,3.9c8.8,2.4,16.1,4.3,21.8,5.5&#xA;&#x9;&#x9;c20.9,4.5,39.4-0.5,51-19.1c-1.8-0.6-3.7-1.1-5.7-1.3C553.1,429.7,552.6,429.6,552.2,429.5z"></path>
&#x9;<path class="st6" d="M391.8,539.7c2.3-7.3,3.9-14.6,4.8-21.7c1.1-4.2,3.2-9.5,6.3-15.8c4.2-8.5,7.5-14.4,9.8-17.9&#xA;&#x9;&#x9;c4.1-6,7.3-10.3,9.6-12.7c1.6-1.8,5.8-4,8.4-2.5c0.8,0.5,1.9,1.8,3.2,4c4.5,7.5,9.7,16.5,15.7,27c3.3,5.8,1.9,11,0.9,17&#xA;&#x9;&#x9;c1.4-1.3,2.2-2.7,2.5-4.2c0.2-6.2,2.7-13.3,3.6-17.7c1.3-6.3,2.8-12,4.7-17.2c0.6-1.6,3.5-7.4,8.8-17.6c1-1.9,1.4-3.4,2.3-5&#xA;&#x9;&#x9;c0,0,0,0,0,0c0,0,0,0,0.1-0.1c0,0,0,0,0.1-0.1c0,0,0.1,0,0.1,0c0,0,0.1,0,0.1,0c0,0,0.1,0,0.1,0c0,0,0.1,0,0.1,0c0,0,0.1,0,0.1,0&#xA;&#x9;&#x9;c0,0,0,0,0.1,0c0,0,0,0,0,0c12.2,8.4,24.8,16.4,37.7,23.9c5.5-0.6,10.9-0.7,16.3-0.1c14.7-4.2,29.1-9.2,43-15.3&#xA;&#x9;&#x9;c0.3-0.1,0.6,0,0.8,0.2l1.3,2.1c0,0.1,0.1,0.1,0.1,0.2l7.3,16.5c3.1,10,5.4,20.2,7,30.5c2.3-4.1,1.4-7.5,0.9-13.2&#xA;&#x9;&#x9;c-0.3-2.8,0.4-6.1,2-9.9c0.9-2.2,4.3-7.6,10-16.1c2.2-3.3,3.5-5.7,4.5-9.2c0,0,0,0,0,0c0-0.1,0.1-0.1,0.1-0.2&#xA;&#x9;&#x9;c0-0.1,0.1-0.1,0.1-0.2c0,0,0.1-0.1,0.1-0.1c0,0,0.1-0.1,0.2-0.1c0.1,0,0.1,0,0.2-0.1c0.1,0,0.1,0,0.2,0c0.1,0,0.1,0,0.2,0&#xA;&#x9;&#x9;c0.1,0,0.1,0,0.2,0c0,0,0,0,0,0c5,1.7,7.5,4,11,8.5c2.8,3.6,6.1,7.6,10,12c6.2,7.1,10.1,16.7,13.5,25.5c2.3,4.2,3.8,8.8,4.4,13.8&#xA;&#x9;&#x9;c0.3,0.4,0.6,0.9,0.8,1.7l0.3-2.2c-1.2-3.5-1.3-6.9-0.3-10.3c-3.4-10.5-8.8-21.8-16.4-33.7c-9.1-14.5-21.3-25.5-35.1-35.4l-4.3,0.4&#xA;&#x9;&#x9;c-0.3,0-0.6,0-0.9-0.2c-10.8-5.9-18.1-9.8-28.7-13.2c-11.6,18.6-30.1,23.6-51,19.1c-5.7-1.2-13-3.1-21.8-5.5&#xA;&#x9;&#x9;c-7-1.9-16.5-3.2-28.5-3.9l-6.7,4.3c-0.1,0-0.1,0.1-0.2,0.1c0,0,0,0-0.1,0c-0.1,0-0.1,0-0.2,0c0,0,0,0,0,0c0,0,0,0,0,0&#xA;&#x9;&#x9;c0,0,0,0-0.1-0.1c0,0,0,0-0.1-0.1c0,0,0,0,0,0c0,0,0-0.1,0-0.2c0,0,0,0,0-0.1c0-0.1,0-0.1,0-0.2l2.7-4.8&#xA;&#x9;&#x9;c-8.9,5.5-15.2,10-18.9,13.4c-5,4.7-9.4,9.2-13.4,13.6c-11,12.1-19.3,26.9-25.5,42c-3.4,8.4-5.7,17.4-7,27c2.2,2.1,1.9,7.3,2,10&#xA;&#x9;&#x9;C391,542.8,391.5,540.7,391.8,539.7z"></path>
&#x9;<path class="st7" d="M473,455.1C473,455.1,473,455.1,473,455.1c-0.1,0-0.1-0.1-0.2-0.1c0,0-0.1,0-0.1,0c0,0-0.1,0-0.1,0&#xA;&#x9;&#x9;c0,0-0.1,0-0.1,0c0,0-0.1,0-0.1,0c0,0,0,0-0.1,0.1c0,0-0.1,0.1-0.1,0.1c-0.9,1.6-1.3,3.1-2.3,5c-5.3,10.2-8.3,16.1-8.8,17.6&#xA;&#x9;&#x9;c-1.8,5.2-3.4,11-4.7,17.2c-0.9,4.4-3.4,11.5-3.6,17.7l0.3,6.3c1.6-4.5,3-7.3,4.1-8.5c4.2-4.4,7.1-7.5,8.5-9.2c3.5-4,6.5-6.9,9-8.7&#xA;&#x9;&#x9;c10.6-7.5,22.9-12.9,35.8-13.8C497.9,471.5,485.3,463.5,473,455.1C473.1,455.1,473.1,455.1,473,455.1z"></path>
&#x9;<path class="st7" d="M579.4,482.6l-7.3-16.5c0-0.1-0.1-0.1-0.1-0.2l-1.3-2.1c-0.2-0.3-0.5-0.4-0.8-0.2c-13.9,6-28.3,11.1-43,15.3&#xA;&#x9;&#x9;c7.9,0.7,15.5,2.5,22.7,5.3c2.8,1.1,5.4,2.5,7.9,4.3C565.3,489,572.6,487.1,579.4,482.6z"></path>
&#x9;<path class="st7" d="M623.7,505.1c4.1,0.9,9.5,2.6,15.9,5c-3.4-8.8-7.3-18.4-13.5-25.5c-3.9-4.4-7.2-8.4-10-12&#xA;&#x9;&#x9;c-3.5-4.5-6-6.8-11-8.5c0,0,0,0,0,0c-0.1,0-0.1,0-0.2,0c-0.1,0-0.1,0-0.2,0c-0.1,0-0.1,0-0.2,0c-0.1,0-0.1,0-0.2,0.1&#xA;&#x9;&#x9;c-0.1,0-0.1,0.1-0.2,0.1c0,0-0.1,0.1-0.1,0.1c0,0-0.1,0.1-0.1,0.2c0,0.1-0.1,0.1-0.1,0.2c-1.1,3.5-2.3,5.9-4.5,9.2&#xA;&#x9;&#x9;c-5.7,8.5-9,13.9-10,16.1c-1.6,3.8-2.3,7.1-2,9.9c0.5,5.7,1.4,9.1-0.9,13.2l-0.5,4l5,17.9c1.1-6.8,2.8-12.5,5-17.3&#xA;&#x9;&#x9;C601.1,506.5,612.1,502.6,623.7,505.1z"></path>
&#x9;<path class="st7" d="M432,505.7c4.4,1.4,7.8,3.2,10.5,5.3c3.8,3,6.5,5.1,8.1,6.1c1-6,2.4-11.2-0.9-17c-6-10.5-11.2-19.5-15.7-27&#xA;&#x9;&#x9;c-1.3-2.2-2.4-3.6-3.2-4c-2.7-1.5-6.8,0.8-8.4,2.5c-2.2,2.4-5.4,6.6-9.6,12.7c-2.4,3.5-5.7,9.4-9.8,17.9&#xA;&#x9;&#x9;c-3.1,6.4-5.3,11.6-6.3,15.8c5.6-4,11.2-7.4,16.9-10.2C419.2,504.8,425.7,503.6,432,505.7z"></path>
&#x9;<path class="st7" d="M106.3,523.9c13.1-1.6,24.5-2.7,38.7-6.2l-14.5-20c-5.2-3.6-9.5-8.7-12.8-15.3c-0.1-0.2-0.3-0.4-0.5-0.5&#xA;&#x9;&#x9;c-11.6-5.4-24.9-2.1-31.1,9.4c-1,1.9-2.2,4.8-3.6,8.7c-0.1,0.3-0.1,0.5-0.1,0.8l-0.6,37.7C87.7,530,95.9,525.1,106.3,523.9z"></path>
&#x9;<path class="st1" d="M648.5,702.5c1,0,1.9-0.6,2.2-1.6c0.1-0.3-0.1-0.8-0.5-1.4c-2.5,1.2-5.2,1.8-8.1,1.8c-7.1,0-12.1,0.1-18.1-0.3&#xA;&#x9;&#x9;c-9.3-0.6-19-0.5-29.1,0.2c-0.6,0-1.1-0.3-1.3-0.8c-1-2.5-1.5-5.3-1.3-8.5c0.3-5.3,0.7-10.6,1.2-15.9l-0.1-37.1&#xA;&#x9;&#x9;c-0.4-24.4,0-51.6,0.1-72.1c0-7.2-0.3-15-0.6-21.8c0-0.1,0-0.1,0-0.2l-2-10.1l-5-17.9c-2.4-3.5-5.1-6.9-8-10.1&#xA;&#x9;&#x9;c-3.4-3.8-5.9-8.2-9.8-10.8c-3.7-2.4-7.2-5-10.5-7.7c-2.4-1.8-5-3.2-7.9-4.3c-7.2-2.8-14.8-4.6-22.7-5.3&#xA;&#x9;&#x9;c-5.4-0.6-10.8-0.5-16.3,0.1c-12.9,0.9-25.2,6.3-35.8,13.8c-2.5,1.8-5.5,4.6-9,8.7c-1.5,1.7-4.3,4.7-8.5,9.2&#xA;&#x9;&#x9;c-1.2,1.2-2.5,4.1-4.1,8.5l-5.4,15.3c0,0.1,0,0.1,0,0.2c-1.9,11.1-2.7,21.1-2.3,30.2c0.5,13.2,0.6,23.7,0.3,31.4&#xA;&#x9;&#x9;c0.5,15.4-0.1,30.4-0.2,46.1c0,4.6,0.7,9.3,0.7,13.7c0,6,0,11.8,0.2,17.3c0.2,8,0.4,15.8-1.9,22.9c-0.1,0.3-0.3,0.6-0.6,0.7&#xA;&#x9;&#x9;c-5.7,2.1-11.5,3-17.4,2.9c-11.8-0.2-22.5-0.1-32.2,0.4c-1.3,0.1-3.2-0.3-5.7-1.2l-0.6,3.4l55.8,0.1c0.6,0,1.1-0.2,1.5-0.5&#xA;&#x9;&#x9;c4-2.8,6-6.6,5.9-11.4c0-58.5,0-94.4-0.1-107.7c0-13.7,0.1-22.8,0.4-27.3c1.8-27.2,15.1-49.7,40.1-61.7c15.5-7.5,31.9-8.2,49.3-2.3&#xA;&#x9;&#x9;c29.8,10.2,46.1,36.3,46.5,67.3c0.1,4.7,0,42.1-0.1,112c0,7.5,0,13.8,0.1,19.1c0,3,0.5,5.2,1.2,6.6c1.3,2.2,2.7,4.1,4.5,5.5&#xA;&#x9;&#x9;c0.2,0.2,0.5,0.3,0.7,0.3l49.7,0.3C645.4,702.5,647,702.5,648.5,702.5z"></path>
&#x9;<path class="st10" d="M836.8,501.7c0,0,0,0.1,0,0.1c0,0,0,0,0,0c0,0,0,0,0,0c0,0,0,0.1,0,0.1c0,0,0,0,0,0.1c0,0,0,0,0,0.1&#xA;&#x9;&#x9;c0,0,0,0-0.1,0c0,0,0,0,0,0c0,0,0,0,0,0c0,0-0.1,0-0.1,0l-25,0.2c-1,2.7-1.2,5.3-0.7,7.8c0.1,0.3,0.3,0.5,0.6,0.6&#xA;&#x9;&#x9;c3.9,0.9,7.7,1.8,11.5,3.4c5.8,2.5,12.7,5,20.5,7.7c4.3,1.4,8.9,3.5,14,6.2c4.9,2.6,11.3,5.6,17,8.8c4.9-3.3,8.4-6.2,10.4-8.9&#xA;&#x9;&#x9;c5-6.8,8.3-10.7,12.5-16.8c2.2-3.2,4.8-6.5,7.6-9.9c2.1-2.5,3.7-5.4,5.3-8.3l8.2-13.5l-15.3,4.7c0.2,3.4,0.3,9.8-2.2,12.2&#xA;&#x9;&#x9;c-2.2,2.1-5,3.1-8.3,3.2c-7.3,0.1-14.8,0-22.5-0.2l-34.7-0.1C835.9,500.1,836.5,500.9,836.8,501.7z"></path>
&#x9;<path class="st9" d="M956.8,481.6c0.1,11.5,0.1,23.1,0,34.6h0c0,0,0,0,0,0c0,0,0,0,0,0c0,0,0,0,0,0l-0.6-20.2&#xA;&#x9;&#x9;c0-0.3-0.2-0.5-0.5-0.6c-12.9-2.4-25.9-4.4-39-5.8c-0.3,0-0.6,0.1-0.8,0.3c-1.5,1.7-3.4,2.8-5.8,3.3c-1.7,2.9-3.2,5.7-5.3,8.3&#xA;&#x9;&#x9;c-2.8,3.4-5.4,6.7-7.6,9.9c-4.2,6.1-7.5,10-12.5,16.8c-2,2.7-5.4,5.6-10.4,8.9c2.6,0.7,4.3,1.3,5.1,1.7c2,1,4.5,2.7,7.5,5.4&#xA;&#x9;&#x9;c2.5,2.2,4.7,3.9,6.8,5.2c2.4,1.6,4.8,3.2,7.2,4.7c6.2,4.1,10.4,9.2,12.8,15.2c7.5,8.2,12.6,14.4,15.3,18.5&#xA;&#x9;&#x9;c6,9,13.1,19.2,17.2,29.4c3.9,9.9,7.1,19.3,9.5,28.2c0.4,1.4,0.9,2.6,1.5,3.8c0,0.1,0.1,0.2,0.1,0.2l1.8,6.7l-0.2-119.8&#xA;&#x9;&#x9;c-0.1-4.5-0.3-8.9-0.6-13.4C957.6,509,957.5,493.9,956.8,481.6z"></path>
&#x9;<path class="st9" d="M956.8,481.5C956.8,481.5,956.8,481.5,956.8,481.5C956.8,481.6,956.8,481.6,956.8,481.5&#xA;&#x9;&#x9;C956.8,481.5,956.8,481.5,956.8,481.5L956.8,481.5z"></path>
&#x9;<path class="st11" d="M579.4,482.6c-6.9,4.4-14.2,6.4-21.8,5.9c3.4,2.7,6.9,5.3,10.5,7.7c4,2.6,6.4,7,9.8,10.8&#xA;&#x9;&#x9;c2.9,3.2,5.5,6.5,8,10.1l0.5-4C584.8,502.8,582.5,492.6,579.4,482.6z"></path>
&#x9;<path class="st3" d="M709.4,555.8c-3.1-3.6-5.4-8.1-6.7-13.5c-1-4.1-2.1-7.8-3.1-11.1c-1.7-5.5-2.8-9.2-3.2-11.1&#xA;&#x9;&#x9;c-0.5-2.3-1.8-7.2-3.8-14.6c-0.1-0.2-0.2-0.5-0.4-0.7l-0.2-0.2c-0.1-0.1-0.1-0.1-0.1-0.2c0-1.6-0.5-3-1.3-4.2&#xA;&#x9;&#x9;c-0.1-0.1-0.1-0.2-0.1-0.2c0,0,0,0,0,0c0,0,0,0,0,0c0,0,0-0.1,0-0.1c0,0,0-0.1,0-0.1c0,0,0,0,0-0.1c0,0,0,0,0.1-0.1c0,0,0,0,0,0&#xA;&#x9;&#x9;c0,0,0,0,0,0c0.1,0,0.2-0.1,0.3-0.1l50.7-0.4l93.6,0.2l34.7,0.1c2.2-1.6,2.3-2.6,0.4-3c-1.3-0.3-3.5-0.3-6.7,0l-176.1,0.2&#xA;&#x9;&#x9;c-0.1,0-0.2,0-0.3,0c0,0,0,0,0,0c-0.1,0-0.1,0.1-0.2,0.1c0,0-0.1,0-0.1,0.1c0,0-0.1,0.1-0.1,0.1c0,0-0.1,0.1-0.1,0.1&#xA;&#x9;&#x9;c0,0,0,0.1,0,0.1c0,0.1,0,0.1,0,0.2c0,0.1,0,0.2,0,0.3c3,9.1,6,19.2,8.8,30.2c2.8,10.8,5.3,22.3,13.6,29&#xA;&#x9;&#x9;C709.7,556.4,709.8,556,709.4,555.8z"></path>
&#x9;<path class="st5" d="M190.6,501.7c0.1,0.3,0.3,0.5,0.6,0.5c15.7,0.4,28.4,0,44.5,0.2c10.1,0.1,20.8,0.1,32.4,0c1,0,3.2,0.2,6.5,0.7&#xA;&#x9;&#x9;l12-1.5l0.8-2c-14.7-0.5-24.6-0.8-29.8-0.7c-22.4,0.4-44.8,0.5-67.2,0.5C190.4,500.2,190.4,501,190.6,501.7z"></path>
&#x9;<path class="st10" d="M294.8,501.5c0,0,0.1,0,0.1,0.1c0,0,0,0,0,0c0,0,0,0,0,0c0,0,0,0,0,0c0,0,0,0,0,0c0,0,0,0.1-0.1,0.1&#xA;&#x9;&#x9;c-10.6,5.9-19.8,12.3-27.8,21.1c-9.1,9.9-17.5,20.9-25.3,32.9c13.3,0,25.8,1.6,38.8,2.8c-3.6-0.2-7-0.2-10-0.2c0,0,0,0,0,0&#xA;&#x9;&#x9;c0,0,0,0,0,0c0,0,0,0,0,0v0.2c0,0,0,0,0,0c0,0,0,0.1,0,0.1c0,0,0,0.1,0,0.1c0,0,0.1,0,0.1,0c0,0,0.1,0,0.1,0&#xA;&#x9;&#x9;c12.5-0.3,25.1-0.5,37.7-0.7c2.2,0,5.1-0.4,8.8-1.1c-3.6-1-7.4-1.4-11.3-1.3c0,0,0,0,0,0l0,0c4.9-0.2,9.7-0.6,14.5-1&#xA;&#x9;&#x9;c5.2-2.2,9-6,11.6-11.5c0.4,1.1,0.3,2.7-0.6,4.6c-2,4.5-5.5,6.8-10.1,7.9c-0.1,0-0.1,0.1-0.1,0.1c0,0,0,0.1,0,0.1c0,0,0,0.1,0,0.1&#xA;&#x9;&#x9;c0,0.1,0,0.1,0.1,0.1c0.1,0.1,0.2,0.1,0.5,0.2c0.2,0,0.2,0.2-0.2,0.5c-0.1,0.1-0.1,0.1,0,0.1c5.4-1.6,8.8-3.6,11.1-9.4&#xA;&#x9;&#x9;c0.2-0.5,0.7-0.8,1.2-0.6l0,0c0,0,0.1,0,0.1,0.1c0,0,0,0,0.1,0.1c0,0,0.1,0.1,0.1,0.1c0,0,0.1,0.1,0.1,0.1c0,0,0.1,0.1,0.1,0.1&#xA;&#x9;&#x9;c0,0,0,0.1,0,0.1c0,0.1,0,0.1,0,0.2c0,0.1,0,0.1,0,0.2c0,0,0,0.1,0,0.1c0,0,0,0.1-0.1,0.1c-3.3,6.5-8.6,9.6-16.2,9.3&#xA;&#x9;&#x9;c4.3,1.3,8.5,1.1,12.6-0.4c0.3-0.1,0.6-0.3,0.8-0.6c1.3-1.8,2.2-3.5,2.6-5.3c1.9-7.5,3.5-13.1,4.8-17c2.4-6.9,4.3-14.5,5.9-22.7&#xA;&#x9;&#x9;c0.2-1.2,1.2-2.4,1.2-3.5c0-0.7,0.2-1.6,0.7-2.7c0.8-1.8,1.3-3.6,1.7-5.4c0,0,0-0.1,0-0.1c0,0,0,0,0-0.1c0,0,0-0.1,0-0.1&#xA;&#x9;&#x9;c0,0,0-0.1,0-0.1c0,0,0-0.1-0.1-0.1c0,0-0.1-0.1-0.1-0.1c0,0-0.1,0-0.1-0.1c0,0-0.1,0-0.1,0c-0.1,0-0.1,0-0.2,0&#xA;&#x9;&#x9;c-6.3-0.2-12.8,0.3-18.9,0.1c-13.8-0.5-27.7-0.4-41.5,0.3l-0.8,2L294.8,501.5z"></path>
&#x9;<path class="st5" d="M741.1,500.8C741.1,500.9,741.2,500.9,741.1,500.8c0,0.1,0,0.1,0,0.1c0,0,0,0,0,0.1c0,0,0,0,0,0.1&#xA;&#x9;&#x9;c0,0,0,0,0.1,0c0,0,0,0,0.1,0c0,0,0.1,0,0.1,0l10,0.6l14.7,1.5c4.8-0.9,9-1.3,12.5-1.2c10.9,0.3,21.8,0.4,32.9,0.4l25-0.2&#xA;&#x9;&#x9;c0,0,0.1,0,0.1,0c0,0,0,0,0,0c0,0,0,0,0,0c0,0,0,0,0.1,0c0,0,0,0,0-0.1c0,0,0,0,0-0.1c0,0,0-0.1,0-0.1c0,0,0,0,0,0c0,0,0-0.1,0-0.1&#xA;&#x9;&#x9;c-0.4-0.9-0.9-1.7-1.7-2.4l-93.6-0.2l-0.5,1.6C741.1,500.7,741.1,500.8,741.1,500.8z"></path>
&#x9;<path class="st10" d="M720.7,557.1c-0.1,0-0.1-0.1-0.1-0.1c0,0,0,0,0-0.1c0,0,0-0.1,0-0.1c0,0,0,0,0,0c0,0,0,0,0-0.1&#xA;&#x9;&#x9;c0,0,0-0.1,0-0.1c0,0,0-0.1,0-0.1c0,0,0,0,0-0.1c0,0,0,0,0,0c0,0,0.1-0.1,0.1-0.1c0,0,0,0,0,0c0.1,0,0.1-0.1,0.2-0.1&#xA;&#x9;&#x9;c11.5-1.3,25.6-0.2,36.2-0.6c13.1-0.5,27.5-0.4,41.3-0.9c-10.1-11.8-19.4-20.4-31.9-31.6c-2.4-2.1-5.3-5-8.6-8.8&#xA;&#x9;&#x9;c-3.3-3.7-5.5-7.9-6.5-12.5l-10-0.6c0,0-0.1,0-0.1,0c0,0,0,0,0,0c0,0,0,0-0.1,0c0,0,0,0-0.1,0c0,0,0,0,0-0.1c0,0,0,0,0-0.1&#xA;&#x9;&#x9;c0,0,0,0,0-0.1c0,0,0-0.1,0-0.1c0,0,0-0.1,0-0.1l0.5-1.6l-50.7,0.4c-0.1,0-0.2,0-0.3,0.1c0,0,0,0,0,0c0,0,0,0,0,0c0,0,0,0-0.1,0.1&#xA;&#x9;&#x9;c0,0,0,0,0,0.1c0,0,0,0.1,0,0.1c0,0,0,0.1,0,0.1c0,0,0,0,0,0.1c0,0.1,0,0.2,0.1,0.2c0.9,1.2,1.3,2.6,1.3,4.2c0,0.1,0,0.2,0.1,0.2&#xA;&#x9;&#x9;l0.2,0.2c0.2,0.2,0.3,0.4,0.4,0.7c2,7.4,3.2,12.3,3.8,14.6c0.4,1.9,1.5,5.6,3.2,11.1c1.1,3.3,2.1,7,3.1,11.1&#xA;&#x9;&#x9;c1.3,5.4,3.6,9.9,6.7,13.5c8.4,4.2,16.9,3.5,25.7,2.8c-4.2-0.1-8.4-0.5-12.6-1C721.7,557.5,721.1,557.3,720.7,557.1z"></path>
&#x9;<path class="st9" d="M644,523.9c-0.6-4.9-2.1-9.5-4.4-13.8c-6.5-2.5-11.8-4.2-15.9-5c-11.6-2.5-22.6,1.4-27.8,12.6&#xA;&#x9;&#x9;c-2.2,4.7-3.9,10.5-5,17.3l2,10.1c0,0.1,0,0.1,0,0.2c0.3,6.8,0.7,14.6,0.6,21.8c-0.2,20.5-0.5,47.7-0.1,72.1l0.8-5.6&#xA;&#x9;&#x9;c0-0.1,0-0.1,0.1-0.2c0,0,0,0,0,0c0,0,0.1-0.1,0.1-0.1c0,0,0,0,0,0c0,0,0,0,0,0c0,0,0.1,0,0.1,0c0,0,0,0,0.1,0c0,0,0,0,0,0&#xA;&#x9;&#x9;c0,0,0,0,0,0c0.1,0,0.1,0,0.2,0.1c0,0,0,0,0,0c0,0,0.1,0.1,0.1,0.2c1.5,5.4,0.8,10.2,0.8,15.3c0.1,7.5,0.2,15,0.3,22.6&#xA;&#x9;&#x9;c1.4-1.5,3-2.7,4.1-4.2c2.4-3.3,5.1-6.5,8.3-9.5c0.2-0.2,0.4-0.5,0.6-0.7c1.8-2.3,5.6-7.7,7.9-11.9c0.6-1.1,1.7-2.9,3.4-5.3&#xA;&#x9;&#x9;c1.3-1.9,3.4-5.6,6.4-11.1c2.8-5,4.2-9.9,6.7-14.7c0.8-1.5,1.7-3.5,2.7-5.9c4.8-11.8,9.2-25.5,10-38.3c0-0.3,0.1-0.6,0.2-1&#xA;&#x9;&#x9;c0.5-1.9,0.8-3.9,1-6.1c0.5-8.4,0.3-17.1-0.5-26C644.5,532.2,643.5,527.9,644,523.9z"></path>
&#x9;<path class="st9" d="M450.5,517c-1.6-1-4.3-3.1-8.1-6.1c-2.6-2.1-6.1-3.8-10.5-5.3c-6.3-2.1-12.8-0.9-18.5,2&#xA;&#x9;&#x9;c-5.7,2.9-11.3,6.3-16.9,10.2c-0.8,7.2-2.4,14.4-4.8,21.7c-0.3,1.1-0.8,3.1-1.2,6.1c-0.5,10.2,0,18.3,1.5,24.4&#xA;&#x9;&#x9;c2.2,9.1,3.7,17.1,6,24.5c2.9,9.3,6.1,18,9.8,26.1c1.2,2.8,3.5,6.6,6.9,11.6c3,4.5,5.5,9.5,8.4,14.3c3.4,5.7,7.5,10.9,12.2,15.6&#xA;&#x9;&#x9;c0.2,0.2,0.3,0.3,0.5,0.4c1.5,1,2.4,1.9,2.9,2.6c1.2,2,2.5,3.9,4.1,5.8l0.8-63.5c0-0.4,0.3-0.7,0.7-0.7h0.3c0.2,0,0.4,0.2,0.4,0.4&#xA;&#x9;&#x9;l0.3,11.4l0.4-22.5c0.4-7.8,0.3-18.3-0.3-31.4c-0.4-9.1,0.4-19.1,2.3-30.2c0-0.1,0-0.1,0-0.2l5.4-15.3l-0.3-6.3&#xA;&#x9;&#x9;C452.7,514.3,451.9,515.7,450.5,517z"></path>
&#x9;<path class="st13" d="M294.8,501.7c0,0,0.1-0.1,0.1-0.1c0,0,0,0,0,0c0,0,0,0,0,0c0,0,0,0,0,0c0,0-0.1-0.1-0.1-0.1l-8.1,0.2l-12,1.5&#xA;&#x9;&#x9;c-14.6,2.4-29,5.3-43.3,8.5c-2.5,0.6-5,1.3-7.5,2.1l-3.3,0.9c0.1,4.7-1.6,8.6-5.1,11.7c-5.7,5-14.6,10.6-18.4,19.3&#xA;&#x9;&#x9;c-2.2,5.2-0.5,8.4,5.1,9.8c3.8,0.9,8.9,1.3,15.1,1.2c8-0.9,16.1-1.3,24.3-1c7.8-12,16.2-22.9,25.3-32.9&#xA;&#x9;&#x9;C275,514,284.3,507.6,294.8,501.7z"></path>
&#x9;<path class="st13" d="M806.1,511.8l-40-8.5l-14.7-1.5c1,4.7,3.1,8.9,6.5,12.5c3.3,3.7,6.2,6.6,8.6,8.8&#xA;&#x9;&#x9;c12.6,11.1,21.8,19.8,31.9,31.6l0.7,1c10.6-0.1,21.3,0.1,31.9-2.1c3.3-0.7,5.6-2.2,6.9-4.5c2.6-4.6-2.9-11-6-14.1&#xA;&#x9;&#x9;c-6.8-6.6-13.8-12-17.4-21.6C811.8,512.6,809,512,806.1,511.8C806.2,511.8,806.1,511.8,806.1,511.8z"></path>
&#x9;<path class="st8" d="M843.3,521.9c-7.9-2.6-14.7-5.2-20.5-7.7c-3.7-1.6-7.6-2.4-11.5-3.4c-0.3-0.1-0.5-0.3-0.6-0.6&#xA;&#x9;&#x9;c-0.5-2.5-0.2-5.2,0.7-7.8c-11,0-22-0.1-32.9-0.4c-3.5-0.1-7.7,0.3-12.5,1.2l40,8.5c0,0,0.1,0,0.1,0c2.8,0.2,5.6,0.8,8.3,1.6&#xA;&#x9;&#x9;c6.7,2.3,13.4,4.9,20,7.7c2,0.8,3.4,1.4,4.3,1.6c5.6,1.6,9.7,4,15.3,6.4c3.1,1.3,6.2,2.8,9.5,4.6c10.1,5.6,20.2,11.7,30.2,18.2&#xA;&#x9;&#x9;c2.9,1.9,6,4.4,9.4,7.6c3.4,3.2,7,6.4,10.6,9.7c-2.4-6.1-6.7-11.1-12.8-15.2c-2.4-1.6-4.8-3.1-7.2-4.7c-2.1-1.3-4.3-3.1-6.8-5.2&#xA;&#x9;&#x9;c-3-2.6-5.5-4.4-7.5-5.4c-0.8-0.4-2.5-0.9-5.1-1.7c-5.7-3.3-12.1-6.2-17-8.8C852.3,525.4,847.6,523.4,843.3,521.9z"></path>
&#x9;<path class="st7" d="M223.4,512.2c-0.1-0.3-0.4-0.4-0.6-0.3L213,515c-0.1,0-0.2,0.1-0.3,0.1c-3.2,1.7-5.1,2.7-7.9,3.6&#xA;&#x9;&#x9;c-5.6,1.9-15.8,4.5-22.2,8.5c-3.3,2.1-6,3.6-8.3,4.7c-3.2,1.5-6.5,3-9.7,4.4l-5.5,1.3c-0.6,0.2-1.2,0.5-1.6,0.9&#xA;&#x9;&#x9;c-3.9,4-8.2,7.8-12.9,11.3c-1.3,1-3.1,2-5.5,2.9c-0.3,0.1-0.6,0.3-0.9,0.5c-4,2.8-6,5.7-6,8.9c5.4-4.7,10.9-9.5,16.9-13&#xA;&#x9;&#x9;c4.1-2.3,6.9-4.9,11.1-7c5.2-2.7,10.3-6.4,14.7-8.3c5.4-2.4,10.2-5.2,16.2-7.6c5.4-2.1,10.7-4.2,16-6.3c4.5-1.8,9-3.5,13.5-5.2&#xA;&#x9;&#x9;l3.3-0.9L223.4,512.2z"></path>
&#x9;<path class="st8" d="M645,523.4c0.2,1.6,0.5,3.1,1.1,4.6c0.5,1.3,1.4,1.6,2.9,0.8l-4.2-15.7C643.7,516.5,643.8,519.9,645,523.4z"></path>
&#x9;<path class="st14" d="M957.3,649.1c-0.7-1.1-1.2-2.4-1.5-3.8c-2.4-8.9-5.6-18.3-9.5-28.2c-4.1-10.2-11.2-20.4-17.2-29.4&#xA;&#x9;&#x9;c-2.7-4.1-7.8-10.2-15.3-18.5c-3.6-3.2-7.2-6.5-10.6-9.7c-3.4-3.2-6.6-5.7-9.4-7.6c-10-6.6-20.1-12.6-30.2-18.2&#xA;&#x9;&#x9;c-3.3-1.8-6.4-3.3-9.5-4.6c-5.6-2.4-9.7-4.8-15.3-6.4c-0.9-0.3-2.3-0.8-4.3-1.6c-6.6-2.8-13.2-5.4-20-7.7&#xA;&#x9;&#x9;c3.7,9.6,10.6,15,17.4,21.6c3.2,3.1,8.6,9.5,6,14.1c-1.3,2.3-3.6,3.8-6.9,4.5c-10.6,2.3-21.3,2.1-31.9,2.1&#xA;&#x9;&#x9;c-4.3,0.2-8.6,0.6-12.8,1.4c-4.1,0.7-7.5,1.1-10.2,1.2c-13.7,0.4-27.4,0.6-41.1,0.4c-8.8,0.7-17.4,1.4-25.7-2.8&#xA;&#x9;&#x9;c0.4,0.2,0.3,0.6-0.3,1.2c3.5,2.3,7.7,3.4,12.7,3.3c19.5-0.4,45.2-0.5,77-0.2c24.4,0.2,48.7,0.3,73,0.3c5.5-5.9,15.2-6.4,22.1-2.3&#xA;&#x9;&#x9;c3.9,2.3,6.6,5.5,8.2,9.7c0.7,1.9,1,4.6,0.8,8c-0.1,2.3,0,5,0.3,8.1c0.4,3.7,0.3,7.6,0,11.5c-0.2,2.2,0.3,5.1,0.1,8&#xA;&#x9;&#x9;c-0.4,5.6-0.4,11.3-0.2,17c17.7,6.9,33.8,18.5,44.6,34.1c2.1,3.1,4.7,7.4,7.7,12.8c0.2,0.3,0.3,0.6,0.3,1c0.2,4.2,0.3,7.4,1.1,12.3&#xA;&#x9;&#x9;c1.1,6.9,0.8,13.5-0.9,20l3.1-2.1l0-42.5l-1.8-6.7C957.3,649.3,957.3,649.2,957.3,649.1z"></path>
&#x9;<path class="st14" d="M135.3,695.8c0,1-0.7,1.8-1.7,2c-6.5,1.2-13.2,1.3-19.7,1.2c-0.9,0-4.1,0.1-9.7,0.4&#xA;&#x9;&#x9;c-5.3,0.3-10.4,0.2-15.2-0.4c-2.7-0.3-5.2-1.2-7.3-2.8c-0.2-0.2-0.4-0.4-0.4-0.7V686c0-0.2,0-0.3,0.1-0.5&#xA;&#x9;&#x9;c6.9-12.3,15.8-25.5,26.8-39.5c7.4-9.4,14.2-17.9,27-18.1c-0.1-8.1,0.4-16.7,0.1-24.1c-0.3-7.3-0.4-15.9-0.5-26&#xA;&#x9;&#x9;c0-7.6,1.6-13.9,8-18.3c4.2-2.9,8.8-4.2,13.6-4.1c4.5,0.2,11.4,2.8,16.2,2.8c23.6-0.5,37.4-0.7,41.4-0.6c8.6,0.3,16.3,0.3,23.2,0.1&#xA;&#x9;&#x9;v0c0,0,0,0,0,0c-6.5-0.1-13.5,0.4-19.8-1c-6.3,0.1-11.3-0.3-15.1-1.2c-5.7-1.4-7.4-4.6-5.1-9.8c3.7-8.6,12.7-14.2,18.4-19.3&#xA;&#x9;&#x9;c3.5-3,5.1-6.9,5.1-11.7c-4.5,1.7-9,3.4-13.5,5.2c-5.3,2.1-10.6,4.2-16,6.3c-6.1,2.4-10.9,5.2-16.2,7.6c-4.3,1.9-9.4,5.6-14.7,8.3&#xA;&#x9;&#x9;c-4.2,2.2-7,4.7-11.1,7c-6,3.5-11.4,8.3-16.9,13c-1.7,2-3.8,3.9-6.3,5.7c-0.4,0.3-0.7,0.6-1,0.9c-3.2,3.5-5.8,6.5-7.7,9&#xA;&#x9;&#x9;c-3.1,3.9-7.1,7.7-9.6,11.8c-4.7,7.7-8.9,13.3-12.3,20.8c-0.2,0.4-1.6,3.7-4.2,10.1c-2,4.8-4.4,10.8-7.3,18c0,0.1-0.1,0.1-0.2,0.2&#xA;&#x9;&#x9;c0,0,0,0,0,0c0,0-0.1,0-0.1,0c0,0-0.1,0-0.1,0c0,0,0,0,0,0c-0.1,0-0.1-0.1-0.2-0.2c-0.3-0.5-0.6-0.8-0.8-0.6c0,0-0.1,0-0.1,0&#xA;&#x9;&#x9;c0,0,0,0,0,0c0,0-0.1,0-0.1,0c0,0-0.1,0-0.1,0c0,0-0.1,0-0.1,0c0,0-0.1,0-0.1,0c0,0,0,0-0.1-0.1c0,0,0,0-0.1-0.1c0,0,0,0,0,0&#xA;&#x9;&#x9;c0,0,0-0.1,0-0.1c-0.3-2.5-0.4-4.2-0.4-5.2c0.1-3.1-0.1-7-0.6-11.8c-0.6-6.2,0.6-13.2,0.3-19.7c-0.3-8.1-0.5-14.3-0.4-22.3&#xA;&#x9;&#x9;c0.3-12.5,0.5-25,0.6-37.4c0.3-1.4,0.3-2.7,0-3.9c0-0.1-0.1-0.2-0.2-0.2c-0.1,0-0.2,0.1-0.2,0.2l-1.1,6.8c0,20.4-0.7,42.9-0.6,61.2&#xA;&#x9;&#x9;c0.1,9.6,0.1,19.4,0.1,29.3c0,2.8,0.4,7.1,0.3,10.3c-0.4,19.5-0.5,38.3-0.2,56.4c0,0.7,0.6,1.3,1.3,1.3c16.3,0.1,33.6,0.1,51.9-0.1&#xA;&#x9;&#x9;c1.6,0,3-0.5,4.2-1.4c3.1-2.3,5-5,5.8-8.1l-6.9-7.9L135.3,695.8z"></path>
&#x9;<path class="st12" d="M138.2,553.4c0.3-0.2,0.6-0.4,0.9-0.5c2.3-0.9,4.2-1.9,5.5-2.9c4.7-3.5,9-7.3,12.9-11.3&#xA;&#x9;&#x9;c0.5-0.5,1-0.8,1.6-0.9l5.5-1.3l-1.9,0.2c-0.3,0-0.6-0.1-0.8-0.3l-16.8-18.7c-14.2,3.5-25.6,4.6-38.7,6.2&#xA;&#x9;&#x9;c-10.4,1.2-18.6,6.1-24.5,14.6l-0.4,2.7c-0.1,12.5-0.3,24.9-0.6,37.4c-0.2,8,0.1,14.3,0.4,22.3c0.2,6.5-1,13.5-0.3,19.7&#xA;&#x9;&#x9;c0.5,4.7,0.7,8.7,0.6,11.8c0,1,0.1,2.7,0.4,5.2c0,0,0,0.1,0,0.1c0,0,0,0,0,0c0,0,0,0.1,0.1,0.1c0,0,0,0,0.1,0.1c0,0,0,0,0.1,0&#xA;&#x9;&#x9;c0,0,0,0,0.1,0c0,0,0.1,0,0.1,0c0,0,0.1,0,0.1,0c0.1,0,0.1,0,0.2,0c0.3-0.1,0.6,0.1,0.8,0.6c0,0.1,0.1,0.1,0.2,0.2c0,0,0,0,0,0&#xA;&#x9;&#x9;c0,0,0.1,0,0.1,0c0,0,0.1,0,0.1,0c0.1,0,0.1-0.1,0.2-0.2c2.9-7.2,5.3-13.2,7.3-18c2.6-6.4,4-9.8,4.2-10.1&#xA;&#x9;&#x9;c3.4-7.5,7.6-13.1,12.3-20.8c2.5-4,6.5-7.8,9.6-11.8c1.9-2.5,4.5-5.4,7.7-9c0.3-0.3,0.6-0.6,1-0.9c2.5-1.8,4.6-3.8,6.3-5.7&#xA;&#x9;&#x9;C132.1,559.1,134.1,556.1,138.2,553.4z"></path>
&#x9;<path class="st5" d="M649,528.8c-1.5,0.8-2.4,0.5-2.9-0.8c-0.5-1.5-0.9-3.1-1.1-4.6l-0.3,2.2l2.2,11c0.8,8.9,1,17.6,0.5,26&#xA;&#x9;&#x9;c1.2,1.5,1.8,3.3,1.8,5.5c0.1,3.7-0.7,8.4-0.6,12.3c0.2,11.6,0.3,20.3,0.2,25.9c-0.1,8.1-0.1,13.9,0.2,17.5&#xA;&#x9;&#x9;c0.5,7.6,0.1,16.3,0.2,23.4c0.2,20.6,0.3,33,0.3,37.2c0,5.6,0.2,10.6,0.6,15.2c0.4,0.6,0.6,1.1,0.5,1.4c-0.3,1-1.2,1.6-2.2,1.6&#xA;&#x9;&#x9;c-1.5-0.1-3.1,0-4.9,0l6.5,0.1c0,0,0.1,0,0.1,0c0,0,0.1,0,0.1,0c0.1,0,0.1,0,0.2,0c0.1,0,0.1,0,0.2-0.1c0.1,0,0.1,0,0.2-0.1&#xA;&#x9;&#x9;c0.1,0,0.1-0.1,0.2-0.1c0.1,0,0.1-0.1,0.2-0.1c0.1,0,0.1-0.1,0.1-0.1c0,0,0.1-0.1,0.1-0.1c0,0,0.1-0.1,0.1-0.1c0,0,0.1-0.1,0.1-0.1&#xA;&#x9;&#x9;c0-0.1,0.1-0.1,0.1-0.2c0-0.1,0.1-0.1,0.1-0.2c0-0.1,0-0.1,0.1-0.2c0-0.1,0-0.1,0-0.2c0-0.1,0-0.1,0-0.2c0-0.1,0-0.2,0-0.3&#xA;&#x9;&#x9;c0-1.2-0.1-2.4-0.1-3.8c-0.1-20.4-0.1-35.5-0.2-45.5c-0.1-10.9,0.1-26,0.4-45.5c0.3-19.4,0.3-37.4-0.1-54&#xA;&#x9;&#x9;C652,544.8,650.9,537.1,649,528.8z"></path>
&#x9;<path class="st7" d="M647,536.6l-2.2-11c-0.2-0.8-0.4-1.3-0.8-1.7C643.5,527.9,644.5,532.2,647,536.6z"></path>
&#x9;<path class="st13" d="M387.6,594.3c0.2,0,0.3-0.2,0.3-0.4l0.6-17.8c0,0,0,0,0,0c0,0,0-0.1,0-0.1c0,0,0-0.1,0-0.1c0,0,0,0,0,0&#xA;&#x9;&#x9;c0,0,0-0.1,0.1-0.1c0,0,0,0,0.1,0c0,0,0,0,0.1,0c0,0,0.1,0,0.1,0c0,0,0,0,0.1,0c0,0,0,0,0,0l0.3,0c0.1,0,0.3,0.1,0.3,0.3&#xA;&#x9;&#x9;c0,4.6,0.7,9.8,0.7,14.7c0,3.7,0.1,14,0.3,30.9c0.1,5.6-0.3,12-0.9,19.3c-0.4,4.6-0.6,9.1-0.4,13.4c0.1,2.8,0.2,7.4,0.2,13.8&#xA;&#x9;&#x9;c0,0.1,0,4.2,0.1,12.4c0,6.2-0.2,12.3-0.7,18.5c2.5,0.8,4.4,1.2,5.7,1.2c9.7-0.4,20.4-0.6,32.2-0.4c6,0.1,11.8-0.9,17.4-2.9&#xA;&#x9;&#x9;c0.3-0.1,0.5-0.4,0.6-0.7c2.3-7.1,2.1-14.9,1.9-22.9c-0.2-5.6-0.2-11.3-0.2-17.3c0-4.4-0.7-9.1-0.7-13.7&#xA;&#x9;&#x9;c0.1-15.7,0.7-30.7,0.2-46.1l-0.4,22.5c0.4,17-0.3,32.9,0.7,51.1c0,0.7-0.1,1.8-0.3,3.4c-0.1,0.4-0.1,0.8-0.1,1.2&#xA;&#x9;&#x9;c0.3,5.6,0,10.9-0.8,15.9c0,0.1,0,0.1-0.1,0.2c0,0,0,0,0,0.1c0,0,0,0.1-0.1,0.1c0,0,0,0,0,0c0,0-0.1,0-0.1,0c0,0,0,0-0.1,0&#xA;&#x9;&#x9;c0,0-0.1,0-0.1,0c0,0-0.1,0-0.1,0c0,0,0,0,0,0c0,0-0.1,0-0.1,0c0,0,0,0-0.1,0c-0.1,0-0.1-0.1-0.1-0.1c-0.2-0.2-0.3-0.6-0.3-1.2&#xA;&#x9;&#x9;c-0.6-6.1-0.9-12.3-1-18.3c-1.6-1.9-3-3.9-4.1-5.8c-0.4-0.7-1.4-1.6-2.9-2.6c-0.2-0.1-0.3-0.3-0.5-0.4c-4.7-4.7-8.8-9.9-12.2-15.6&#xA;&#x9;&#x9;c-2.8-4.8-5.3-9.8-8.4-14.3c-3.3-4.9-5.6-8.8-6.9-11.6c-3.6-8.1-6.9-16.8-9.8-26.1c-2.3-7.4-3.9-15.4-6-24.5&#xA;&#x9;&#x9;c-1.5-6.1-2-14.2-1.5-24.4c0-2.8,0.2-8-2-10c-1.2,7-1.8,13.6-1.9,19.8c-0.1,9.1-0.1,20.8,0,35l0.6,3.4&#xA;&#x9;&#x9;C387.3,594.2,387.5,594.3,387.6,594.3z"></path>
&#x9;<path class="st12" d="M332,543.3c-2.6,5.5-6.5,9.3-11.6,11.5C327,553.4,330.8,549.6,332,543.3z"></path>
&#x9;<path class="st8" d="M334.4,548.1c0,0,0-0.1,0.1-0.1c0,0,0-0.1,0-0.1c0-0.1,0-0.1,0-0.2c0-0.1,0-0.1,0-0.2c0-0.1,0-0.1,0-0.1&#xA;&#x9;&#x9;c0,0,0-0.1-0.1-0.1c0,0-0.1-0.1-0.1-0.1c0,0-0.1-0.1-0.1-0.1c-0.1,0-0.1-0.1-0.2-0.1l0,0c-0.5-0.2-1.1,0.1-1.2,0.6&#xA;&#x9;&#x9;c-2.2,5.7-5.6,7.7-11.1,9.4c-0.1,0-0.1,0,0-0.1c0.3-0.3,0.4-0.5,0.2-0.5c-0.2,0-0.4-0.1-0.5-0.2c0,0-0.1-0.1-0.1-0.1c0,0,0,0,0,0&#xA;&#x9;&#x9;c0,0,0-0.1,0-0.1c0,0,0-0.1,0-0.1c0,0,0.1-0.1,0.1-0.1c4.6-1.1,8.1-3.4,10.1-7.9c0.8-1.9,1-3.5,0.6-4.6c-1.1,6.3-5,10.2-11.6,11.5&#xA;&#x9;&#x9;c-4.8,0.4-9.7,0.8-14.5,1l0,0c0,0,0,0,0,0c3.9-0.1,7.7,0.3,11.3,1.3c0.3,0.2,0.6,0.3,1,0.3C325.7,557.7,331.1,554.6,334.4,548.1z"></path>
&#x9;<path class="st8" d="M757.1,555.6c-10.6,0.4-24.7-0.7-36.2,0.6c-0.1,0-0.1,0-0.2,0.1c0,0,0,0,0,0c0,0-0.1,0.1-0.1,0.1c0,0,0,0,0,0&#xA;&#x9;&#x9;c0,0,0,0,0,0.1c0,0,0,0.1,0,0.1c0,0,0,0.1,0,0.1c0,0,0,0.1,0,0.1c0,0,0,0.1,0,0.1c0,0,0,0,0,0.1c0,0.1,0.1,0.1,0.1,0.1&#xA;&#x9;&#x9;c0.4,0.2,0.9,0.4,1.7,0.5c4.2,0.5,8.4,0.9,12.6,1c13.7,0.2,27.4,0.1,41.1-0.4c2.7-0.1,6.1-0.5,10.2-1.2c4.2-0.7,8.4-1.2,12.8-1.4&#xA;&#x9;&#x9;l-0.7-1C784.6,555.1,770.3,555.1,757.1,555.6z"></path>
&#x9;<path class="st1" d="M910.1,700.1c-2.9,0-4.8-0.2-5.4-0.4c-3.1-1.1-2.2-8.1-1.7-10.5c0-0.2,0.1-0.5,0.1-0.7l0.1-68.1&#xA;&#x9;&#x9;c-0.2-5.7-0.2-11.4,0.2-17c0.2-2.9-0.3-5.8-0.1-8c0.4-3.9,0.4-7.7,0-11.5c-0.3-3.2-0.4-5.9-0.3-8.1c0.1-3.5-0.2-6.2-0.8-8&#xA;&#x9;&#x9;c-1.5-4.1-4.2-7.3-8.2-9.7c-6.9-4.1-16.6-3.7-22.1,2.3c5.4,0,10.8,0.1,16.1,0.3c7.4,0.2,8,4.9,8,11c0,74.7,0.1,114.7,0.1,120&#xA;&#x9;&#x9;c0,4,2.9,6.6,5.3,9.2c1.2,1.3,3.2,1.6,5.1,1.6c13.9,0.1,31.3,0.1,52,0.1c0.4,0,0.7-0.3,0.7-0.7v-3.3l-3.1,2.1&#xA;&#x9;&#x9;C940.4,700.5,925.1,700.3,910.1,700.1z"></path>
&#x9;<path class="st13" d="M646.3,569.7c-0.8,12.8-5.2,26.5-10,38.3c-1,2.4-1.9,4.4-2.7,5.9c-2.5,4.8-4,9.7-6.7,14.7&#xA;&#x9;&#x9;c-3,5.5-5.2,9.2-6.4,11.1c-1.6,2.4-2.7,4.2-3.4,5.3c-2.3,4.2-6.1,9.6-7.9,11.9c-0.2,0.2-0.4,0.5-0.6,0.7c-3.2,3-5.9,6.2-8.3,9.5&#xA;&#x9;&#x9;c-1.1,1.5-2.7,2.7-4.1,4.2c0,4.6-0.5,9.1-1.4,13.6c0,0.1,0,0.1-0.1,0.2c0,0,0,0,0,0.1c0,0-0.1,0.1-0.1,0.1c0,0,0,0-0.1,0&#xA;&#x9;&#x9;c0,0-0.1,0-0.1,0c0,0-0.1,0-0.1,0c0,0,0,0-0.1,0c0,0,0,0,0,0c0,0,0,0-0.1,0c0,0,0,0-0.1,0c0,0-0.1,0-0.1,0c0,0-0.1,0-0.1-0.1&#xA;&#x9;&#x9;c0,0,0,0-0.1-0.1c0,0-0.1-0.1-0.1-0.1c0,0,0,0,0-0.1c0-0.1,0-0.1,0-0.2l-0.1-8.7c-0.5,5.3-0.9,10.6-1.2,15.9&#xA;&#x9;&#x9;c-0.2,3.1,0.3,5.9,1.3,8.5c0.2,0.5,0.7,0.8,1.3,0.8c10.1-0.8,19.8-0.9,29.1-0.2c6,0.4,11,0.3,18.1,0.3c2.9,0,5.6-0.6,8.1-1.8&#xA;&#x9;&#x9;c-0.4-4.6-0.6-9.7-0.6-15.2c0-4.2-0.1-16.6-0.3-37.2c-0.1-7,0.3-15.7-0.2-23.4c-0.2-3.6-0.3-9.4-0.2-17.5c0.1-5.6,0-14.3-0.2-25.9&#xA;&#x9;&#x9;c-0.1-4,0.8-8.7,0.6-12.3c-0.1-2.2-0.7-4-1.8-5.5c-0.2,2.2-0.6,4.3-1,6.1C646.4,569,646.3,569.3,646.3,569.7z"></path>
&#x9;<path class="st5" d="M389.4,680.5c-0.1-8.2-0.1-12.3-0.1-12.4c0-6.4,0-11-0.2-13.8c-0.2-4.4-0.1-8.8,0.4-13.4&#xA;&#x9;&#x9;c0.7-7.3,1-13.7,0.9-19.3c-0.2-16.9-0.3-27.2-0.3-30.9c0-4.9-0.7-10.1-0.7-14.7c0-0.1-0.1-0.3-0.3-0.3l-0.3,0c0,0,0,0,0,0&#xA;&#x9;&#x9;c0,0,0,0-0.1,0c0,0-0.1,0-0.1,0c0,0-0.1,0-0.1,0c0,0,0,0-0.1,0c0,0,0,0.1-0.1,0.1c0,0,0,0,0,0c0,0,0,0.1,0,0.1c0,0,0,0.1,0,0.1&#xA;&#x9;&#x9;L388,594c0,0.2-0.1,0.4-0.3,0.4c-0.2,0-0.4-0.1-0.4-0.3l-0.6-3.4c-0.1,15.6-0.1,31.2,0.9,46.8c0.3,4.9,0.4,11.5,0.2,19.7&#xA;&#x9;&#x9;c-0.2,12,0.1,20-0.4,31.6c-0.2,4.7-0.3,9.1-0.2,13.2c0,0.4,0.3,0.6,0.9,0.6l0.6-3.4C389.2,692.9,389.5,686.7,389.4,680.5z"></path>
&#x9;<path class="st5" d="M444.6,606.9h-0.3c-0.4,0-0.7,0.3-0.7,0.7l-0.8,63.5c0.1,6.1,0.4,12.2,1,18.3c0.1,0.6,0.2,1,0.3,1.2&#xA;&#x9;&#x9;c0,0,0.1,0.1,0.1,0.1c0,0,0,0,0.1,0c0,0,0.1,0,0.1,0c0,0,0,0,0,0c0,0,0.1,0,0.1,0c0,0,0.1,0,0.1,0c0,0,0,0,0.1,0c0,0,0.1,0,0.1,0&#xA;&#x9;&#x9;c0,0,0-0.1,0.1-0.1c0,0,0,0,0-0.1c0-0.1,0.1-0.1,0.1-0.2c0.8-5,1-10.3,0.8-15.9c0-0.4,0-0.8,0.1-1.2c0.3-1.6,0.4-2.7,0.3-3.4&#xA;&#x9;&#x9;c-1-18.1-0.4-34-0.7-51.1l-0.3-11.4C445.1,607.1,444.9,606.9,444.6,606.9z"></path>
&#x9;<path class="st13" d="M903,689.1c-0.5,2.4-1.4,9.4,1.7,10.5c0.7,0.2,2.5,0.4,5.4,0.4c15.1,0.2,30.4,0.4,45.9,0.6&#xA;&#x9;&#x9;c1.8-6.5,2.1-13.2,0.9-20c-0.8-4.9-0.9-8.1-1.1-12.3c0-0.3-0.1-0.7-0.3-1c-3-5.4-5.6-9.7-7.7-12.8c-10.8-15.6-27-27.1-44.6-34.1&#xA;&#x9;&#x9;l-0.1,68.1C903,688.7,903,688.9,903,689.1z"></path>
&#x9;<path class="st13" d="M108.2,646c-11,14.1-19.9,27.2-26.8,39.5c-0.1,0.1-0.1,0.3-0.1,0.5v9.5c0,0.3,0.1,0.6,0.4,0.7&#xA;&#x9;&#x9;c2.1,1.6,4.6,2.5,7.3,2.8c4.8,0.5,9.9,0.7,15.2,0.4c5.5-0.3,8.8-0.5,9.7-0.4c6.5,0.1,13.3,0.1,19.7-1.2c0.9-0.2,1.6-1,1.7-2&#xA;&#x9;&#x9;l0.5-10.7l-0.5-57.2C122.5,628.1,115.6,636.6,108.2,646z"></path>
&#x9;<path class="st6" d="M593.6,685C593.6,685,593.6,685,593.6,685c0.1,0.1,0.1,0.1,0.1,0.2c0,0,0,0,0.1,0.1c0,0,0.1,0.1,0.1,0.1&#xA;&#x9;&#x9;c0,0,0.1,0,0.1,0c0,0,0,0,0.1,0c0,0,0,0,0.1,0c0,0,0.1,0,0.1,0c0,0,0.1,0,0.1,0c0,0,0.1,0,0.1,0c0,0,0,0,0.1,0c0,0,0.1-0.1,0.1-0.1&#xA;&#x9;&#x9;c0,0,0,0,0-0.1c0-0.1,0.1-0.1,0.1-0.2c1-4.5,1.4-9.1,1.4-13.6c-0.1-7.6-0.2-15.1-0.3-22.6c0-5.1,0.7-9.9-0.8-15.3&#xA;&#x9;&#x9;c0-0.1-0.1-0.1-0.1-0.2c0,0,0,0,0,0c0,0-0.1-0.1-0.2-0.1c0,0,0,0,0,0c0,0,0,0,0,0c0,0-0.1,0-0.1,0c0,0-0.1,0-0.1,0c0,0,0,0,0,0&#xA;&#x9;&#x9;c-0.1,0-0.1,0.1-0.1,0.1c0,0,0,0,0,0c0,0.1-0.1,0.1-0.1,0.2l-0.8,5.6l0.1,37.1l0.1,8.7C593.5,684.9,593.6,684.9,593.6,685z"></path>
&#x9;<path class="st2" d="M699.6,768.4C699.6,768.4,699.6,768.4,699.6,768.4C699.6,768.4,699.6,768.4,699.6,768.4c0.1,0.1,0.2,0.1,0.2,0&#xA;&#x9;&#x9;c4.7-4.3,8.3-7.1,10.8-8.4c11.6-6.2,24.1-9,37.7-8.4c7.2,0.3,14.3,0.9,20.8,2.8c7.7,2.3,14.9,5.9,21.5,10.8c3.4,3,6.2,6.4,8.2,10.3&#xA;&#x9;&#x9;c0.6,1.2,1.5,3.2,2.7,6.2c0.1,0.2,0.2,0.4,0.4,0.6l0.4,0.3c0,0,0.1,0.1,0.2,0.1c0,0,0,0,0,0c0,0,0.1,0,0.1,0c0,0,0,0,0,0&#xA;&#x9;&#x9;c0,0,0,0,0.1,0c0,0,0,0,0.1,0c0,0,0,0,0,0c0,0,0-0.1,0.1-0.1c0,0,0,0,0,0c0-0.1,0-0.1,0-0.2c-1.2-2.6-1.5-4.7-0.9-6.3&#xA;&#x9;&#x9;c-2.4-5.8-6-10.4-10.8-14c-16.6-12.6-38.4-14.5-59-11.9c-9.2,1.2-17.8,4.2-25.8,9.2c-2.6,3.2-5.5,5.3-6.8,9.4&#xA;&#x9;&#x9;C699.5,768.3,699.6,768.3,699.6,768.4z"></path>
&#x9;<path class="st5" d="M106.9,757.9C106.8,757.9,106.8,757.9,106.9,757.9c-0.1,0-0.1,0.1-0.1,0.1c0,0-0.1,0.1-0.1,0.1c0,0,0,0,0,0&#xA;&#x9;&#x9;c0,0.1,0,0.1,0,0.2l23.6,32.6c0,0.1,0.1,0.1,0.1,0.2c0,0,0,0,0,0c0,0,0,0,0,0.1c0,0,0,0.1,0,0.1c0,0,0,0.1,0,0.1c0,0,0,0.1,0,0.1&#xA;&#x9;&#x9;c0,0,0,0.1-0.1,0.1c0,0,0,0,0,0.1c0,0,0,0,0,0c-0.1,0-0.1,0.1-0.2,0.1l-0.6,0.1c3.5,5,7.1,9.9,11,14.6c1.3,1.6,2.8,3,4.4,4.3&#xA;&#x9;&#x9;c0.7,0.5,1.6,0.4,2.2-0.2c2.2-2.6,4.4-4.6,6.1-6.9c5-6.7,10-13.3,15-20c2.5-3.5,5.4-7,7.7-10.3c2.5-3.7,5.6-7.8,9.2-12.3&#xA;&#x9;&#x9;c4.3-5.2,9-9.1,15.9-8.2c2.2,0.3,4.1,1.5,5.9,3.6c0.3,0.4,0.9,0.5,1.3,0.2l0,0c0.1,0,0.1-0.1,0.1-0.1c0,0,0.1-0.1,0.1-0.1&#xA;&#x9;&#x9;c0,0,0-0.1,0-0.1c0,0,0-0.1,0-0.1s0-0.1,0-0.1c0,0,0-0.1,0-0.1c0,0,0-0.1-0.1-0.1c0-0.1-0.1-0.1-0.1-0.2c-1.4-1.5-2-2.6-1.8-3.4&#xA;&#x9;&#x9;c-3.4-2.2-7.3-2.8-11.7-1.6c-6.1,1.6-11.5,7.5-15,12.3c-10.7,14.7-21.7,29.5-33.2,44.4c-0.1,0.1-0.1,0.1-0.2,0.2c0,0,0,0-0.1,0&#xA;&#x9;&#x9;c-0.1,0-0.1,0.1-0.2,0.1c-0.1,0-0.1,0-0.2,0.1c-0.1,0-0.1,0-0.2,0c-0.1,0-0.1,0-0.2,0c-0.1,0-0.1,0-0.2-0.1c-0.1,0-0.1-0.1-0.2-0.1&#xA;&#x9;&#x9;c-0.1-0.1-0.2-0.1-0.3-0.2l-36.3-48.2l-1.5-0.9C107,757.9,106.9,757.9,106.9,757.9z"></path>
&#x9;<path class="st4" d="M85.7,751.9c0.1,0.2-0.1,0.5-0.4,0.7c-0.9,0.7-1.7,1.4-2.3,2.3c-0.2,0.3-0.2,0.7,0.1,1l0.1,0&#xA;&#x9;&#x9;c0.3,0.2,0.7,0.2,0.9-0.1c1.3-1.4,2.5-2.2,3.7-2.6c3.8-1.1,7.5-0.8,11.2,1c0.4,0.2,0.7,0.4,1,0.6c2.4,2,3.8,2.9,5.6,5&#xA;&#x9;&#x9;c0.8,1,2.7,3.5,5.6,7.4c5.8,7.8,11.7,15.7,17.5,23.5l0.7,1l0.6-0.1c0.1,0,0.2,0,0.2-0.1c0,0,0,0,0,0c0,0,0,0,0-0.1&#xA;&#x9;&#x9;c0,0,0.1-0.1,0.1-0.1c0,0,0-0.1,0-0.1c0,0,0-0.1,0-0.1c0,0,0-0.1,0-0.1c0,0,0-0.1,0-0.1c0-0.1,0-0.1-0.1-0.2l-23.6-32.6&#xA;&#x9;&#x9;c0-0.1,0-0.1,0-0.2c0,0,0,0,0,0c0,0,0,0,0-0.1c0,0,0,0,0.1,0c0,0,0.1-0.1,0.1-0.1c0,0,0,0,0,0c0.1,0,0.1,0,0.2,0l1.5,0.9&#xA;&#x9;&#x9;c-5.2-6.9-15.2-11.8-23.5-7.3C85.4,751.6,85.7,751.7,85.7,751.9z"></path>
&#x9;<path class="st5" d="M258.1,789.6C258.1,789.6,258.1,789.7,258.1,789.6c0,0.1,0,0.1,0.1,0.2c0,0,0,0,0,0.1c0,0,0,0,0.1,0.1&#xA;&#x9;&#x9;c0,0,0,0,0.1,0c0,0,0.1,0,0.1,0c0,0,0.1,0,0.1,0c5.1-0.1,10.2,0.1,15.2,0.5c0.3,0,1.3,0,3,0c16.5-0.3,26.5-0.4,30-0.5&#xA;&#x9;&#x9;c12.6-0.2,24.1,0.4,36.1,0.2c0.3,0,0.6,0.1,0.9,0.2l2.2,0.9c0.1-0.3,0.4-0.5,0.9-0.8c-0.5-1.3-1.5-1.9-3.1-2&#xA;&#x9;&#x9;c-6.8-0.3-13.5-0.4-19.8-0.3c-10.5,0.2-17.1,0.3-19.8,0.1c-11.2-0.5-20.5-1-30-0.4c-0.2,0-0.5-0.2-0.5-0.4l-0.1-0.4l-0.3,0.7&#xA;&#x9;&#x9;c0,0.1-0.1,0.2-0.2,0.2c0,0,0,0-0.1,0.1c-0.1,0-0.1,0.1-0.2,0.1c0,0-0.1,0-0.1,0c-0.1,0-0.1,0-0.2,0c0,0-0.1,0-0.1,0c0,0,0,0,0,0&#xA;&#x9;&#x9;c0,0-0.1,0-0.1,0c0,0-0.1,0-0.1,0c0,0,0,0,0,0c0,0-0.1,0-0.1-0.1c-0.1,0-0.1-0.1-0.1-0.1c0,0,0-0.1-0.1-0.1c0-0.1-0.1-0.1-0.1-0.2&#xA;&#x9;&#x9;c0,0,0-0.1,0-0.1c0-0.1,0-0.2,0-0.3c0.3-2.6,0.5-4.6,0.8-5.9c2.6-13.1,12.6-17.9,24.8-17.9c16.1,0,33.5,0,52.2,0&#xA;&#x9;&#x9;c2.4,0,4.1-0.1,5.2-0.4c2.1-0.5,2.3-2.4,2.7-4.8c0.4-2-0.1-3.7-1.3-5.3c-0.1-0.1-0.1-0.2,0-0.3c0.1-0.1,0.2-0.1,0.3-0.1&#xA;&#x9;&#x9;c-0.5-0.5-1-0.8-1.6-0.9c-6.5-0.8-13.3-0.4-20-0.3c-12.6,0.3-23.9,0.2-33.8-0.2c-8.3-0.4-14.1-0.2-17.5,0.7&#xA;&#x9;&#x9;c-12.7,3.4-22,11.3-25,24.3l-0.4,13.3C258,789.5,258,789.6,258.1,789.6z"></path>
&#x9;<path class="st6" d="M541.1,783.6c0.3,12.2,0.4,24.4,0.2,36.6c0,0.1,0.1,0.3,0.2,0.3l0.2,0c0,0,0,0,0,0l1.1-33.9&#xA;&#x9;&#x9;c0-0.1,0-0.3,0.1-0.4c0,0,0,0,0,0c0.1-0.1,0.1-0.3,0.2-0.4c0.1-0.1,0.1-0.1,0.2-0.1c0.1,0,0.1-0.1,0.2-0.1c0.1-0.1,0.3-0.1,0.4-0.1&#xA;&#x9;&#x9;c0,0,0,0,0,0c0.1,0,0.3,0,0.4,0.1l7.7,3.5c2.6,0.1,5.3,0.5,7.8,0.5c13.5-0.2,28.6-0.6,44.2-0.2c9.6,0.2,16.8,0.3,24.1-0.5l12.4-7.2&#xA;&#x9;&#x9;c1-0.6,1.6-1.6,1.6-2.8c0-8,0.5-16.1,1.5-24.4c0.4-0.6,0.2-1.2-0.6-1.9c-2.7-2.3-10.4-1.5-13.6-0.7c-0.3,0.1-0.7,0.3-0.9,0.5&#xA;&#x9;&#x9;l-0.5,0.4c0.1,0,0.2,0,0.3,0c0.2,0,0.3,0.2,0.3,0.3c-0.2,9.8-0.3,20.5-0.1,32.1c0,0.3-0.1,0.7-0.3,1.1c0,0.1-0.1,0.1-0.2,0.2&#xA;&#x9;&#x9;c0,0,0,0,0,0c0,0,0,0-0.1,0c0,0-0.1,0-0.1,0c0,0-0.1,0-0.1,0c0,0-0.1,0-0.1,0c0,0-0.1,0-0.1,0c0,0,0,0-0.1,0c0,0,0,0,0,0&#xA;&#x9;&#x9;c-0.1,0-0.1-0.1-0.2-0.2c-0.2-0.3-0.3-0.8-0.3-1.4l-0.2,1.2c0,0.3-0.3,0.5-0.7,0.5c-14.4-0.3-27.9,0.2-42,0.1&#xA;&#x9;&#x9;c-4.9-0.1-12.8-0.1-23.6-0.1c0,0-0.7,0.1-2.1,0.3c-0.8,0.1-1.5-0.1-2.1-0.5c-0.9,0.8-1.4,0.4-1.4-1.3c0.1-10.5,0.2-20.9,0.3-31.4&#xA;&#x9;&#x9;c0-0.5,0.3-0.6,1-0.4c-1.2-1.2-2.2-1.8-2.9-1.9c-3.8-0.5-7.8-0.3-12,0.6C540.9,762.5,540.8,773.1,541.1,783.6z"></path>
&#x9;<path class="st4" d="M398.8,763c2.6,0.4,4.2,0.5,4.8,0.5c7.6-0.1,19.7-0.2,36.3-0.1c0.2,0,0.4,0.1,0.5,0.2c0.1,0.1,0.2,0.3,0.2,0.5&#xA;&#x9;&#x9;v29.4c0,0.1,0,0.2,0.1,0.3c0,0,0,0,0,0.1c0,0.1,0.1,0.1,0.1,0.2c0,0,0,0,0,0.1c0.1,0.1,0.1,0.1,0.2,0.1c0,0,0.1,0,0.1,0&#xA;&#x9;&#x9;c0,0,0.1,0,0.1,0c0.1,0,0.2,0,0.3,0c0,0,0,0,0.1,0c0.1,0,0.1-0.1,0.2-0.1c0,0,0,0,0.1-0.1c0.1-0.1,0.1-0.1,0.2-0.2&#xA;&#x9;&#x9;c0.4-0.8,1-1.3,2-1.3c0.9,0,3.1,0.2,6.8,0.6c1.1,0.1,1.9,1,1.9,2.1v4.7c0,0.1,0,0.2,0.1,0.3c0,0,0,0.1,0.1,0.1c0,0,0.1,0.1,0.1,0.1&#xA;&#x9;&#x9;c0,0,0.1,0,0.1,0.1c0,0,0.1,0,0.1,0.1c0,0,0.1,0,0.1,0c0,0,0.1,0,0.1,0c0.1,0,0.2,0,0.3-0.1l0.3-0.2c0.3-0.1,0.4-0.4,0.4-0.7v-36&#xA;&#x9;&#x9;c0,0,0,0,0,0c0,0,0-0.1,0-0.1c0,0,0-0.1,0-0.1c0,0,0,0,0-0.1c0,0,0-0.1,0.1-0.1c0,0,0,0,0.1-0.1c0,0,0,0,0.1,0c0,0,0.1,0,0.1,0&#xA;&#x9;&#x9;c0,0,0.1,0,0.1,0c0,0,0,0,0,0c13.1,0.5,26.4,0.4,39.9,0c2.7-0.1,4.3-1.4,4.7-3.8c0.3-1.5,0.2-3.6-0.2-6.2c-0.1-0.6-0.6-1-1.7-1.4&#xA;&#x9;&#x9;c-0.7-0.2-2-0.3-4-0.3c-7.4-0.1-17.8,0.1-31.2,0.6c-5,0.2-9.1,0.2-12.2,0.1c-11.5-0.3-22.1-0.5-31.8-0.7&#xA;&#x9;&#x9;c-5.7-0.1-14.1-0.8-20.8,0.4c-1.4,0.3-2.4,0.8-2.8,1.8c0.3,1.9,0.6,3.7,0.7,5.5C395.6,761.4,396.7,762.7,398.8,763z"></path>
&#x9;<path class="st2" d="M875.4,753c5-0.1,9-0.1,11.9,0.1c3.4,0.2,8.3,0.3,14.8,0.4c11.2,0,20.7,1.1,31.2,5.2c6,2.4,10.7,5.5,14.1,9.3&#xA;&#x9;&#x9;c4,4.5,6.7,9.8,8.2,15.9c0,0.1,0,0.1,0.1,0.2c0,0,0,0,0,0c0,0,0.1,0.1,0.1,0.1c0,0,0,0,0.1,0c0,0,0.1,0,0.1,0c0,0,0.1,0,0.1,0&#xA;&#x9;&#x9;c0,0,0,0,0.1,0c0,0,0.1,0,0.1-0.1c0,0,0,0,0,0c0,0,0.1-0.1,0.1-0.2c0.5-1.3,0.3-2.3-0.4-3c-0.2-0.2-0.4-0.5-0.4-0.8&#xA;&#x9;&#x9;c-0.9-3.5-2.4-6.8-4.6-9.8c-0.9-1.2-0.8-1.9,0.3-2c-7.7-10.9-23.7-16.4-36.3-17.1c-2.8-0.2-7-0.2-12.7,0&#xA;&#x9;&#x9;c-15.2,0.4-30.5,0.3-45.9,0.2c-1.8,0-3.6,0.5-5.3,1.7C859.2,752.9,867.6,753.2,875.4,753z"></path>
&#x9;<path class="st8" d="M79.6,830.6C79.6,830.7,79.7,830.7,79.6,830.6c0.1,0.1,0.1,0.1,0.2,0.1c0,0,0.1,0,0.1,0c0,0,0,0,0.1,0&#xA;&#x9;&#x9;c0.1,0,0.1-0.1,0.1-0.1c1.8-5.5,1.2-12.9,1.2-18.2c0-0.3,0.1-0.7,0.2-1c2.6-4.9,8-3.6,12.1-2.4c0.1,0,0.1,0,0.2,0c0,0,0.1,0,0.1,0&#xA;&#x9;&#x9;c0,0,0.1,0,0.1,0c0,0,0.1,0,0.1,0c0,0,0,0,0.1-0.1c0,0,0,0,0-0.1c0,0,0-0.1,0-0.1c0,0,0-0.1,0-0.2l0.4-29.7l-0.3-7.9&#xA;&#x9;&#x9;c0,0,0-0.1,0-0.1l0.5-4.4c0-0.1,0-0.2,0.1-0.2c0,0,0.1-0.1,0.1-0.1c0,0,0-0.1,0.1-0.1c0,0,0,0,0,0c0.1-0.1,0.1-0.1,0.2-0.1&#xA;&#x9;&#x9;c0.1,0,0.2,0,0.2,0c0,0,0,0,0,0c0,0,0.1,0,0.1,0c0,0,0.1,0,0.1,0c0.1,0,0.1,0.1,0.2,0.2l15,19.7l17.8,4.9&#xA;&#x9;&#x9;c-5.9-7.9-11.7-15.7-17.5-23.5c-2.9-3.9-4.8-6.4-5.6-7.4c-1.8-2.2-3.2-3-5.6-5c-0.3-0.3-0.6-0.5-1-0.6c-3.7-1.8-7.4-2.1-11.2-1&#xA;&#x9;&#x9;c-1.2,0.4-2.4,1.2-3.7,2.6c-0.2,0.3-0.6,0.3-0.9,0.1l-0.1,0c-0.3-0.2-0.4-0.7-0.1-1c0.6-0.8,1.4-1.6,2.3-2.3&#xA;&#x9;&#x9;c0.3-0.2,0.5-0.5,0.4-0.7c-0.1-0.2-0.3-0.4-0.7-0.5c-3.4,2.2-5.3,5.4-5.6,9.7c-0.3,4.5-0.4,7.3-0.4,8.5c0.3,20.2,0.4,40.3,0.4,60.5&#xA;&#x9;&#x9;c0.1,0.3,0.1,0.4,0.1,0.4C79.5,830.5,79.6,830.6,79.6,830.6z"></path>
&#x9;<path class="st6" d="M690.5,780.7c-2.2,6-2.9,12.2-2,18.7l0.1,0.6c0,0.1,0.1,0.1,0.1,0.2c0,0,0,0,0.1,0c0,0,0.1,0,0.1,0&#xA;&#x9;&#x9;c0,0,0.1,0,0.1,0c0,0,0,0,0.1,0c0.1,0,0.1-0.1,0.1-0.2l1-6.1c0.1-0.6,0.6-1.1,1.2-1.3c3.5-0.9,6.8-1.2,9.8-1c0.3,0,0.5-0.2,0.6-0.4&#xA;&#x9;&#x9;l0.3-1.5c4.9-25.1,31-30.2,52.4-28.4c8.1,0.7,15.5,3,22.3,7c4.4-1.7,9-2.9,13.8-3.4c-6.6-4.9-13.7-8.5-21.5-10.8&#xA;&#x9;&#x9;c-6.4-1.9-13.6-2.5-20.8-2.8c-13.6-0.6-26.2,2.3-37.7,8.4c-2.5,1.3-6.1,4.1-10.8,8.4c0,0-0.1,0-0.1,0c0,0,0,0,0,0c0,0,0,0,0,0&#xA;&#x9;&#x9;c0,0,0,0,0,0c0,0,0-0.1,0-0.1c1.4-4,4.3-6.2,6.8-9.4c-5.5,3.7-10.1,8.3-13.6,13.9c-1.1,1.7-1.9,3.3-2.4,4.9&#xA;&#x9;&#x9;C691.2,777.7,691.2,778.7,690.5,780.7z"></path>
&#x9;<path class="st8" d="M208.3,755.3C208.3,755.3,208.3,755.4,208.3,755.3c0.1,0.1,0.1,0.1,0.1,0.2c0,0,0,0.1,0.1,0.1c0,0,0,0.1,0,0.1&#xA;&#x9;&#x9;c0,0,0,0.1,0,0.1s0,0.1,0,0.1c0,0,0,0.1,0,0.1c0,0-0.1,0.1-0.1,0.1c0,0.1-0.1,0.1-0.1,0.1l0,0c-0.4,0.3-1,0.2-1.3-0.2&#xA;&#x9;&#x9;c-1.8-2.1-3.7-3.3-5.9-3.6c-6.8-0.8-11.6,3-15.9,8.2c-3.7,4.5-6.8,8.6-9.2,12.3c-2.2,3.3-5.2,6.8-7.7,10.3l7.8,7.8l18.8-25.4&#xA;&#x9;&#x9;c0.2-0.2,0.5-0.3,0.7-0.1c0.4,0.3,0.5,0.9,0.2,1.9l0.6,2.9c0,0.2,0.1,0.4,0.1,0.6c0,9.2,0,20.3,0,33.2c0,1.3,0.2,3.6,0.5,7&#xA;&#x9;&#x9;c0,0.1,0,0.1,0.1,0.1c0.1,0,0.1,0,0.1-0.1c0.5-5,1.4-9.5,2.8-13.3c0.1-0.3,0.4-0.5,0.8-0.6l6-0.2c0.4,0,0.7,0.3,0.7,0.6l1.4,14.4&#xA;&#x9;&#x9;c0,0.1,0,0.1,0.1,0.2c0,0,0,0,0,0c0.1,0.1,0.1,0.1,0.2,0.1c0,0,0,0,0,0c0.1,0,0.2,0,0.2-0.1l0.3-0.2c0.2-0.1,0.3-0.3,0.3-0.5&#xA;&#x9;&#x9;c0.5-14.4,0.5-29.9,0.3-46.5c-0.1-3.1-0.2-6.5-0.4-10.1c-0.3-1-1.4-2.1-3.1-3.4C206.2,752.7,206.8,753.8,208.3,755.3z"></path>
&#x9;<path class="st11" d="M644,789.1c0.2-11.5,0.1-23.1-0.4-34.9c-1,8.3-1.5,16.5-1.5,24.4c0,1.1-0.6,2.2-1.6,2.8l-12.4,7.2&#xA;&#x9;&#x9;c-8,3.5-14.8,4.5-23.8,5.9c-4.2,0.6-7.7,1-10.7,1.1c-14.3,0.4-28.1-1.8-41.7-6.7l-7.7-3.5c-0.1-0.1-0.3-0.1-0.4-0.1c0,0,0,0,0,0&#xA;&#x9;&#x9;c-0.2,0-0.3,0-0.4,0.1c-0.1,0-0.1,0.1-0.2,0.1c-0.1,0-0.1,0.1-0.2,0.1c-0.1,0.1-0.2,0.2-0.2,0.4c-0.1,0.1-0.1,0.3-0.1,0.4&#xA;&#x9;&#x9;l-1.1,33.9c0,0,0,0,0,0l-0.2,0c-0.1,0-0.3-0.1-0.2-0.3c0.2-12.2,0.1-24.4-0.2-36.6c-0.3-10.5-0.2-21,0.3-31.6&#xA;&#x9;&#x9;c-0.9,0.4-1.4,1.1-1.5,1.9c-0.2,1.7-0.4,5.5-0.4,11.5c0,8.5,0.1,28.6,0.4,60.5c0,1.9,0,3.5-0.1,5c-0.3,4.1-1.1,9.1,4.5,9.2&#xA;&#x9;&#x9;c2.8,0.1,5.5,0.1,8.2,0c2.4-0.1,3.7-1.2,3.7-3.4c0-11.5,0-22.9,0-34.3c-0.2,0-0.4,0.1-0.5,0.2c-0.1,0.1-0.1,0.1-0.2,0.1&#xA;&#x9;&#x9;c0,0,0,0,0,0c0,0,0,0,0,0c0,0-0.1,0-0.1,0c0,0,0,0-0.1,0c0,0,0,0-0.1,0c0,0,0,0-0.1-0.1c0,0,0,0,0,0c0,0,0,0,0,0&#xA;&#x9;&#x9;c0-0.1-0.1-0.1-0.1-0.2c-0.1-1.3,0.3-2.3,1.2-2.9c0.2-0.1,0.5-0.2,0.7-0.2h70.7c0.1,0,0.1,0,0.2,0c0,0,0.1,0,0.1,0c0,0,0.1,0,0.1,0&#xA;&#x9;&#x9;c0.1,0,0.2,0.1,0.2,0.1c0.1,0,0.1,0.1,0.2,0.1c0.1,0.1,0.1,0.1,0.2,0.2c0.1,0.1,0.1,0.1,0.1,0.2c0,0.1,0.1,0.1,0.1,0.2&#xA;&#x9;&#x9;c0,0.1,0,0.2,0.1,0.3c0,0,0,0.1,0,0.1c0,0,0,0.1,0,0.1c0,0.1,0,0.1,0,0.2c-0.3,1.1-0.7,1.5-1.4,1.1c-0.2,10.9-0.3,21.8-0.4,32.7&#xA;&#x9;&#x9;c0,3.7,1.8,5.6,5.5,5.6c5.3,0,11.9,1.5,11.7-5C643.7,820.9,643.7,808.3,644,789.1z"></path>
&#x9;<path class="st1" d="M356.1,753c1.2,1.5,1.6,3.3,1.3,5.3c-0.4,2.4-0.6,4.3-2.7,4.8c-1.1,0.3-2.9,0.4-5.2,0.4c-18.7,0-36.1,0-52.2,0&#xA;&#x9;&#x9;c-12.2,0-22.2,4.8-24.8,17.9c-0.3,1.3-0.5,3.3-0.8,5.9c0,0.1,0,0.2,0,0.3c0,0,0,0.1,0,0.1c0,0.1,0.1,0.1,0.1,0.2c0,0,0,0.1,0.1,0.1&#xA;&#x9;&#x9;c0,0.1,0.1,0.1,0.1,0.1c0,0,0.1,0,0.1,0.1c0,0,0,0,0,0c0,0,0.1,0,0.1,0c0.1,0,0.1,0,0.2,0c0,0,0.1,0,0.1,0c0.1,0,0.1,0,0.2,0&#xA;&#x9;&#x9;c0,0,0.1,0,0.1,0c0.1,0,0.1-0.1,0.2-0.1c0,0,0.1,0,0.1-0.1c0.1-0.1,0.1-0.1,0.2-0.2l0.3-0.7c0.3-6,2-10.7,5-14.1&#xA;&#x9;&#x9;c5.3-5.9,12.4-7.1,20.2-7.1c26,0,43.8,0,53.2-0.1c2.4,0,4.1-0.6,5.1-1.7c1.6-1.8,1.3-6.6,1.1-8.8c-0.1-1-0.7-1.9-1.7-2.6&#xA;&#x9;&#x9;c-0.1,0-0.2,0.1-0.3,0.1C356,752.8,356,753,356.1,753z"></path>
&#x9;<path class="st1" d="M627.5,786.4C627.5,786.4,627.5,786.4,627.5,786.4C627.5,786.4,627.5,786.4,627.5,786.4c0.1,0,0.2,0.1,0.2,0.1&#xA;&#x9;&#x9;c0,0,0.1,0,0.1,0c0,0,0.1,0,0.1,0c0,0,0.1,0,0.1,0c0,0,0.1,0,0.1,0c0.1,0,0.1-0.1,0.2-0.2c0.2-0.4,0.3-0.8,0.3-1.1&#xA;&#x9;&#x9;c-0.2-11.6-0.1-22.3,0.1-32.1c0-0.2-0.1-0.3-0.3-0.3c-0.1,0-0.2,0-0.3,0c-0.7,1.5-1,3.3-1,5.2c0,9,0,18,0,27c0,0.6,0.1,1.1,0.3,1.4&#xA;&#x9;&#x9;C627.4,786.3,627.4,786.4,627.5,786.4z"></path>
&#x9;<path class="st8" d="M851.3,754.4l-0.9,50.9l13.4,5.2c0,0,0.1,0,0.1,0c0,0,0.1,0,0.1,0c0,0,0,0,0.1,0c0,0,0,0,0.1,0c0,0,0,0,0.1,0&#xA;&#x9;&#x9;c0,0,0,0,0-0.1c0,0,0,0,0-0.1c0,0,0-0.1,0-0.1l0.4-6.6l0.2-39.5c0-0.3,0.2-0.6,0.5-0.6c18.8-0.2,33.7-0.1,44.7,0.2&#xA;&#x9;&#x9;c6.4,0.2,12.8,1.7,19.3,4.5c7.5,3.2,12.2,9.3,14.1,18.3c0.9,4.6,1.6,7.5,2.1,8.8c1.2,3.1,8.4,1.2,10.9,0.5c0,0,0,0,0.1,0&#xA;&#x9;&#x9;c0,0,0,0,0.1,0c0,0,0.1,0,0.1,0c0,0,0.1,0,0.1,0c0,0,0.1,0,0.1,0c0,0,0,0,0.1,0.1c0,0,0,0,0.1,0.1c0,0,0,0.1,0,0.1c0,0,0,0,0,0.1&#xA;&#x9;&#x9;c0,0,0,0.1,0,0.1l0.1,1.1c0,0,0,0.1,0.1,0.1c0,0,0.1,0,0.1-0.1l0.4-16.3c-1.3-4.3-3.5-8.5-6.5-12.8c-1.2,0.1-1.3,0.7-0.3,2&#xA;&#x9;&#x9;c2.2,3,3.8,6.3,4.6,9.8c0.1,0.3,0.2,0.5,0.4,0.8c0.7,0.7,0.9,1.7,0.4,3c0,0.1-0.1,0.1-0.1,0.2c0,0,0,0,0,0c0,0-0.1,0-0.1,0.1&#xA;&#x9;&#x9;c0,0,0,0,0,0c0,0,0,0,0,0c0,0-0.1,0-0.1,0c0,0-0.1,0-0.1,0c0,0,0,0-0.1,0c0,0-0.1,0-0.1-0.1c0,0,0,0,0,0c0,0-0.1-0.1-0.1-0.2&#xA;&#x9;&#x9;c-1.5-6.2-4.2-11.5-8.2-15.9c-3.4-3.8-8.1-6.9-14.1-9.3c-10.5-4.1-20-5.2-31.2-5.2c-6.5,0-11.4-0.1-14.8-0.4&#xA;&#x9;&#x9;c-3-0.2-6.9-0.2-11.9-0.1c-7.8,0.2-16.1-0.1-24.3,0.1l-0.6,0.7l0.4,0.1C851.1,754,851.3,754.2,851.3,754.4z"></path>
&#x9;<path class="st8" d="M555.2,753.7c-0.1,10.5-0.2,20.9-0.3,31.4c0,1.7,0.5,2.1,1.4,1.3l-0.1-33.1&#xA;&#x9;&#x9;C555.6,753.1,555.2,753.2,555.2,753.7z"></path>
&#x9;<path class="st13" d="M499.6,759.3c-0.4,2.4-2,3.7-4.7,3.8c-13.5,0.5-26.8,0.5-39.9,0c0,0,0,0,0,0c0,0-0.1,0-0.1,0c0,0-0.1,0-0.1,0&#xA;&#x9;&#x9;c0,0-0.1,0-0.1,0c0,0-0.1,0-0.1,0.1c0,0,0,0-0.1,0.1c0,0,0,0,0,0.1c0,0,0,0.1,0,0.1c0,0,0,0.1,0,0.1v36c0,0.3-0.2,0.6-0.4,0.7&#xA;&#x9;&#x9;l-0.3,0.2c-0.1,0.1-0.2,0.1-0.3,0.1c0,0,0,0,0,0c0,0-0.1,0-0.1,0c0,0-0.1,0-0.1,0c0,0-0.1,0-0.1-0.1c0,0-0.1,0-0.1-0.1&#xA;&#x9;&#x9;c0,0-0.1-0.1-0.1-0.1c0,0,0-0.1-0.1-0.1c0-0.1-0.1-0.2-0.1-0.3v-4.7c0-1.1-0.8-2-1.9-2.1c-3.6-0.4-5.9-0.6-6.8-0.6&#xA;&#x9;&#x9;c-1,0-1.6,0.5-2,1.3c0,0.1-0.1,0.2-0.2,0.2c0,0,0,0-0.1,0.1c0,0-0.1,0.1-0.2,0.1c0,0,0,0-0.1,0c-0.1,0-0.2,0-0.3,0c0,0,0,0,0,0&#xA;&#x9;&#x9;c-0.1,0-0.1,0-0.1,0c0,0-0.1,0-0.1,0c-0.1,0-0.2-0.1-0.2-0.1c0,0,0,0,0-0.1c0,0-0.1-0.1-0.1-0.2c0,0,0,0,0-0.1&#xA;&#x9;&#x9;c0-0.1-0.1-0.2-0.1-0.3v-29.4c0-0.2-0.1-0.4-0.2-0.5c-0.1-0.1-0.3-0.2-0.5-0.2c-16.6,0-28.7,0-36.3,0.1c-0.6,0-2.2-0.2-4.8-0.5&#xA;&#x9;&#x9;c-2.1-0.3-3.3-1.6-3.4-3.8c-0.1-1.8-0.4-3.6-0.7-5.5c-2,7.9,0.2,11.9,6.5,12c12.7,0.1,25.2,0.1,37.7,0c0.2,0,0.3,0.1,0.3,0.3&#xA;&#x9;&#x9;c0.1,26.7,0,49.2-0.1,67.4c0,1.8,0.2,3.3,0.5,4.4c0.4,1.2,1.4,2,2.6,2.1c2.2,0.3,4.8,0.3,7.8,0.2c2.7-0.1,5.2-0.2,5.8-2.8&#xA;&#x9;&#x9;c0.3-1.4,0.4-3.3,0.4-5.8c0-22.3-0.1-44-0.2-65.2c0-0.4,0.3-0.7,0.7-0.7c16.7,0.1,29.1,0.1,37.3,0.1c4.1,0,6.4-1.9,6.9-5.6&#xA;&#x9;&#x9;c0.3-2.5-0.2-4.8-1.4-7C499.8,755.8,499.9,757.8,499.6,759.3z"></path>
&#x9;<path class="st1" d="M959,804c0-0.1-0.1-0.2-0.2-0.3c0,0,0,0-0.1-0.1c-0.1-0.1-0.2-0.1-0.2-0.1c0,0,0,0-0.1,0c0,0-0.1,0-0.1,0&#xA;&#x9;&#x9;c0,0-0.1,0-0.1,0c0,0,0,0-0.1,0c-0.1,0-0.2,0.1-0.2,0.1c0,0,0,0-0.1,0.1c-0.1,0.1-0.1,0.2-0.2,0.3c-1.3,6.7-3.9,12.3-7.9,16.7&#xA;&#x9;&#x9;c-0.4,0.4-1.6,1.7-3.7,3.9c-1.3,1.4-2.7,2.5-4,3.4c-7.2,4.7-14.7,7.6-22.5,8.6c-4.2,0.6-8.7,0.9-13.5,0.9&#xA;&#x9;&#x9;c-12.4,0-30.3,0.1-53.7,0.3c-0.3,0-0.6-0.1-0.8-0.4c-0.8-1.2-1.2-2.6-1.2-4.1c0-9.3,0-18.7,0-28l0.9-50.9c0-0.2-0.2-0.4-0.4-0.5&#xA;&#x9;&#x9;l-0.4-0.1c-0.8,1.6-1.1,3.2-1.1,4.8c0.1,28.5,0.1,52.8,0.1,72.8c0,4.6-0.6,8.6,4.8,8.6c10.4,0.1,26.6,0.1,48.4,0&#xA;&#x9;&#x9;c7.4,0,12.9-0.3,16.4-1c19.9-3.5,35.3-12.9,40.1-33.8C959.1,804.7,959.1,804.3,959,804z"></path>
&#x9;<path class="st13" d="M210,765.3c0.3,16.6,0.2,32.1-0.3,46.5c0,0.2-0.1,0.4-0.3,0.5l-0.3,0.2c-0.1,0-0.1,0.1-0.2,0.1c0,0,0,0-0.1,0&#xA;&#x9;&#x9;c0,0,0,0,0,0c-0.1,0-0.1-0.1-0.2-0.1c0,0,0,0,0,0c0,0-0.1-0.1-0.1-0.2l-1.4-14.4c0-0.4-0.3-0.6-0.7-0.6l-6,0.2&#xA;&#x9;&#x9;c-0.3,0-0.6,0.2-0.8,0.6c-1.4,3.8-2.3,8.3-2.8,13.3c0,0.1,0,0.1-0.1,0.1c-0.1,0-0.1,0-0.1-0.1c-0.3-3.4-0.5-5.7-0.5-7&#xA;&#x9;&#x9;c0-13,0-24.1,0-33.2c0-0.2,0-0.4-0.1-0.6l-0.6-2.9l-0.8,1.7c0.2,22.1,0.1,44,0,65.4c0,2.9,1,4.6,3,5.1c2.2,0.6,6.9,0.1,10.4,0.2&#xA;&#x9;&#x9;c2.2,0.1,3.3-1,3.3-3.1c0-25.6,0.1-49.5,0.3-71.8c0-3.7-0.7-7.1-2.2-10.1C209.8,758.9,210,762.2,210,765.3z"></path>
&#x9;<path class="st3" d="M702,789.8l0.3,5.7c0,0.1,0,0.2,0.1,0.2c0,0,0,0,0,0c0.1,0.1,0.1,0.1,0.2,0.2c0,0,0.1,0,0.1,0c0,0,0.1,0,0.1,0&#xA;&#x9;&#x9;c0.1,0,0.2,0,0.2-0.1c0,0,0,0,0,0c0.1-0.1,0.1-0.1,0.2-0.2c0.2-0.5,0.3-1.1,0.4-1.8c0.7-19.6,19.4-28.8,36.4-30.1&#xA;&#x9;&#x9;c9.8-0.7,18.4,0.1,26,2.5c17.3,5.5,27.2,19.9,22.2,38.4c0.3,1.4,1,1.1,2.1-1.1l1-12.1c-1.2-9.9-6.1-17.5-14.6-23&#xA;&#x9;&#x9;c-6.8-4-14.3-6.4-22.3-7C733.1,759.6,706.9,764.7,702,789.8z"></path>
&#x9;<path class="st3" d="M929.4,768.3c-6.5-2.8-12.9-4.3-19.3-4.5c-10.9-0.3-25.8-0.4-44.7-0.2c-0.3,0-0.6,0.3-0.5,0.6l-0.2,39.5l0.5,7&#xA;&#x9;&#x9;c0,0,0,0.1,0.1,0.1c0,0,0,0,0,0c0,0,0,0,0.1,0c0,0,0.1,0,0.1,0c0,0,0,0,0,0c0,0,0.1-0.1,0.1-0.1l0.5-1.8l0.2-42.4&#xA;&#x9;&#x9;c0-0.4,0.3-0.8,0.8-0.8c17.8,0.1,28.8,0.1,32.9,0.1c16.8-0.3,38,2.8,42.2,22.8c0.5-0.4,1-1.1,1.3-1.9&#xA;&#x9;&#x9;C941.6,777.7,936.9,771.6,929.4,768.3z"></path>
&#x9;<path class="st5" d="M802.8,781.9c0,0.1,0,0.1,0,0.2c0,0,0,0,0,0c0,0,0,0.1-0.1,0.1c0,0,0,0,0,0c0,0,0,0,0,0c0,0,0,0-0.1,0&#xA;&#x9;&#x9;c0,0,0,0-0.1,0c0,0,0,0,0,0c0,0-0.1,0-0.1,0c0,0,0,0,0,0c-0.1,0-0.1,0-0.2-0.1l-0.4-0.3c-0.2-0.2-0.3-0.3-0.4-0.6&#xA;&#x9;&#x9;c-1.2-2.9-2.1-5-2.7-6.2c-2-3.9-4.7-7.3-8.2-10.3c-4.8,0.5-9.4,1.7-13.8,3.4c8.5,5.4,13.4,13.1,14.6,23l10.5-0.1&#xA;&#x9;&#x9;c0.7,0,1.3,0.5,1.4,1.2c0.4,3,0.9,6.1,1.3,9.2c0,0,0,0.1,0,0.1c0.1-2.1,0.6-4.8,1.4-8.2c0,0,0.1-0.1,0.1-0.1c0,0,0,0,0,0&#xA;&#x9;&#x9;c0,0,0,0,0.1,0c0,0,0,0,0,0c0,0,0,0,0,0c0,0,0,0,0,0c0,0,0,0,0,0c0,0,0.1,0.1,0.1,0.1c0,0.2,0.1,0.6,0.3,1c0.1-6.6-1.4-12.9-4.7-19&#xA;&#x9;&#x9;C801.3,777.2,801.5,779.3,802.8,781.9z"></path>
&#x9;<path class="st3" d="M195.4,765.8c-0.2-0.2-0.5-0.1-0.7,0.1l-18.8,25.4c-7.5,10.2-15.1,20.3-22.7,30.4c-1.1,1.4-2.3,2.2-3.5,2.4&#xA;&#x9;&#x9;c-3.8,0.6-9,0.8-11.7-2.6c-9.2-11.7-18.2-23.6-27.1-35.6l-15-19.7c-0.1-0.1-0.1-0.1-0.2-0.2c0,0-0.1,0-0.1,0c0,0-0.1,0-0.1,0&#xA;&#x9;&#x9;c0,0,0,0,0,0c-0.1,0-0.2,0-0.2,0c-0.1,0-0.2,0.1-0.2,0.1c0,0,0,0-0.1,0.1c0,0-0.1,0.1-0.1,0.1c0,0.1-0.1,0.2-0.1,0.2l-0.5,4.4&#xA;&#x9;&#x9;c0,0,0,0.1,0,0.1l0.3,7.9l0.3,8.9c0,0.2,0.2,0.4,0.4,0.5c0.3,0.1,0.6-0.1,0.9-0.3l-0.1-17.5c0-0.1,0-0.1,0-0.2c0,0,0,0,0,0&#xA;&#x9;&#x9;c0,0,0-0.1,0.1-0.1c0,0,0,0,0,0c0,0,0,0,0,0c0,0,0,0,0.1,0c0,0,0.1,0,0.1,0c0,0,0,0,0.1,0c0,0,0.1,0,0.1,0c0,0,0,0,0,0&#xA;&#x9;&#x9;c0,0,0.1,0.1,0.1,0.1c4,5,7.7,9.8,11,14.3c9.6,13,18.9,25.1,28.7,37.9c1.3,1.7,2.7,2.8,4.4,3.3c2.3,0.8,8.1,0.9,10.7-0.4&#xA;&#x9;&#x9;c1.2-0.6,2.6-2,4.2-4.1c10.8-14.3,21.3-28.2,31.5-41.8c2.4-3.2,4.9-6.5,7.6-10l0.8-1.7C195.9,766.7,195.8,766.1,195.4,765.8z"></path>
&#x9;<path class="st11" d="M256.8,792.9C256.8,792.9,256.8,792.9,256.8,792.9c0.1,0,0.1,0,0.2,0c0,0,0,0,0,0c0,0,0,0,0.1,0&#xA;&#x9;&#x9;c0,0,0.1,0,0.1,0c0,0,0.1,0,0.1,0c0,0,0,0,0.1,0c0,0,0,0,0,0c0,0,0.1,0.1,0.1,0.1c0,0,0,0,0,0c0,0,0,0.1,0,0.2&#xA;&#x9;&#x9;c0.4,8.2,0.8,15.8,3.3,23.3c2.1,6.3,5.8,11.2,11.1,14.8c2.2,1.5,6,2.5,8.6,4.2c0.1,0,0.9,0.3,2.4,0.8c0.7,0.2,1.3,0.4,2,0.4&#xA;&#x9;&#x9;c11.6,1,25,0.8,50.4,1.1c12.8,0.2,19.9,0.1,21-0.3c0.3-0.1,0.6-0.2,0.9-0.4c0.9-0.4,1.3-1.5,1.2-3.2c0-2.2-0.2-4-0.4-5.4&#xA;&#x9;&#x9;c0-0.3-0.2-0.6-0.5-0.8c-2.2-1.4-2.7-2.1-1.6-2.3c-18.4,0-37,0-55.8,0.2c-4.8,0-8.5-0.3-11-1.1c-10.6-3.2-15.8-10.5-15.6-22&#xA;&#x9;&#x9;c-1.6,0.3-2-0.4-1.2-2.1c0.2-0.3,0.5-0.5,0.8-0.5c5.6-0.3,10.9-0.3,15.8,0c3.3,0.2,6.1,0.3,8.5,0.2c5.1-0.1,8-0.2,8.5-0.1&#xA;&#x9;&#x9;c0,0,2.2,0.2,6.3,0.5c2.2,0.2,4.5,0,6.9-0.6c0.7-0.2,1.5-0.2,2.3-0.2c12.1,0.4,19.4,0.5,22,0.1c1.6-0.2,2.6-1.2,3-2.9&#xA;&#x9;&#x9;c0.5-2.1,0.3-4-0.6-5.6l-2.2-0.9c-0.3-0.1-0.6-0.2-0.9-0.2c-12,0.2-23.6-0.4-36.1-0.2c-3.5,0.1-13.5,0.2-30,0.5c-1.7,0-2.6,0-3,0&#xA;&#x9;&#x9;c-5-0.4-10.1-0.6-15.2-0.5c0,0,0,0,0,0c0,0,0,0-0.1,0c0,0-0.1,0-0.1,0c0,0,0,0-0.1,0c0,0,0,0-0.1-0.1c0,0,0,0,0-0.1c0,0,0,0,0-0.1&#xA;&#x9;&#x9;c0,0,0-0.1,0-0.1c0,0,0-0.1,0-0.1l0.4-13.3c-1.6,5.9-2.4,11.8-2.3,17.8c0.1-0.5,0.3-0.8,0.5-1.1C256.7,793,256.7,792.9,256.8,792.9&#xA;&#x9;&#x9;z"></path>
&#x9;<path class="st1" d="M804.6,804.3c0,0.3-0.1,0.5-0.3,0.8c-0.2,0.2-0.4,0.5-0.5,0.7c-1.8,6.1-4.5,11.3-8.2,15.6&#xA;&#x9;&#x9;c-1.7,2-3.7,4-6.1,6.2c-2.1,1.8-4.5,3.5-7.2,4.8c-7,3.5-14.6,5.7-22.9,6.7c-3.5,0.4-7.9,0.6-13.2,0.6c-21.9-0.1-47.6-7.4-55.7-30.3&#xA;&#x9;&#x9;c-1.2-3.3-1.8-6.6-2-9.9c-0.9-6.5-0.2-12.7,2-18.7c0.7-2,0.7-3-0.1-3c-5.5,13.6-4.9,26.7,1.9,39.3c7,13.1,21,20.5,35.1,23.4&#xA;&#x9;&#x9;c17.7,3.5,37.8,2.7,54.1-5.2c13.6-6.6,21.8-17.4,24.6-32.4C805,801.8,804.5,802.3,804.6,804.3z"></path>
&#x9;<path class="st13" d="M95.3,788.2c-0.2,0-0.4-0.2-0.4-0.5l-0.3-8.9l-0.4,29.7c0,0,0,0.1,0,0.1c0,0,0,0,0,0c0,0,0,0.1,0,0.1&#xA;&#x9;&#x9;c0,0,0,0,0,0.1c0,0,0,0-0.1,0.1c0,0,0,0-0.1,0c0,0-0.1,0-0.1,0c0,0-0.1,0-0.1,0c-0.1,0-0.1,0-0.2,0c-4-1.2-9.5-2.6-12.1,2.4&#xA;&#x9;&#x9;c-0.2,0.3-0.2,0.6-0.2,1c0,5.3,0.6,12.7-1.2,18.2c0,0.1-0.1,0.1-0.1,0.1c0,0,0,0-0.1,0c0,0,0,0-0.1,0c0,0,0,0-0.1,0&#xA;&#x9;&#x9;c0,0-0.1,0-0.1,0c0,0,0,0,0,0c0-0.1-0.1-0.1-0.1-0.2c0,0,0-0.2-0.1-0.4c-0.5,3.6-1.5,9.4,2.8,9.9c3.1,0.4,6.6,0.3,10.7,0&#xA;&#x9;&#x9;c2.1-0.2,3.1-1.3,3.2-3.4c0.3-12.5,0.3-28.7,0-48.7C95.9,788.1,95.6,788.3,95.3,788.2z"></path>
&#x9;<path class="st13" d="M957.8,781.2l-0.4,16.3c0,0,0,0.1-0.1,0.1c0,0-0.1,0-0.1-0.1l-0.1-1.1c0,0,0-0.1,0-0.1c0,0,0,0,0-0.1&#xA;&#x9;&#x9;c0,0,0-0.1,0-0.1c0,0,0,0-0.1-0.1c0,0,0,0-0.1-0.1c0,0-0.1,0-0.1,0c0,0-0.1,0-0.1,0c0,0-0.1,0-0.1,0c0,0-0.1,0-0.1,0&#xA;&#x9;&#x9;c-2.5,0.6-9.7,2.6-10.9-0.5c-0.5-1.3-1.2-4.3-2.1-8.8c-0.3,0.9-0.8,1.5-1.3,1.9c2,9.8,0,18.4-6.1,25.9c0.7,0.7,1.7,0,3.1-2&#xA;&#x9;&#x9;c2.2-3.2,3.8-6.6,5-10.3c0.1-0.2,0.3-0.3,0.5-0.3h0c0.2,0,0.3,0.2,0.3,0.4c-0.8,4.1-1.8,7.2-3.1,9.2c-10,16-28.7,18.1-46,14.9&#xA;&#x9;&#x9;c-0.1,0-0.1,0-0.2,0l-8.6,0.1c-0.3,0-0.5-0.2-0.6-0.4l0,0c0-0.1,0.1-0.2,0.2-0.2l4.7-0.1l-24.8,0c0,0,0,0,0,0c0,0-0.1,0-0.1,0&#xA;&#x9;&#x9;c0,0-0.1,0-0.1,0c0,0-0.1,0-0.1-0.1c0,0-0.1,0-0.1-0.1c0,0,0-0.1-0.1-0.1c0,0,0-0.1-0.1-0.1c0,0,0-0.1,0-0.1c0,0,0-0.1,0-0.1&#xA;&#x9;&#x9;l0-16.3l-0.5,1.8c0,0,0,0.1-0.1,0.1c0,0,0,0,0,0c0,0,0,0,0,0c0,0,0,0,0,0c0,0-0.1,0-0.1,0c0,0,0,0,0,0c0,0-0.1-0.1-0.1-0.1l-0.5-7&#xA;&#x9;&#x9;l-0.4,6.6c0,0,0,0.1,0,0.1c0,0,0,0,0,0c0,0,0,0,0,0.1c0,0,0,0,0,0.1c0,0,0,0-0.1,0c0,0,0,0-0.1,0c0,0,0,0-0.1,0c0,0,0,0-0.1,0&#xA;&#x9;&#x9;c0,0-0.1,0-0.1,0l-13.4-5.2c0,9.4,0,18.7,0,28c0,1.5,0.4,2.9,1.2,4.1c0.2,0.3,0.5,0.4,0.8,0.4c23.4-0.1,41.3-0.2,53.7-0.3&#xA;&#x9;&#x9;c4.8,0,9.2-0.3,13.5-0.9c7.8-1.1,15.3-3.9,22.5-8.6c1.4-0.9,2.7-2,4-3.4c2.1-2.2,3.3-3.5,3.7-3.9c4-4.4,6.6-10,7.9-16.7&#xA;&#x9;&#x9;c0-0.1,0.1-0.2,0.2-0.3c0,0,0,0,0.1-0.1c0.1-0.1,0.1-0.1,0.2-0.1c0,0,0,0,0,0c0,0,0,0,0,0c0,0,0.1,0,0.1,0c0,0,0.1,0,0.1,0&#xA;&#x9;&#x9;c0,0,0,0,0.1,0c0.1,0,0.2,0.1,0.2,0.1c0,0,0,0,0.1,0.1c0.1,0.1,0.1,0.2,0.2,0.3c0.1,0.3,0.1,0.7,0,1.3&#xA;&#x9;&#x9;C960.8,797.2,960.4,789.2,957.8,781.2z"></path>
&#x9;<path class="st11" d="M153.1,803.5c-1.8,2.3-3.9,4.3-6.1,6.9c-0.6,0.7-1.5,0.7-2.2,0.2c-1.6-1.3-3.1-2.7-4.4-4.3&#xA;&#x9;&#x9;c-3.9-4.7-7.5-9.6-11-14.6l-0.7-1l-17.8-4.9c8.8,12,17.9,23.9,27.1,35.6c2.7,3.4,7.9,3.2,11.7,2.6c1.3-0.2,2.5-1,3.5-2.4&#xA;&#x9;&#x9;c7.6-10.1,15.2-20.2,22.7-30.4l-7.8-7.8C163.1,790.2,158.1,796.9,153.1,803.5z"></path>
&#x9;<path class="st5" d="M604.1,789.2c-15.7-0.4-30.7,0.1-44.2,0.2c-2.5,0-5.2-0.3-7.8-0.5c13.5,4.9,27.4,7.1,41.7,6.7&#xA;&#x9;&#x9;c3-0.1,6.5-0.5,10.7-1.1c9-1.4,15.9-2.4,23.8-5.9C620.9,789.5,613.8,789.4,604.1,789.2z"></path>
&#x9;<path class="st11" d="M806.3,793.4C806.3,793.4,806.3,793.4,806.3,793.4C806.2,793.4,806.2,793.4,806.3,793.4&#xA;&#x9;&#x9;c-0.1-0.1-0.1-0.1-0.1-0.1c0,0-0.1,0-0.1,0c0,0,0,0,0,0c0,0-0.1,0.1-0.1,0.1c-0.8,3.4-1.3,6.1-1.4,8.2c0,0,0-0.1,0-0.1&#xA;&#x9;&#x9;c-0.5-3.1-0.9-6.2-1.3-9.2c-0.1-0.7-0.7-1.2-1.4-1.2l-10.5,0.1l-1,12.1c2.8,3.4-5.1,12.6-7.9,15.3c-5.3,5.1-11.2,8.2-17.7,9.5&#xA;&#x9;&#x9;c-5.4,1-8.1,1.8-12.4,1.8c-8.5,0-14.5-0.2-18-0.8c-9.6-1.5-17.7-5.3-24.3-11.6c-3.9-3.6-6.6-8.3-8.3-14c0-0.2-0.1-0.3,0-0.5&#xA;&#x9;&#x9;l0.6-4.3c0,0,0,0,0,0c0,0,0,0,0,0l0,0c0.1,2.8,1.1,5.3,2.9,7.2c-1.3-4.6-1.8-8.7-1.6-12.4c-0.1,0.7-0.2,1.3-0.4,1.8&#xA;&#x9;&#x9;c0,0.1-0.1,0.1-0.2,0.2c0,0,0,0,0,0c-0.1,0-0.2,0.1-0.2,0.1c0,0,0,0,0,0c0,0-0.1,0-0.1,0c0,0-0.1,0-0.1,0c-0.1,0-0.1-0.1-0.2-0.2&#xA;&#x9;&#x9;c0,0,0,0,0,0c0-0.1-0.1-0.2-0.1-0.2l-0.3-5.7l-0.3,1.5c0,0.3-0.3,0.4-0.6,0.4c-3-0.2-6.3,0.1-9.8,1c-0.6,0.2-1.1,0.7-1.2,1.3&#xA;&#x9;&#x9;l-1,6.1c0,0.1-0.1,0.1-0.1,0.2c0,0,0,0-0.1,0c0,0,0,0-0.1,0c0,0,0,0-0.1,0c0,0-0.1,0-0.1,0c0,0,0,0-0.1,0c-0.1,0-0.1-0.1-0.1-0.2&#xA;&#x9;&#x9;l-0.1-0.6c0.1,3.3,0.8,6.6,2,9.9c8.1,22.9,33.8,30.3,55.7,30.3c5.4,0,9.8-0.2,13.2-0.6c8.3-1,15.9-3.2,22.9-6.7&#xA;&#x9;&#x9;c2.8-1.4,5.2-3,7.2-4.8c2.4-2.2,4.4-4.2,6.1-6.2c3.7-4.3,6.4-9.5,8.2-15.6c0.1-0.2,0.2-0.5,0.5-0.7c0.2-0.2,0.3-0.5,0.3-0.8&#xA;&#x9;&#x9;c0-2.1,0.5-2.6,1.5-1.6l0.6-8.2c-0.2-0.4-0.3-0.8-0.3-1C806.4,793.5,806.3,793.5,806.3,793.4z"></path>
&#x9;<path class="st1" d="M345.8,791.3c0.9,1.7,1.1,3.5,0.6,5.6c-0.4,1.8-1.4,2.7-3,2.9c-2.6,0.3-9.9,0.3-22-0.1c-0.8,0-1.5,0-2.3,0.2&#xA;&#x9;&#x9;c-2.4,0.6-4.7,0.8-6.9,0.6c-4.2-0.3-6.3-0.5-6.3-0.5c-0.5-0.1-3.4,0-8.5,0.1c-2.4,0.1-5.2,0-8.5-0.2c-4.9-0.3-10.1-0.3-15.8,0&#xA;&#x9;&#x9;c-0.3,0-0.7,0.2-0.8,0.5c-0.8,1.7-0.4,2.4,1.2,2.1c0.6-0.3,1.2-0.5,1.6-0.5c12.9-0.1,35.5,0,67.9,0.1c5.5,0,4.8-8.5,3.7-11.8&#xA;&#x9;&#x9;C346.2,790.8,345.9,791,345.8,791.3z"></path>
&#x9;<path class="st1" d="M355.9,825.5c-1.1,0.1-0.6,0.9,1.6,2.3c0.3,0.2,0.5,0.5,0.5,0.8c0.2,1.4,0.3,3.2,0.4,5.4&#xA;&#x9;&#x9;c0,1.7-0.4,2.8-1.2,3.2c-0.3,0.1-0.6,0.3-0.9,0.4c-1.2,0.4-8.2,0.5-21,0.3c-25.4-0.3-38.8-0.1-50.4-1.1c-0.7-0.1-1.4-0.2-2-0.4&#xA;&#x9;&#x9;c-1.5-0.5-2.3-0.8-2.4-0.8c-2.7-1.7-6.4-2.7-8.6-4.2c-5.3-3.5-9-8.5-11.1-14.8c-2.5-7.5-3-15.1-3.3-23.3c0-0.1,0-0.1,0-0.2&#xA;&#x9;&#x9;c0,0,0,0,0,0c0,0,0-0.1-0.1-0.1c0,0,0,0,0,0c0,0,0,0-0.1,0c0,0-0.1,0-0.1,0c0,0-0.1,0-0.1,0c0,0,0,0-0.1,0c0,0-0.1,0-0.1,0&#xA;&#x9;&#x9;c0,0,0,0,0,0c0,0-0.1,0.1-0.1,0.1c-0.2,0.2-0.4,0.6-0.5,1.1c-0.4,8.6,0.6,16.3,2.8,23c5,15.2,19.6,23,35.3,23.1&#xA;&#x9;&#x9;c23.3,0.2,43.9,0.1,61.8-0.1c4.9-0.1,4.2-9.3,3.3-12C358.9,826.9,357.8,826.1,355.9,825.5z"></path>
&#x9;<path class="st3" d="M628.7,800.7c0-0.1,0-0.1,0-0.2c0,0,0-0.1,0-0.1c0,0,0-0.1,0-0.1c0-0.1,0-0.2-0.1-0.3c0-0.1,0-0.2-0.1-0.2&#xA;&#x9;&#x9;c0-0.1-0.1-0.1-0.1-0.2c-0.1-0.1-0.1-0.1-0.2-0.2c-0.1-0.1-0.1-0.1-0.2-0.1c-0.1,0-0.2-0.1-0.2-0.1c-0.1,0-0.1,0-0.2-0.1&#xA;&#x9;&#x9;c-0.1,0-0.1,0-0.2,0h-70.7c-0.2,0-0.5,0.1-0.7,0.2c-0.9,0.6-1.3,1.6-1.2,2.9c0,0.1,0,0.1,0.1,0.2c0,0,0,0,0,0c0,0,0,0,0,0&#xA;&#x9;&#x9;c0,0,0,0,0.1,0.1c0,0,0,0,0.1,0c0,0,0,0,0.1,0c0,0,0.1,0,0.1,0c0,0,0,0,0.1,0c0.1,0,0.1,0,0.2-0.1c0.1-0.1,0.3-0.2,0.5-0.2&#xA;&#x9;&#x9;c0.2-0.7,0.8-1.1,1.6-1.1c23,0.1,46,0.1,69,0.1c0.3,0,0.5,0.2,0.7,0.5C628,802.2,628.4,801.8,628.7,800.7z"></path>
&#x9;<path class="st8" d="M788.3,804.6c-7.8,22.9-38.5,25.7-58.1,21c-6.9-1.6-12.6-4.5-17.2-8.6c-3.3-3-5.9-6.6-7.8-10.8&#xA;&#x9;&#x9;c-1.9-2-2.9-4.4-2.9-7.2l0,0c0,0,0,0,0,0l-0.6,4.3c0,0.2,0,0.3,0,0.5c1.6,5.7,4.4,10.4,8.3,14c6.6,6.2,14.7,10.1,24.3,11.6&#xA;&#x9;&#x9;c3.5,0.5,9.5,0.8,18,0.8c4.3,0,7-0.8,12.4-1.8c6.5-1.2,12.5-4.4,17.7-9.5c2.9-2.8,10.7-11.9,7.9-15.3&#xA;&#x9;&#x9;C789.3,805.7,788.6,806.1,788.3,804.6z"></path>
&#x9;<path class="st5" d="M891.4,825.7l-4.7,0.1c-0.1,0-0.2,0.1-0.2,0.2l0,0c0.1,0.2,0.3,0.4,0.6,0.4l8.6-0.1c0.1,0,0.1,0,0.2,0&#xA;&#x9;&#x9;c17.3,3.2,36,1.1,46-14.9c1.3-2,2.3-5.1,3.1-9.2c0-0.2-0.1-0.4-0.3-0.4h0c-0.2,0-0.4,0.1-0.5,0.3c-1.1,3.7-2.8,7.1-5,10.3&#xA;&#x9;&#x9;c-1.4,2.1-2.5,2.8-3.1,2c-6.5,6-14.3,9.4-23.3,10.3C905.7,825.4,898.5,825.8,891.4,825.7z"></path>
</g>
</svg>